<svg id="Layer_1" data-name="Layer 1" xmlns="http://www.w3.org/2000/svg" xmlns:xlink="http://www.w3.org/1999/xlink" viewBox="0 0 101 99"><defs><style>.cls-1{fill:url(#linear-gradient);}.cls-2{fill:url(#linear-gradient-2);}.cls-3{fill:url(#linear-gradient-3);}.cls-4{fill:url(#linear-gradient-4);}.cls-5{fill:url(#linear-gradient-5);}.cls-6{fill:url(#linear-gradient-6);}.cls-7{fill:url(#linear-gradient-7);}.cls-8{fill:url(#linear-gradient-8);}.cls-9{fill:url(#linear-gradient-9);}.cls-10{fill:url(#linear-gradient-10);}.cls-11{fill:url(#linear-gradient-11);}.cls-12{fill:url(#linear-gradient-12);}.cls-13{fill:url(#linear-gradient-13);}.cls-14{fill:url(#linear-gradient-14);}.cls-15{fill:url(#linear-gradient-15);}.cls-16{fill:url(#linear-gradient-16);}.cls-17{fill:url(#linear-gradient-17);}.cls-18{fill:url(#linear-gradient-18);}.cls-19{fill:url(#linear-gradient-19);}.cls-20{fill:url(#linear-gradient-20);}.cls-21{fill:url(#linear-gradient-21);}.cls-22{fill:url(#linear-gradient-22);}.cls-23{fill:url(#linear-gradient-23);}.cls-24{fill:url(#linear-gradient-24);}.cls-25{fill:url(#linear-gradient-25);}.cls-26{fill:url(#linear-gradient-26);}.cls-27{fill:url(#linear-gradient-27);}.cls-28{fill:url(#linear-gradient-28);}.cls-29{fill:url(#linear-gradient-29);}.cls-30{fill:url(#linear-gradient-30);}.cls-31{fill:url(#linear-gradient-31);}.cls-32{fill:url(#linear-gradient-32);}.cls-33{fill:url(#linear-gradient-33);}.cls-34{fill:url(#linear-gradient-34);}.cls-35{fill:url(#linear-gradient-35);}.cls-36{fill:url(#linear-gradient-36);}.cls-37{fill:url(#linear-gradient-37);}.cls-38{fill:url(#linear-gradient-38);}.cls-39{fill:url(#linear-gradient-39);}.cls-40{fill:url(#linear-gradient-40);}.cls-41{fill:url(#linear-gradient-41);}.cls-42{fill:url(#linear-gradient-42);}.cls-43{fill:url(#linear-gradient-43);}.cls-44{fill:url(#linear-gradient-44);}.cls-45{fill:url(#linear-gradient-45);}.cls-46{fill:url(#linear-gradient-46);}.cls-47{fill:url(#linear-gradient-47);}.cls-48{fill:url(#linear-gradient-48);}.cls-49{fill:url(#linear-gradient-49);}.cls-50{fill:url(#linear-gradient-50);}.cls-51{fill:url(#linear-gradient-51);}.cls-52{fill:url(#linear-gradient-52);}.cls-53{fill:url(#linear-gradient-53);}.cls-54{fill:url(#linear-gradient-54);}.cls-55{fill:url(#linear-gradient-55);}.cls-56{fill:url(#linear-gradient-56);}.cls-57{fill:url(#linear-gradient-57);}.cls-58{fill:url(#linear-gradient-58);}.cls-59{fill:url(#linear-gradient-59);}.cls-60{fill:url(#linear-gradient-60);}.cls-61{fill:url(#linear-gradient-61);}.cls-62{fill:url(#linear-gradient-62);}.cls-63{fill:url(#linear-gradient-63);}.cls-64{fill:url(#linear-gradient-64);}.cls-65{fill:url(#linear-gradient-65);}.cls-66{fill:url(#linear-gradient-66);}.cls-67{fill:url(#linear-gradient-67);}.cls-68{fill:url(#linear-gradient-68);}.cls-69{fill:url(#linear-gradient-69);}.cls-70{fill:url(#linear-gradient-70);}.cls-71{fill:url(#linear-gradient-71);}.cls-72{fill:url(#linear-gradient-72);}.cls-73{fill:url(#linear-gradient-73);}.cls-74{fill:url(#linear-gradient-74);}.cls-75{fill:url(#linear-gradient-75);}.cls-76{fill:url(#linear-gradient-76);}.cls-77{fill:url(#linear-gradient-77);}.cls-78{fill:url(#linear-gradient-78);}.cls-79{fill:url(#linear-gradient-79);}.cls-80{fill:url(#linear-gradient-80);}.cls-81{fill:url(#linear-gradient-81);}.cls-82{fill:url(#linear-gradient-82);}.cls-83{fill:url(#linear-gradient-83);}.cls-84{fill:url(#linear-gradient-84);}.cls-85{fill:url(#linear-gradient-85);}.cls-86{fill:url(#linear-gradient-86);}.cls-87{fill:url(#linear-gradient-87);}.cls-88{fill:url(#linear-gradient-88);}.cls-89{fill:url(#linear-gradient-89);}.cls-90{fill:url(#linear-gradient-90);}.cls-91{fill:url(#linear-gradient-91);}.cls-92{fill:url(#linear-gradient-92);}.cls-93{fill:url(#linear-gradient-93);}.cls-94{fill:url(#linear-gradient-94);}.cls-95{fill:url(#linear-gradient-95);}.cls-96{fill:url(#linear-gradient-96);}.cls-97{fill:url(#linear-gradient-97);}.cls-98{fill:url(#linear-gradient-98);}.cls-99{fill:url(#linear-gradient-99);}.cls-100{fill:url(#linear-gradient-100);}.cls-101{fill:url(#linear-gradient-101);}.cls-102{fill:url(#linear-gradient-102);}.cls-103{fill:url(#linear-gradient-103);}.cls-104{fill:url(#linear-gradient-104);}.cls-105{fill:url(#linear-gradient-105);}.cls-106{fill:url(#linear-gradient-106);}.cls-107{fill:url(#linear-gradient-107);}.cls-108{fill:url(#linear-gradient-108);}.cls-109{fill:url(#linear-gradient-109);}.cls-110{fill:url(#linear-gradient-110);}.cls-111{fill:url(#linear-gradient-111);}.cls-112{fill:url(#linear-gradient-112);}.cls-113{fill:url(#linear-gradient-113);}.cls-114{fill:url(#linear-gradient-114);}.cls-115{fill:url(#linear-gradient-115);}.cls-116{fill:url(#linear-gradient-116);}.cls-117{fill:url(#linear-gradient-117);}.cls-118{fill:url(#linear-gradient-118);}.cls-119{fill:url(#linear-gradient-119);}.cls-120{fill:url(#linear-gradient-120);}.cls-121{fill:url(#linear-gradient-121);}.cls-122{fill:url(#linear-gradient-122);}.cls-123{fill:url(#linear-gradient-123);}.cls-124{fill:url(#linear-gradient-124);}.cls-125{fill:url(#linear-gradient-125);}.cls-126{fill:url(#linear-gradient-126);}.cls-127{fill:url(#linear-gradient-127);}.cls-128{fill:url(#linear-gradient-128);}.cls-129{fill:url(#linear-gradient-129);}.cls-130{fill:url(#linear-gradient-130);}.cls-131{fill:url(#linear-gradient-131);}.cls-132{fill:url(#linear-gradient-132);}.cls-133{fill:url(#linear-gradient-133);}.cls-134{fill:url(#linear-gradient-134);}.cls-135{fill:url(#linear-gradient-135);}.cls-136{fill:url(#linear-gradient-136);}.cls-137{fill:url(#linear-gradient-137);}.cls-138{fill:url(#linear-gradient-138);}.cls-139{fill:url(#linear-gradient-139);}.cls-140{fill:url(#linear-gradient-140);}.cls-141{fill:url(#linear-gradient-141);}.cls-142{fill:url(#linear-gradient-142);}.cls-143{fill:url(#linear-gradient-143);}.cls-144{fill:url(#linear-gradient-144);}.cls-145{fill:url(#linear-gradient-145);}.cls-146{fill:url(#linear-gradient-146);}.cls-147{fill:url(#linear-gradient-147);}.cls-148{fill:url(#linear-gradient-148);}.cls-149{fill:url(#linear-gradient-149);}.cls-150{fill:url(#linear-gradient-150);}.cls-151{fill:url(#linear-gradient-151);}.cls-152{fill:url(#linear-gradient-152);}.cls-153{fill:url(#linear-gradient-153);}.cls-154{fill:url(#linear-gradient-154);}.cls-155{fill:url(#linear-gradient-155);}.cls-156{fill:url(#linear-gradient-156);}.cls-157{fill:url(#linear-gradient-157);}.cls-158{fill:url(#linear-gradient-158);}.cls-159{fill:url(#linear-gradient-159);}.cls-160{fill:url(#linear-gradient-160);}.cls-161{fill:url(#linear-gradient-161);}.cls-162{fill:url(#linear-gradient-162);}.cls-163{fill:url(#linear-gradient-163);}.cls-164{fill:url(#linear-gradient-164);}.cls-165{fill:url(#linear-gradient-165);}.cls-166{fill:url(#linear-gradient-166);}.cls-167{fill:url(#linear-gradient-167);}.cls-168{fill:url(#linear-gradient-168);}.cls-169{fill:url(#linear-gradient-169);}.cls-170{fill:url(#linear-gradient-170);}.cls-171{fill:url(#linear-gradient-171);}.cls-172{fill:url(#linear-gradient-172);}.cls-173{fill:url(#linear-gradient-173);}.cls-174{fill:url(#linear-gradient-174);}.cls-175{fill:url(#linear-gradient-175);}.cls-176{fill:url(#linear-gradient-176);}.cls-177{fill:url(#linear-gradient-177);}.cls-178{fill:url(#linear-gradient-178);}.cls-179{fill:url(#linear-gradient-179);}.cls-180{fill:url(#linear-gradient-180);}.cls-181{fill:url(#linear-gradient-181);}.cls-182{fill:url(#linear-gradient-182);}.cls-183{fill:url(#linear-gradient-183);}.cls-184{fill:url(#linear-gradient-184);}.cls-185{fill:url(#linear-gradient-185);}.cls-186{fill:url(#linear-gradient-186);}.cls-187{fill:url(#linear-gradient-187);}.cls-188{fill:url(#linear-gradient-188);}.cls-189{fill:url(#linear-gradient-189);}.cls-190{fill:url(#linear-gradient-190);}.cls-191{fill:url(#linear-gradient-191);}.cls-192{fill:url(#linear-gradient-192);}.cls-193{fill:url(#linear-gradient-193);}.cls-194{fill:url(#linear-gradient-194);}.cls-195{fill:url(#linear-gradient-195);}.cls-196{fill:url(#linear-gradient-196);}.cls-197{fill:url(#linear-gradient-197);}.cls-198{fill:url(#linear-gradient-198);}.cls-199{fill:url(#linear-gradient-199);}.cls-200{fill:url(#linear-gradient-200);}.cls-201{fill:url(#linear-gradient-201);}.cls-202{fill:url(#linear-gradient-202);}.cls-203{fill:url(#linear-gradient-203);}</style><linearGradient id="linear-gradient" x1="55.77" y1="76.22" x2="84.53" y2="76.22" gradientTransform="matrix(1, 0, 0, 1, 0.73, -0.24)" gradientUnits="userSpaceOnUse"><stop offset="0.12" stop-color="#fd80d7"/><stop offset="0.98" stop-color="#ff5c55"/></linearGradient><linearGradient id="linear-gradient-2" x1="54.77" y1="77.1" x2="83.53" y2="77.1" xlink:href="#linear-gradient"/><linearGradient id="linear-gradient-3" x1="53.74" y1="77.88" x2="82.5" y2="77.88" xlink:href="#linear-gradient"/><linearGradient id="linear-gradient-4" x1="52.68" y1="78.57" x2="81.44" y2="78.57" xlink:href="#linear-gradient"/><linearGradient id="linear-gradient-5" x1="51.59" y1="79.18" x2="80.36" y2="79.18" xlink:href="#linear-gradient"/><linearGradient id="linear-gradient-6" x1="50.49" y1="79.71" x2="79.25" y2="79.71" xlink:href="#linear-gradient"/><linearGradient id="linear-gradient-7" x1="49.38" y1="80.17" x2="78.14" y2="80.17" xlink:href="#linear-gradient"/><linearGradient id="linear-gradient-8" x1="48.26" y1="80.56" x2="77.03" y2="80.56" xlink:href="#linear-gradient"/><linearGradient id="linear-gradient-9" x1="47.15" y1="80.88" x2="75.91" y2="80.88" xlink:href="#linear-gradient"/><linearGradient id="linear-gradient-10" x1="46.04" y1="81.15" x2="74.81" y2="81.15" xlink:href="#linear-gradient"/><linearGradient id="linear-gradient-11" x1="44.95" y1="81.36" x2="73.71" y2="81.36" xlink:href="#linear-gradient"/><linearGradient id="linear-gradient-12" x1="43.87" y1="81.51" x2="72.63" y2="81.51" xlink:href="#linear-gradient"/><linearGradient id="linear-gradient-13" x1="42.82" y1="81.62" x2="71.58" y2="81.62" xlink:href="#linear-gradient"/><linearGradient id="linear-gradient-14" x1="41.8" y1="81.69" x2="70.56" y2="81.69" xlink:href="#linear-gradient"/><linearGradient id="linear-gradient-15" x1="40.81" y1="81.73" x2="69.58" y2="81.73" xlink:href="#linear-gradient"/><linearGradient id="linear-gradient-16" x1="39.87" y1="81.73" x2="68.64" y2="81.73" xlink:href="#linear-gradient"/><linearGradient id="linear-gradient-17" x1="38.98" y1="81.7" x2="67.74" y2="81.7" xlink:href="#linear-gradient"/><linearGradient id="linear-gradient-18" x1="38.14" y1="81.65" x2="66.9" y2="81.65" xlink:href="#linear-gradient"/><linearGradient id="linear-gradient-19" x1="37.36" y1="81.58" x2="66.13" y2="81.58" xlink:href="#linear-gradient"/><linearGradient id="linear-gradient-20" x1="36.29" y1="81.46" x2="65.05" y2="81.46" xlink:href="#linear-gradient"/><linearGradient id="linear-gradient-21" x1="34.95" y1="81.25" x2="63.71" y2="81.25" xlink:href="#linear-gradient"/><linearGradient id="linear-gradient-22" x1="33.64" y1="81" x2="62.41" y2="81" xlink:href="#linear-gradient"/><linearGradient id="linear-gradient-23" x1="32.38" y1="80.7" x2="61.14" y2="80.7" xlink:href="#linear-gradient"/><linearGradient id="linear-gradient-24" x1="31.16" y1="80.37" x2="59.92" y2="80.37" xlink:href="#linear-gradient"/><linearGradient id="linear-gradient-25" x1="29.97" y1="79.99" x2="58.73" y2="79.99" xlink:href="#linear-gradient"/><linearGradient id="linear-gradient-26" x1="28.82" y1="79.57" x2="57.58" y2="79.57" xlink:href="#linear-gradient"/><linearGradient id="linear-gradient-27" x1="27.71" y1="79.11" x2="56.47" y2="79.11" xlink:href="#linear-gradient"/><linearGradient id="linear-gradient-28" x1="26.64" y1="78.62" x2="55.4" y2="78.62" xlink:href="#linear-gradient"/><linearGradient id="linear-gradient-29" x1="25.61" y1="78.09" x2="54.37" y2="78.09" xlink:href="#linear-gradient"/><linearGradient id="linear-gradient-30" x1="24.61" y1="77.52" x2="53.37" y2="77.52" xlink:href="#linear-gradient"/><linearGradient id="linear-gradient-31" x1="23.65" y1="76.92" x2="52.41" y2="76.92" xlink:href="#linear-gradient"/><linearGradient id="linear-gradient-32" x1="22.73" y1="76.28" x2="51.49" y2="76.28" xlink:href="#linear-gradient"/><linearGradient id="linear-gradient-33" x1="21.84" y1="75.62" x2="50.61" y2="75.62" xlink:href="#linear-gradient"/><linearGradient id="linear-gradient-34" x1="20.99" y1="74.92" x2="49.76" y2="74.92" xlink:href="#linear-gradient"/><linearGradient id="linear-gradient-35" x1="20.18" y1="74.19" x2="48.94" y2="74.19" xlink:href="#linear-gradient"/><linearGradient id="linear-gradient-36" x1="19.4" y1="73.43" x2="48.17" y2="73.43" xlink:href="#linear-gradient"/><linearGradient id="linear-gradient-37" x1="18.66" y1="72.65" x2="47.43" y2="72.65" xlink:href="#linear-gradient"/><linearGradient id="linear-gradient-38" x1="17.96" y1="71.84" x2="46.72" y2="71.84" xlink:href="#linear-gradient"/><linearGradient id="linear-gradient-39" x1="17.29" y1="71" x2="46.05" y2="71" xlink:href="#linear-gradient"/><linearGradient id="linear-gradient-40" x1="16.65" y1="70.14" x2="45.42" y2="70.14" xlink:href="#linear-gradient"/><linearGradient id="linear-gradient-41" x1="16.05" y1="69.26" x2="44.82" y2="69.26" xlink:href="#linear-gradient"/><linearGradient id="linear-gradient-42" x1="15.49" y1="68.36" x2="44.25" y2="68.36" xlink:href="#linear-gradient"/><linearGradient id="linear-gradient-43" x1="14.96" y1="67.43" x2="43.72" y2="67.43" xlink:href="#linear-gradient"/><linearGradient id="linear-gradient-44" x1="14.46" y1="66.49" x2="43.22" y2="66.49" xlink:href="#linear-gradient"/><linearGradient id="linear-gradient-45" x1="14" y1="65.53" x2="42.76" y2="65.53" xlink:href="#linear-gradient"/><linearGradient id="linear-gradient-46" x1="13.57" y1="64.55" x2="42.33" y2="64.55" xlink:href="#linear-gradient"/><linearGradient id="linear-gradient-47" x1="13.17" y1="63.55" x2="41.94" y2="63.55" xlink:href="#linear-gradient"/><linearGradient id="linear-gradient-48" x1="12.81" y1="62.54" x2="41.58" y2="62.54" xlink:href="#linear-gradient"/><linearGradient id="linear-gradient-49" x1="12.48" y1="61.52" x2="41.25" y2="61.52" xlink:href="#linear-gradient"/><linearGradient id="linear-gradient-50" x1="12.19" y1="60.48" x2="40.95" y2="60.48" xlink:href="#linear-gradient"/><linearGradient id="linear-gradient-51" x1="11.92" y1="59.44" x2="40.69" y2="59.44" xlink:href="#linear-gradient"/><linearGradient id="linear-gradient-52" x1="11.69" y1="58.38" x2="40.45" y2="58.38" xlink:href="#linear-gradient"/><linearGradient id="linear-gradient-53" x1="11.49" y1="57.31" x2="40.26" y2="57.31" xlink:href="#linear-gradient"/><linearGradient id="linear-gradient-54" x1="11.32" y1="56.24" x2="40.09" y2="56.24" xlink:href="#linear-gradient"/><linearGradient id="linear-gradient-55" x1="11.19" y1="55.16" x2="39.95" y2="55.16" xlink:href="#linear-gradient"/><linearGradient id="linear-gradient-56" x1="11.08" y1="54.07" x2="39.85" y2="54.07" xlink:href="#linear-gradient"/><linearGradient id="linear-gradient-57" x1="11.01" y1="52.98" x2="39.77" y2="52.98" xlink:href="#linear-gradient"/><linearGradient id="linear-gradient-58" x1="10.97" y1="51.89" x2="39.73" y2="51.89" xlink:href="#linear-gradient"/><linearGradient id="linear-gradient-59" x1="10.96" y1="50.8" x2="39.72" y2="50.8" xlink:href="#linear-gradient"/><linearGradient id="linear-gradient-60" x1="10.98" y1="49.7" x2="39.74" y2="49.7" xlink:href="#linear-gradient"/><linearGradient id="linear-gradient-61" x1="11.02" y1="48.6" x2="39.79" y2="48.6" xlink:href="#linear-gradient"/><linearGradient id="linear-gradient-62" x1="11.1" y1="47.51" x2="39.87" y2="47.51" xlink:href="#linear-gradient"/><linearGradient id="linear-gradient-63" x1="11.21" y1="46.42" x2="39.98" y2="46.42" xlink:href="#linear-gradient"/><linearGradient id="linear-gradient-64" x1="11.35" y1="45.33" x2="40.11" y2="45.33" xlink:href="#linear-gradient"/><linearGradient id="linear-gradient-65" x1="11.52" y1="44.25" x2="40.28" y2="44.25" xlink:href="#linear-gradient"/><linearGradient id="linear-gradient-66" x1="11.71" y1="43.17" x2="40.48" y2="43.17" xlink:href="#linear-gradient"/><linearGradient id="linear-gradient-67" x1="11.94" y1="42.1" x2="40.7" y2="42.1" xlink:href="#linear-gradient"/><linearGradient id="linear-gradient-68" x1="12.19" y1="41.04" x2="40.96" y2="41.04" xlink:href="#linear-gradient"/><linearGradient id="linear-gradient-69" x1="12.48" y1="39.99" x2="41.24" y2="39.99" xlink:href="#linear-gradient"/><linearGradient id="linear-gradient-70" x1="12.79" y1="38.95" x2="41.55" y2="38.95" xlink:href="#linear-gradient"/><linearGradient id="linear-gradient-71" x1="13.12" y1="37.92" x2="41.89" y2="37.92" xlink:href="#linear-gradient"/><linearGradient id="linear-gradient-72" x1="13.49" y1="36.91" x2="42.25" y2="36.91" xlink:href="#linear-gradient"/><linearGradient id="linear-gradient-73" x1="13.88" y1="35.9" x2="42.65" y2="35.9" xlink:href="#linear-gradient"/><linearGradient id="linear-gradient-74" x1="14.3" y1="34.92" x2="43.07" y2="34.92" xlink:href="#linear-gradient"/><linearGradient id="linear-gradient-75" x1="14.75" y1="33.95" x2="43.52" y2="33.95" xlink:href="#linear-gradient"/><linearGradient id="linear-gradient-76" x1="15.23" y1="33" x2="43.99" y2="33" xlink:href="#linear-gradient"/><linearGradient id="linear-gradient-77" x1="15.73" y1="32.07" x2="44.49" y2="32.07" xlink:href="#linear-gradient"/><linearGradient id="linear-gradient-78" x1="16.25" y1="31.15" x2="45.02" y2="31.15" xlink:href="#linear-gradient"/><linearGradient id="linear-gradient-79" x1="16.81" y1="30.26" x2="45.57" y2="30.26" xlink:href="#linear-gradient"/><linearGradient id="linear-gradient-80" x1="17.39" y1="29.39" x2="46.15" y2="29.39" xlink:href="#linear-gradient"/><linearGradient id="linear-gradient-81" x1="17.99" y1="28.55" x2="46.75" y2="28.55" xlink:href="#linear-gradient"/><linearGradient id="linear-gradient-82" x1="18.62" y1="27.73" x2="47.38" y2="27.73" xlink:href="#linear-gradient"/><linearGradient id="linear-gradient-83" x1="19.27" y1="26.93" x2="48.04" y2="26.93" xlink:href="#linear-gradient"/><linearGradient id="linear-gradient-84" x1="19.95" y1="26.16" x2="48.72" y2="26.16" xlink:href="#linear-gradient"/><linearGradient id="linear-gradient-85" x1="20.66" y1="25.42" x2="49.42" y2="25.42" xlink:href="#linear-gradient"/><linearGradient id="linear-gradient-86" x1="21.39" y1="24.71" x2="50.15" y2="24.71" xlink:href="#linear-gradient"/><linearGradient id="linear-gradient-87" x1="22.14" y1="24.03" x2="50.9" y2="24.03" xlink:href="#linear-gradient"/><linearGradient id="linear-gradient-88" x1="22.92" y1="23.39" x2="51.68" y2="23.39" xlink:href="#linear-gradient"/><linearGradient id="linear-gradient-89" x1="23.72" y1="22.77" x2="52.48" y2="22.77" xlink:href="#linear-gradient"/><linearGradient id="linear-gradient-90" x1="24.54" y1="22.19" x2="53.3" y2="22.19" xlink:href="#linear-gradient"/><linearGradient id="linear-gradient-91" x1="25.39" y1="21.64" x2="54.15" y2="21.64" xlink:href="#linear-gradient"/><linearGradient id="linear-gradient-92" x1="26.26" y1="21.13" x2="55.02" y2="21.13" xlink:href="#linear-gradient"/><linearGradient id="linear-gradient-93" x1="27.15" y1="20.66" x2="55.91" y2="20.66" xlink:href="#linear-gradient"/><linearGradient id="linear-gradient-94" x1="28.06" y1="20.22" x2="56.83" y2="20.22" xlink:href="#linear-gradient"/><linearGradient id="linear-gradient-95" x1="29" y1="19.83" x2="57.76" y2="19.83" xlink:href="#linear-gradient"/><linearGradient id="linear-gradient-96" x1="29.96" y1="19.48" x2="58.72" y2="19.48" xlink:href="#linear-gradient"/><linearGradient id="linear-gradient-97" x1="30.94" y1="19.17" x2="59.71" y2="19.17" xlink:href="#linear-gradient"/><linearGradient id="linear-gradient-98" x1="31.94" y1="18.9" x2="60.71" y2="18.9" xlink:href="#linear-gradient"/><linearGradient id="linear-gradient-99" x1="32.97" y1="18.67" x2="61.73" y2="18.67" xlink:href="#linear-gradient"/><linearGradient id="linear-gradient-100" x1="34.01" y1="18.49" x2="62.78" y2="18.49" xlink:href="#linear-gradient"/><linearGradient id="linear-gradient-101" x1="35.08" y1="18.36" x2="63.84" y2="18.36" xlink:href="#linear-gradient"/><linearGradient id="linear-gradient-102" x1="36.17" y1="18.28" x2="64.93" y2="18.28" xlink:href="#linear-gradient"/><linearGradient id="linear-gradient-103" x1="36.37" y1="18.27" x2="65.14" y2="18.27" xlink:href="#linear-gradient"/><linearGradient id="linear-gradient-104" x1="36.58" y1="18.26" x2="65.34" y2="18.26" xlink:href="#linear-gradient"/><linearGradient id="linear-gradient-105" x1="36.79" y1="18.25" x2="65.55" y2="18.25" xlink:href="#linear-gradient"/><linearGradient id="linear-gradient-106" x1="36.99" y1="18.24" x2="65.76" y2="18.24" xlink:href="#linear-gradient"/><linearGradient id="linear-gradient-107" x1="37.2" y1="18.24" x2="65.96" y2="18.24" xlink:href="#linear-gradient"/><linearGradient id="linear-gradient-108" x1="37.41" y1="18.24" x2="66.17" y2="18.24" xlink:href="#linear-gradient"/><linearGradient id="linear-gradient-109" x1="37.61" y1="18.23" x2="66.38" y2="18.23" xlink:href="#linear-gradient"/><linearGradient id="linear-gradient-110" x1="37.82" y1="18.23" x2="66.58" y2="18.23" xlink:href="#linear-gradient"/><linearGradient id="linear-gradient-111" x1="38.02" y1="18.23" x2="66.79" y2="18.23" xlink:href="#linear-gradient"/><linearGradient id="linear-gradient-112" x1="38.23" y1="18.23" x2="66.99" y2="18.23" xlink:href="#linear-gradient"/><linearGradient id="linear-gradient-113" x1="38.43" y1="18.24" x2="67.2" y2="18.24" xlink:href="#linear-gradient"/><linearGradient id="linear-gradient-114" x1="38.64" y1="18.24" x2="67.4" y2="18.24" xlink:href="#linear-gradient"/><linearGradient id="linear-gradient-115" x1="38.84" y1="18.25" x2="67.61" y2="18.25" xlink:href="#linear-gradient"/><linearGradient id="linear-gradient-116" x1="39.05" y1="18.25" x2="67.81" y2="18.25" xlink:href="#linear-gradient"/><linearGradient id="linear-gradient-117" x1="39.25" y1="18.26" x2="68.02" y2="18.26" xlink:href="#linear-gradient"/><linearGradient id="linear-gradient-118" x1="39.46" y1="18.27" x2="68.22" y2="18.27" xlink:href="#linear-gradient"/><linearGradient id="linear-gradient-119" x1="39.66" y1="18.28" x2="68.42" y2="18.28" xlink:href="#linear-gradient"/><linearGradient id="linear-gradient-120" x1="39.86" y1="18.29" x2="68.63" y2="18.29" xlink:href="#linear-gradient"/><linearGradient id="linear-gradient-121" x1="40.07" y1="18.31" x2="68.83" y2="18.31" xlink:href="#linear-gradient"/><linearGradient id="linear-gradient-122" x1="40.27" y1="18.32" x2="69.03" y2="18.32" xlink:href="#linear-gradient"/><linearGradient id="linear-gradient-123" x1="40.47" y1="18.34" x2="69.24" y2="18.34" xlink:href="#linear-gradient"/><linearGradient id="linear-gradient-124" x1="40.67" y1="18.35" x2="69.44" y2="18.35" xlink:href="#linear-gradient"/><linearGradient id="linear-gradient-125" x1="40.88" y1="18.37" x2="69.64" y2="18.37" xlink:href="#linear-gradient"/><linearGradient id="linear-gradient-126" x1="41.08" y1="18.39" x2="69.84" y2="18.39" xlink:href="#linear-gradient"/><linearGradient id="linear-gradient-127" x1="41.28" y1="18.41" x2="70.04" y2="18.41" xlink:href="#linear-gradient"/><linearGradient id="linear-gradient-128" x1="41.48" y1="18.43" x2="70.24" y2="18.43" xlink:href="#linear-gradient"/><linearGradient id="linear-gradient-129" x1="41.68" y1="18.46" x2="70.44" y2="18.46" xlink:href="#linear-gradient"/><linearGradient id="linear-gradient-130" x1="41.88" y1="18.48" x2="70.64" y2="18.48" xlink:href="#linear-gradient"/><linearGradient id="linear-gradient-131" x1="42.08" y1="18.51" x2="70.84" y2="18.51" xlink:href="#linear-gradient"/><linearGradient id="linear-gradient-132" x1="42.28" y1="18.53" x2="71.04" y2="18.53" xlink:href="#linear-gradient"/><linearGradient id="linear-gradient-133" x1="42.47" y1="18.56" x2="71.24" y2="18.56" xlink:href="#linear-gradient"/><linearGradient id="linear-gradient-134" x1="42.67" y1="18.59" x2="71.44" y2="18.59" xlink:href="#linear-gradient"/><linearGradient id="linear-gradient-135" x1="42.87" y1="18.62" x2="71.63" y2="18.62" xlink:href="#linear-gradient"/><linearGradient id="linear-gradient-136" x1="43.07" y1="18.65" x2="71.83" y2="18.65" xlink:href="#linear-gradient"/><linearGradient id="linear-gradient-137" x1="43.26" y1="18.69" x2="72.03" y2="18.69" xlink:href="#linear-gradient"/><linearGradient id="linear-gradient-138" x1="43.46" y1="18.72" x2="72.22" y2="18.72" xlink:href="#linear-gradient"/><linearGradient id="linear-gradient-139" x1="43.65" y1="18.76" x2="72.42" y2="18.76" xlink:href="#linear-gradient"/><linearGradient id="linear-gradient-140" x1="43.85" y1="18.79" x2="72.61" y2="18.79" xlink:href="#linear-gradient"/><linearGradient id="linear-gradient-141" x1="44.04" y1="18.83" x2="72.81" y2="18.83" xlink:href="#linear-gradient"/><linearGradient id="linear-gradient-142" x1="44.24" y1="18.87" x2="73" y2="18.87" xlink:href="#linear-gradient"/><linearGradient id="linear-gradient-143" x1="44.43" y1="18.91" x2="73.19" y2="18.91" xlink:href="#linear-gradient"/><linearGradient id="linear-gradient-144" x1="44.62" y1="18.95" x2="73.39" y2="18.95" xlink:href="#linear-gradient"/><linearGradient id="linear-gradient-145" x1="44.81" y1="18.99" x2="73.58" y2="18.99" xlink:href="#linear-gradient"/><linearGradient id="linear-gradient-146" x1="45.01" y1="19.04" x2="73.77" y2="19.04" xlink:href="#linear-gradient"/><linearGradient id="linear-gradient-147" x1="45.2" y1="19.08" x2="73.96" y2="19.08" xlink:href="#linear-gradient"/><linearGradient id="linear-gradient-148" x1="45.39" y1="19.13" x2="74.15" y2="19.13" xlink:href="#linear-gradient"/><linearGradient id="linear-gradient-149" x1="45.58" y1="19.18" x2="74.34" y2="19.18" xlink:href="#linear-gradient"/><linearGradient id="linear-gradient-150" x1="45.77" y1="19.22" x2="74.53" y2="19.22" xlink:href="#linear-gradient"/><linearGradient id="linear-gradient-151" x1="45.95" y1="19.27" x2="74.72" y2="19.27" xlink:href="#linear-gradient"/><linearGradient id="linear-gradient-152" x1="46.14" y1="19.32" x2="74.91" y2="19.32" xlink:href="#linear-gradient"/><linearGradient id="linear-gradient-153" x1="46.33" y1="19.37" x2="75.09" y2="19.37" xlink:href="#linear-gradient"/><linearGradient id="linear-gradient-154" x1="46.52" y1="19.43" x2="75.28" y2="19.43" xlink:href="#linear-gradient"/><linearGradient id="linear-gradient-155" x1="46.7" y1="19.48" x2="75.46" y2="19.48" xlink:href="#linear-gradient"/><linearGradient id="linear-gradient-156" x1="46.89" y1="19.54" x2="75.65" y2="19.54" xlink:href="#linear-gradient"/><linearGradient id="linear-gradient-157" x1="47.07" y1="19.59" x2="75.83" y2="19.59" xlink:href="#linear-gradient"/><linearGradient id="linear-gradient-158" x1="47.25" y1="19.65" x2="76.02" y2="19.65" xlink:href="#linear-gradient"/><linearGradient id="linear-gradient-159" x1="47.44" y1="19.71" x2="76.2" y2="19.71" xlink:href="#linear-gradient"/><linearGradient id="linear-gradient-160" x1="47.62" y1="19.77" x2="76.38" y2="19.77" xlink:href="#linear-gradient"/><linearGradient id="linear-gradient-161" x1="47.8" y1="19.83" x2="76.56" y2="19.83" xlink:href="#linear-gradient"/><linearGradient id="linear-gradient-162" x1="47.98" y1="19.89" x2="76.74" y2="19.89" xlink:href="#linear-gradient"/><linearGradient id="linear-gradient-163" x1="48.16" y1="19.95" x2="76.92" y2="19.95" xlink:href="#linear-gradient"/><linearGradient id="linear-gradient-164" x1="48.34" y1="20.02" x2="77.1" y2="20.02" xlink:href="#linear-gradient"/><linearGradient id="linear-gradient-165" x1="48.52" y1="20.08" x2="77.28" y2="20.08" xlink:href="#linear-gradient"/><linearGradient id="linear-gradient-166" x1="48.69" y1="20.15" x2="77.46" y2="20.15" xlink:href="#linear-gradient"/><linearGradient id="linear-gradient-167" x1="48.87" y1="20.21" x2="77.63" y2="20.21" xlink:href="#linear-gradient"/><linearGradient id="linear-gradient-168" x1="49.05" y1="20.28" x2="77.81" y2="20.28" xlink:href="#linear-gradient"/><linearGradient id="linear-gradient-169" x1="49.22" y1="20.35" x2="77.98" y2="20.35" xlink:href="#linear-gradient"/><linearGradient id="linear-gradient-170" x1="49.39" y1="20.42" x2="78.16" y2="20.42" xlink:href="#linear-gradient"/><linearGradient id="linear-gradient-171" x1="49.57" y1="20.49" x2="78.33" y2="20.49" xlink:href="#linear-gradient"/><linearGradient id="linear-gradient-172" x1="49.74" y1="20.56" x2="78.5" y2="20.56" xlink:href="#linear-gradient"/><linearGradient id="linear-gradient-173" x1="49.91" y1="20.64" x2="78.67" y2="20.64" xlink:href="#linear-gradient"/><linearGradient id="linear-gradient-174" x1="50.08" y1="20.71" x2="78.84" y2="20.71" xlink:href="#linear-gradient"/><linearGradient id="linear-gradient-175" x1="50.25" y1="20.79" x2="79.01" y2="20.79" xlink:href="#linear-gradient"/><linearGradient id="linear-gradient-176" x1="50.42" y1="20.86" x2="79.18" y2="20.86" xlink:href="#linear-gradient"/><linearGradient id="linear-gradient-177" x1="50.59" y1="20.94" x2="79.35" y2="20.94" xlink:href="#linear-gradient"/><linearGradient id="linear-gradient-178" x1="50.75" y1="21.02" x2="79.52" y2="21.02" xlink:href="#linear-gradient"/><linearGradient id="linear-gradient-179" x1="50.92" y1="21.1" x2="79.68" y2="21.1" xlink:href="#linear-gradient"/><linearGradient id="linear-gradient-180" x1="51.08" y1="21.18" x2="79.85" y2="21.18" xlink:href="#linear-gradient"/><linearGradient id="linear-gradient-181" x1="51.25" y1="21.26" x2="80.01" y2="21.26" xlink:href="#linear-gradient"/><linearGradient id="linear-gradient-182" x1="51.41" y1="21.34" x2="80.17" y2="21.34" xlink:href="#linear-gradient"/><linearGradient id="linear-gradient-183" x1="51.57" y1="21.43" x2="80.33" y2="21.43" xlink:href="#linear-gradient"/><linearGradient id="linear-gradient-184" x1="51.73" y1="21.51" x2="80.49" y2="21.51" xlink:href="#linear-gradient"/><linearGradient id="linear-gradient-185" x1="51.89" y1="21.6" x2="80.65" y2="21.6" xlink:href="#linear-gradient"/><linearGradient id="linear-gradient-186" x1="52.05" y1="21.68" x2="80.81" y2="21.68" xlink:href="#linear-gradient"/><linearGradient id="linear-gradient-187" x1="52.21" y1="21.77" x2="80.97" y2="21.77" xlink:href="#linear-gradient"/><linearGradient id="linear-gradient-188" x1="52.36" y1="21.86" x2="81.13" y2="21.86" xlink:href="#linear-gradient"/><linearGradient id="linear-gradient-189" x1="52.52" y1="21.95" x2="81.28" y2="21.95" xlink:href="#linear-gradient"/><linearGradient id="linear-gradient-190" x1="52.67" y1="22.04" x2="81.44" y2="22.04" xlink:href="#linear-gradient"/><linearGradient id="linear-gradient-191" x1="52.83" y1="22.13" x2="81.59" y2="22.13" xlink:href="#linear-gradient"/><linearGradient id="linear-gradient-192" x1="52.98" y1="22.22" x2="81.74" y2="22.22" xlink:href="#linear-gradient"/><linearGradient id="linear-gradient-193" x1="53.13" y1="22.31" x2="81.89" y2="22.31" xlink:href="#linear-gradient"/><linearGradient id="linear-gradient-194" x1="53.28" y1="22.41" x2="82.04" y2="22.41" xlink:href="#linear-gradient"/><linearGradient id="linear-gradient-195" x1="53.43" y1="22.5" x2="82.19" y2="22.5" xlink:href="#linear-gradient"/><linearGradient id="linear-gradient-196" x1="53.57" y1="22.6" x2="82.34" y2="22.6" xlink:href="#linear-gradient"/><linearGradient id="linear-gradient-197" x1="53.72" y1="22.69" x2="82.48" y2="22.69" xlink:href="#linear-gradient"/><linearGradient id="linear-gradient-198" x1="53.87" y1="22.79" x2="82.63" y2="22.79" xlink:href="#linear-gradient"/><linearGradient id="linear-gradient-199" x1="54.01" y1="22.89" x2="82.77" y2="22.89" xlink:href="#linear-gradient"/><linearGradient id="linear-gradient-200" x1="54.15" y1="22.99" x2="82.92" y2="22.99" xlink:href="#linear-gradient"/><linearGradient id="linear-gradient-201" x1="54.29" y1="23.09" x2="83.06" y2="23.09" xlink:href="#linear-gradient"/><linearGradient id="linear-gradient-202" x1="54.43" y1="23.19" x2="83.2" y2="23.19" xlink:href="#linear-gradient"/><linearGradient id="linear-gradient-203" x1="54.57" y1="23.29" x2="83.34" y2="23.29" xlink:href="#linear-gradient"/></defs><title>c</title><circle class="cls-1" cx="70.84" cy="76.03" r="14.38"/><circle class="cls-2" cx="69.84" cy="76.9" r="14.38"/><circle class="cls-3" cx="68.8" cy="77.69" r="14.38"/><circle class="cls-4" cx="67.74" cy="78.38" r="14.38"/><circle class="cls-5" cx="66.66" cy="78.99" r="14.38"/><circle class="cls-6" cx="65.56" cy="79.52" r="14.38"/><circle class="cls-7" cx="64.44" cy="79.98" r="14.38"/><circle class="cls-8" cx="63.33" cy="80.36" r="14.38"/><circle class="cls-9" cx="62.21" cy="80.69" r="14.38"/><circle class="cls-10" cx="61.11" cy="80.95" r="14.38"/><circle class="cls-11" cx="60.01" cy="81.16" r="14.38"/><circle class="cls-12" cx="58.93" cy="81.31" r="14.38"/><circle class="cls-13" cx="57.88" cy="81.43" r="14.38"/><circle class="cls-14" cx="56.86" cy="81.49" r="14.38"/><circle class="cls-15" cx="55.88" cy="81.53" r="14.38"/><circle class="cls-16" cx="54.94" cy="81.53" r="14.38"/><circle class="cls-17" cx="54.04" cy="81.5" r="14.38"/><circle class="cls-18" cx="53.2" cy="81.45" r="14.38"/><circle class="cls-19" cx="52.43" cy="81.38" r="14.38"/><circle class="cls-20" cx="51.35" cy="81.25" r="14.38"/><circle class="cls-21" cx="50.01" cy="81.05" r="14.38"/><circle class="cls-22" cx="48.71" cy="80.79" r="14.38"/><circle class="cls-23" cx="47.44" cy="80.5" r="14.38"/><circle class="cls-24" cx="46.22" cy="80.16" r="14.38"/><circle class="cls-25" cx="45.03" cy="79.78" r="14.38"/><circle class="cls-26" cx="43.89" cy="79.36" r="14.38"/><circle class="cls-27" cx="42.78" cy="78.91" r="14.38"/><circle class="cls-28" cx="41.71" cy="78.41" r="14.38"/><circle class="cls-29" cx="40.67" cy="77.88" r="14.38"/><circle class="cls-30" cx="39.68" cy="77.31" r="14.38"/><circle class="cls-31" cx="38.72" cy="76.71" r="14.38"/><circle class="cls-32" cx="37.79" cy="76.07" r="14.38"/><circle class="cls-33" cx="36.91" cy="75.4" r="14.38"/><circle class="cls-34" cx="36.06" cy="74.7" r="14.38"/><circle class="cls-35" cx="35.25" cy="73.98" r="14.38"/><circle class="cls-36" cx="34.47" cy="73.22" r="14.38"/><circle class="cls-37" cx="33.73" cy="72.43" r="14.38"/><circle class="cls-38" cx="33.03" cy="71.62" r="14.38"/><circle class="cls-39" cx="32.36" cy="70.79" r="14.38"/><circle class="cls-40" cx="31.72" cy="69.93" r="14.38"/><circle class="cls-41" cx="31.12" cy="69.04" r="14.38"/><circle class="cls-42" cx="30.56" cy="68.14" r="14.38"/><circle class="cls-43" cx="30.03" cy="67.22" r="14.38"/><circle class="cls-44" cx="29.53" cy="66.27" r="14.38"/><circle class="cls-45" cx="29.07" cy="65.31" r="14.38"/><circle class="cls-46" cx="28.64" cy="64.33" r="14.38"/><circle class="cls-47" cx="28.25" cy="63.33" r="14.38"/><circle class="cls-48" cx="27.89" cy="62.32" r="14.38"/><circle class="cls-49" cx="27.56" cy="61.3" r="14.38"/><circle class="cls-50" cx="27.26" cy="60.26" r="14.38"/><circle class="cls-51" cx="27" cy="59.22" r="14.38"/><circle class="cls-52" cx="26.77" cy="58.16" r="14.38"/><circle class="cls-53" cx="26.57" cy="57.09" r="14.38"/><circle class="cls-54" cx="26.4" cy="56.02" r="14.38"/><circle class="cls-55" cx="26.27" cy="54.94" r="14.38"/><circle class="cls-56" cx="26.17" cy="53.85" r="14.38"/><circle class="cls-57" cx="26.09" cy="52.76" r="14.38"/><circle class="cls-58" cx="26.05" cy="51.67" r="14.38"/><circle class="cls-59" cx="26.04" cy="50.58" r="14.38"/><circle class="cls-60" cx="26.06" cy="49.48" r="14.38"/><circle class="cls-61" cx="26.11" cy="48.38" r="14.38"/><circle class="cls-62" cx="26.19" cy="47.29" r="14.38"/><circle class="cls-63" cx="26.3" cy="46.2" r="14.38"/><circle class="cls-64" cx="26.44" cy="45.11" r="14.38"/><circle class="cls-65" cx="26.61" cy="44.03" r="14.38"/><circle class="cls-66" cx="26.8" cy="42.95" r="14.38"/><circle class="cls-67" cx="27.03" cy="41.88" r="14.38"/><circle class="cls-68" cx="27.28" cy="40.82" r="14.38"/><circle class="cls-69" cx="27.57" cy="39.77" r="14.38"/><circle class="cls-70" cx="27.88" cy="38.73" r="14.38"/><circle class="cls-71" cx="28.22" cy="37.7" r="14.38"/><circle class="cls-72" cx="28.58" cy="36.69" r="14.38"/><circle class="cls-73" cx="28.98" cy="35.69" r="14.38"/><circle class="cls-74" cx="29.4" cy="34.7" r="14.38"/><circle class="cls-75" cx="29.85" cy="33.73" r="14.38"/><circle class="cls-76" cx="30.32" cy="32.78" r="14.38"/><circle class="cls-77" cx="30.82" cy="31.85" r="14.38"/><circle class="cls-78" cx="31.35" cy="30.94" r="14.38"/><circle class="cls-79" cx="31.9" cy="30.05" r="14.38"/><circle class="cls-80" cx="32.48" cy="29.18" r="14.38"/><circle class="cls-81" cx="33.09" cy="28.33" r="14.38"/><circle class="cls-82" cx="33.72" cy="27.51" r="14.38"/><circle class="cls-83" cx="34.37" cy="26.72" r="14.38"/><circle class="cls-84" cx="35.05" cy="25.95" r="14.38"/><circle class="cls-85" cx="35.76" cy="25.21" r="14.38"/><circle class="cls-86" cx="36.49" cy="24.5" r="14.38"/><circle class="cls-87" cx="37.24" cy="23.82" r="14.38"/><circle class="cls-88" cx="38.02" cy="23.17" r="14.38"/><circle class="cls-89" cx="38.82" cy="22.56" r="14.38"/><circle class="cls-90" cx="39.64" cy="21.98" r="14.38"/><circle class="cls-91" cx="40.49" cy="21.43" r="14.38"/><circle class="cls-92" cx="41.36" cy="20.92" r="14.38"/><circle class="cls-93" cx="42.25" cy="20.45" r="14.38"/><circle class="cls-94" cx="43.17" cy="20.02" r="14.38"/><circle class="cls-95" cx="44.1" cy="19.62" r="14.38"/><circle class="cls-96" cx="45.06" cy="19.27" r="14.38"/><circle class="cls-97" cx="46.05" cy="18.96" r="14.38"/><circle class="cls-98" cx="47.05" cy="18.69" r="14.38"/><circle class="cls-99" cx="48.07" cy="18.47" r="14.38"/><circle class="cls-100" cx="49.12" cy="18.29" r="14.38"/><circle class="cls-101" cx="50.18" cy="18.16" r="14.38"/><circle class="cls-102" cx="51.27" cy="18.08" r="14.38"/><circle class="cls-103" cx="51.48" cy="18.07" r="14.38"/><circle class="cls-104" cx="51.68" cy="18.06" r="14.38"/><circle class="cls-105" cx="51.89" cy="18.05" r="14.38"/><circle class="cls-106" cx="52.1" cy="18.04" r="14.38"/><circle class="cls-107" cx="52.3" cy="18.04" r="14.38"/><circle class="cls-108" cx="52.51" cy="18.03" r="14.38"/><circle class="cls-109" cx="52.72" cy="18.03" r="14.38"/><circle class="cls-110" cx="52.92" cy="18.03" r="14.38"/><circle class="cls-111" cx="53.13" cy="18.03" r="14.38"/><circle class="cls-112" cx="53.33" cy="18.03" r="14.38"/><circle class="cls-113" cx="53.54" cy="18.03" r="14.38"/><circle class="cls-114" cx="53.74" cy="18.04" r="14.38"/><circle class="cls-115" cx="53.95" cy="18.04" r="14.38"/><circle class="cls-116" cx="54.15" cy="18.05" r="14.38"/><circle class="cls-117" cx="54.36" cy="18.06" r="14.38"/><circle class="cls-118" cx="54.56" cy="18.07" r="14.38"/><circle class="cls-119" cx="54.76" cy="18.08" r="14.38"/><circle class="cls-120" cx="54.97" cy="18.09" r="14.38"/><circle class="cls-121" cx="55.17" cy="18.11" r="14.38"/><circle class="cls-122" cx="55.37" cy="18.12" r="14.38"/><circle class="cls-123" cx="55.58" cy="18.14" r="14.38"/><circle class="cls-124" cx="55.78" cy="18.15" r="14.38"/><circle class="cls-125" cx="55.98" cy="18.17" r="14.38"/><circle class="cls-126" cx="56.18" cy="18.19" r="14.38"/><circle class="cls-127" cx="56.38" cy="18.21" r="14.38"/><circle class="cls-128" cx="56.58" cy="18.23" r="14.38"/><circle class="cls-129" cx="56.78" cy="18.26" r="14.38"/><circle class="cls-130" cx="56.98" cy="18.28" r="14.38"/><circle class="cls-131" cx="57.18" cy="18.31" r="14.38"/><circle class="cls-132" cx="57.38" cy="18.33" r="14.38"/><circle class="cls-133" cx="57.58" cy="18.36" r="14.38"/><circle class="cls-134" cx="57.78" cy="18.39" r="14.38"/><circle class="cls-135" cx="57.97" cy="18.42" r="14.38"/><circle class="cls-136" cx="58.17" cy="18.45" r="14.38"/><circle class="cls-137" cx="58.37" cy="18.49" r="14.38"/><circle class="cls-138" cx="58.56" cy="18.52" r="14.38"/><circle class="cls-139" cx="58.76" cy="18.56" r="14.38"/><circle class="cls-140" cx="58.95" cy="18.59" r="14.38"/><circle class="cls-141" cx="59.15" cy="18.63" r="14.38"/><circle class="cls-142" cx="59.34" cy="18.67" r="14.38"/><circle class="cls-143" cx="59.53" cy="18.71" r="14.38"/><circle class="cls-144" cx="59.73" cy="18.75" r="14.38"/><circle class="cls-145" cx="59.92" cy="18.8" r="14.38"/><circle class="cls-146" cx="60.11" cy="18.84" r="14.38"/><circle class="cls-147" cx="60.3" cy="18.88" r="14.38"/><circle class="cls-148" cx="60.49" cy="18.93" r="14.38"/><circle class="cls-149" cx="60.68" cy="18.98" r="14.38"/><circle class="cls-150" cx="60.87" cy="19.03" r="14.38"/><circle class="cls-151" cx="61.06" cy="19.08" r="14.38"/><circle class="cls-152" cx="61.25" cy="19.13" r="14.38"/><circle class="cls-153" cx="61.43" cy="19.18" r="14.38"/><circle class="cls-154" cx="61.62" cy="19.23" r="14.38"/><circle class="cls-155" cx="61.8" cy="19.28" r="14.38"/><circle class="cls-156" cx="61.99" cy="19.34" r="14.38"/><circle class="cls-157" cx="62.17" cy="19.4" r="14.38"/><circle class="cls-158" cx="62.36" cy="19.45" r="14.38"/><circle class="cls-159" cx="62.54" cy="19.51" r="14.38"/><circle class="cls-160" cx="62.72" cy="19.57" r="14.38"/><circle class="cls-161" cx="62.9" cy="19.63" r="14.38"/><circle class="cls-162" cx="63.08" cy="19.69" r="14.38"/><circle class="cls-163" cx="63.26" cy="19.76" r="14.38"/><circle class="cls-164" cx="63.44" cy="19.82" r="14.38"/><circle class="cls-165" cx="63.62" cy="19.89" r="14.38"/><circle class="cls-166" cx="63.8" cy="19.95" r="14.38"/><circle class="cls-167" cx="63.97" cy="20.02" r="14.38"/><circle class="cls-168" cx="64.15" cy="20.09" r="14.38"/><circle class="cls-169" cx="64.32" cy="20.16" r="14.38"/><circle class="cls-170" cx="64.5" cy="20.23" r="14.38"/><circle class="cls-171" cx="64.67" cy="20.3" r="14.38"/><circle class="cls-172" cx="64.84" cy="20.37" r="14.38"/><circle class="cls-173" cx="65.01" cy="20.44" r="14.38"/><circle class="cls-174" cx="65.18" cy="20.52" r="14.38"/><circle class="cls-175" cx="65.35" cy="20.59" r="14.38"/><circle class="cls-176" cx="65.52" cy="20.67" r="14.38"/><circle class="cls-177" cx="65.69" cy="20.75" r="14.38"/><circle class="cls-178" cx="65.85" cy="20.82" r="14.38"/><circle class="cls-179" cx="66.02" cy="20.9" r="14.38"/><circle class="cls-180" cx="66.18" cy="20.98" r="14.38"/><circle class="cls-181" cx="66.35" cy="21.07" r="14.38"/><circle class="cls-182" cx="66.51" cy="21.15" r="14.38"/><circle class="cls-183" cx="66.67" cy="21.23" r="14.38"/><circle class="cls-184" cx="66.83" cy="21.32" r="14.38"/><circle class="cls-185" cx="66.99" cy="21.4" r="14.38"/><circle class="cls-186" cx="67.15" cy="21.49" r="14.38"/><circle class="cls-187" cx="67.31" cy="21.58" r="14.38"/><circle class="cls-188" cx="67.46" cy="21.66" r="14.38"/><circle class="cls-189" cx="67.62" cy="21.75" r="14.38"/><circle class="cls-190" cx="67.77" cy="21.84" r="14.38"/><circle class="cls-191" cx="67.93" cy="21.93" r="14.38"/><circle class="cls-192" cx="68.08" cy="22.03" r="14.38"/><circle class="cls-193" cx="68.23" cy="22.12" r="14.38"/><circle class="cls-194" cx="68.38" cy="22.21" r="14.38"/><circle class="cls-195" cx="68.53" cy="22.31" r="14.38"/><circle class="cls-196" cx="68.68" cy="22.4" r="14.38"/><circle class="cls-197" cx="68.82" cy="22.5" r="14.38"/><circle class="cls-198" cx="68.97" cy="22.6" r="14.38"/><circle class="cls-199" cx="69.11" cy="22.7" r="14.38"/><circle class="cls-200" cx="69.25" cy="22.8" r="14.38"/><circle class="cls-201" cx="69.39" cy="22.9" r="14.38"/><circle class="cls-202" cx="69.54" cy="23" r="14.38"/><circle class="cls-203" cx="69.67" cy="23.1" r="14.38"/></svg>