<svg id="Layer_1" data-name="Layer 1" xmlns="http://www.w3.org/2000/svg" xmlns:xlink="http://www.w3.org/1999/xlink" viewBox="0 0 101 99"><defs><style>.cls-1{fill:url(#linear-gradient);}.cls-2{fill:url(#linear-gradient-2);}.cls-3{fill:url(#linear-gradient-3);}.cls-4{fill:url(#linear-gradient-4);}.cls-5{fill:url(#linear-gradient-5);}.cls-6{fill:url(#linear-gradient-6);}.cls-7{fill:url(#linear-gradient-7);}.cls-8{fill:url(#linear-gradient-8);}.cls-9{fill:url(#linear-gradient-9);}.cls-10{fill:url(#linear-gradient-10);}.cls-11{fill:url(#linear-gradient-11);}.cls-12{fill:url(#linear-gradient-12);}.cls-13{fill:url(#linear-gradient-13);}.cls-14{fill:url(#linear-gradient-14);}.cls-15{fill:url(#linear-gradient-15);}.cls-16{fill:url(#linear-gradient-16);}.cls-17{fill:url(#linear-gradient-17);}.cls-18{fill:url(#linear-gradient-18);}.cls-19{fill:url(#linear-gradient-19);}.cls-20{fill:url(#linear-gradient-20);}.cls-21{fill:url(#linear-gradient-21);}.cls-22{fill:url(#linear-gradient-22);}.cls-23{fill:url(#linear-gradient-23);}.cls-24{fill:url(#linear-gradient-24);}.cls-25{fill:url(#linear-gradient-25);}.cls-26{fill:url(#linear-gradient-26);}.cls-27{fill:url(#linear-gradient-27);}.cls-28{fill:url(#linear-gradient-28);}.cls-29{fill:url(#linear-gradient-29);}.cls-30{fill:url(#linear-gradient-30);}.cls-31{fill:url(#linear-gradient-31);}.cls-32{fill:url(#linear-gradient-32);}.cls-33{fill:url(#linear-gradient-33);}.cls-34{fill:url(#linear-gradient-34);}.cls-35{fill:url(#linear-gradient-35);}.cls-36{fill:url(#linear-gradient-36);}.cls-37{fill:url(#linear-gradient-37);}.cls-38{fill:url(#linear-gradient-38);}.cls-39{fill:url(#linear-gradient-39);}.cls-40{fill:url(#linear-gradient-40);}.cls-41{fill:url(#linear-gradient-41);}.cls-42{fill:url(#linear-gradient-42);}.cls-43{fill:url(#linear-gradient-43);}.cls-44{fill:url(#linear-gradient-44);}.cls-45{fill:url(#linear-gradient-45);}.cls-46{fill:url(#linear-gradient-46);}.cls-47{fill:url(#linear-gradient-47);}.cls-48{fill:url(#linear-gradient-48);}.cls-49{fill:url(#linear-gradient-49);}.cls-50{fill:url(#linear-gradient-50);}.cls-51{fill:url(#linear-gradient-51);}.cls-52{fill:url(#linear-gradient-52);}.cls-53{fill:url(#linear-gradient-53);}.cls-54{fill:url(#linear-gradient-54);}.cls-55{fill:url(#linear-gradient-55);}.cls-56{fill:url(#linear-gradient-56);}.cls-57{fill:url(#linear-gradient-57);}.cls-58{fill:url(#linear-gradient-58);}.cls-59{fill:url(#linear-gradient-59);}.cls-60{fill:url(#linear-gradient-60);}.cls-61{fill:url(#linear-gradient-61);}.cls-62{fill:url(#linear-gradient-62);}.cls-63{fill:url(#linear-gradient-63);}.cls-64{fill:url(#linear-gradient-64);}.cls-65{fill:url(#linear-gradient-65);}.cls-66{fill:url(#linear-gradient-66);}.cls-67{fill:url(#linear-gradient-67);}.cls-68{fill:url(#linear-gradient-68);}.cls-69{fill:url(#linear-gradient-69);}.cls-70{fill:url(#linear-gradient-70);}.cls-71{fill:url(#linear-gradient-71);}.cls-72{fill:url(#linear-gradient-72);}.cls-73{fill:url(#linear-gradient-73);}.cls-74{fill:url(#linear-gradient-74);}.cls-75{fill:url(#linear-gradient-75);}.cls-76{fill:url(#linear-gradient-76);}.cls-77{fill:url(#linear-gradient-77);}.cls-78{fill:url(#linear-gradient-78);}.cls-79{fill:url(#linear-gradient-79);}.cls-80{fill:url(#linear-gradient-80);}.cls-81{fill:url(#linear-gradient-81);}.cls-82{fill:url(#linear-gradient-82);}.cls-83{fill:url(#linear-gradient-83);}.cls-84{fill:url(#linear-gradient-84);}.cls-85{fill:url(#linear-gradient-85);}.cls-86{fill:url(#linear-gradient-86);}.cls-87{fill:url(#linear-gradient-87);}.cls-88{fill:url(#linear-gradient-88);}.cls-89{fill:url(#linear-gradient-89);}.cls-90{fill:url(#linear-gradient-90);}.cls-91{fill:url(#linear-gradient-91);}.cls-92{fill:url(#linear-gradient-92);}.cls-93{fill:url(#linear-gradient-93);}.cls-94{fill:url(#linear-gradient-94);}.cls-95{fill:url(#linear-gradient-95);}.cls-96{fill:url(#linear-gradient-96);}.cls-97{fill:url(#linear-gradient-97);}.cls-98{fill:url(#linear-gradient-98);}.cls-99{fill:url(#linear-gradient-99);}.cls-100{fill:url(#linear-gradient-100);}.cls-101{fill:url(#linear-gradient-101);}.cls-102{fill:url(#linear-gradient-102);}.cls-103{fill:url(#linear-gradient-103);}.cls-104{fill:url(#linear-gradient-104);}.cls-105{fill:url(#linear-gradient-105);}.cls-106{fill:url(#linear-gradient-106);}.cls-107{fill:url(#linear-gradient-107);}.cls-108{fill:url(#linear-gradient-108);}.cls-109{fill:url(#linear-gradient-109);}.cls-110{fill:url(#linear-gradient-110);}.cls-111{fill:url(#linear-gradient-111);}.cls-112{fill:url(#linear-gradient-112);}.cls-113{fill:url(#linear-gradient-113);}.cls-114{fill:url(#linear-gradient-114);}.cls-115{fill:url(#linear-gradient-115);}.cls-116{fill:url(#linear-gradient-116);}.cls-117{fill:url(#linear-gradient-117);}.cls-118{fill:url(#linear-gradient-118);}.cls-119{fill:url(#linear-gradient-119);}.cls-120{fill:url(#linear-gradient-120);}.cls-121{fill:url(#linear-gradient-121);}.cls-122{fill:url(#linear-gradient-122);}.cls-123{fill:url(#linear-gradient-123);}.cls-124{fill:url(#linear-gradient-124);}.cls-125{fill:url(#linear-gradient-125);}.cls-126{fill:url(#linear-gradient-126);}.cls-127{fill:url(#linear-gradient-127);}.cls-128{fill:url(#linear-gradient-128);}.cls-129{fill:url(#linear-gradient-129);}.cls-130{fill:url(#linear-gradient-130);}.cls-131{fill:url(#linear-gradient-131);}.cls-132{fill:url(#linear-gradient-132);}.cls-133{fill:url(#linear-gradient-133);}.cls-134{fill:url(#linear-gradient-134);}.cls-135{fill:url(#linear-gradient-135);}.cls-136{fill:url(#linear-gradient-136);}.cls-137{fill:url(#linear-gradient-137);}.cls-138{fill:url(#linear-gradient-138);}.cls-139{fill:url(#linear-gradient-139);}.cls-140{fill:url(#linear-gradient-140);}.cls-141{fill:url(#linear-gradient-141);}.cls-142{fill:url(#linear-gradient-142);}.cls-143{fill:url(#linear-gradient-143);}.cls-144{fill:url(#linear-gradient-144);}.cls-145{fill:url(#linear-gradient-145);}.cls-146{fill:url(#linear-gradient-146);}.cls-147{fill:url(#linear-gradient-147);}.cls-148{fill:url(#linear-gradient-148);}.cls-149{fill:url(#linear-gradient-149);}.cls-150{fill:url(#linear-gradient-150);}.cls-151{fill:url(#linear-gradient-151);}.cls-152{fill:url(#linear-gradient-152);}.cls-153{fill:url(#linear-gradient-153);}.cls-154{fill:url(#linear-gradient-154);}.cls-155{fill:url(#linear-gradient-155);}.cls-156{fill:url(#linear-gradient-156);}.cls-157{fill:url(#linear-gradient-157);}.cls-158{fill:url(#linear-gradient-158);}.cls-159{fill:url(#linear-gradient-159);}.cls-160{fill:url(#linear-gradient-160);}.cls-161{fill:url(#linear-gradient-161);}.cls-162{fill:url(#linear-gradient-162);}.cls-163{fill:url(#linear-gradient-163);}.cls-164{fill:url(#linear-gradient-164);}.cls-165{fill:url(#linear-gradient-165);}.cls-166{fill:url(#linear-gradient-166);}.cls-167{fill:url(#linear-gradient-167);}.cls-168{fill:url(#linear-gradient-168);}.cls-169{fill:url(#linear-gradient-169);}.cls-170{fill:url(#linear-gradient-170);}.cls-171{fill:url(#linear-gradient-171);}.cls-172{fill:url(#linear-gradient-172);}.cls-173{fill:url(#linear-gradient-173);}.cls-174{fill:url(#linear-gradient-174);}.cls-175{fill:url(#linear-gradient-175);}.cls-176{fill:url(#linear-gradient-176);}.cls-177{fill:url(#linear-gradient-177);}.cls-178{fill:url(#linear-gradient-178);}.cls-179{fill:url(#linear-gradient-179);}.cls-180{fill:url(#linear-gradient-180);}.cls-181{fill:url(#linear-gradient-181);}.cls-182{fill:url(#linear-gradient-182);}.cls-183{fill:url(#linear-gradient-183);}.cls-184{fill:url(#linear-gradient-184);}.cls-185{fill:url(#linear-gradient-185);}.cls-186{fill:url(#linear-gradient-186);}.cls-187{fill:url(#linear-gradient-187);}.cls-188{fill:url(#linear-gradient-188);}.cls-189{fill:url(#linear-gradient-189);}.cls-190{fill:url(#linear-gradient-190);}.cls-191{fill:url(#linear-gradient-191);}.cls-192{fill:url(#linear-gradient-192);}.cls-193{fill:url(#linear-gradient-193);}.cls-194{fill:url(#linear-gradient-194);}.cls-195{fill:url(#linear-gradient-195);}.cls-196{fill:url(#linear-gradient-196);}.cls-197{fill:url(#linear-gradient-197);}.cls-198{fill:url(#linear-gradient-198);}.cls-199{fill:url(#linear-gradient-199);}.cls-200{fill:url(#linear-gradient-200);}.cls-201{fill:url(#linear-gradient-201);}.cls-202{fill:url(#linear-gradient-202);}.cls-203{fill:url(#linear-gradient-203);}</style><linearGradient id="linear-gradient" x1="17.25" y1="80.56" x2="45.12" y2="80.56" gradientUnits="userSpaceOnUse"><stop offset="0.12" stop-color="#fd80d7"/><stop offset="0.98" stop-color="#ff5c55"/></linearGradient><linearGradient id="linear-gradient-2" x1="17.25" y1="79.3" x2="45.12" y2="79.3" xlink:href="#linear-gradient"/><linearGradient id="linear-gradient-3" x1="17.24" y1="78.07" x2="45.12" y2="78.07" xlink:href="#linear-gradient"/><linearGradient id="linear-gradient-4" x1="17.24" y1="76.88" x2="45.12" y2="76.88" xlink:href="#linear-gradient"/><linearGradient id="linear-gradient-5" x1="17.23" y1="75.71" x2="45.11" y2="75.71" xlink:href="#linear-gradient"/><linearGradient id="linear-gradient-6" x1="17.22" y1="74.56" x2="45.1" y2="74.56" xlink:href="#linear-gradient"/><linearGradient id="linear-gradient-7" x1="17.22" y1="73.44" x2="45.09" y2="73.44" xlink:href="#linear-gradient"/><linearGradient id="linear-gradient-8" x1="17.2" y1="72.35" x2="45.08" y2="72.35" xlink:href="#linear-gradient"/><linearGradient id="linear-gradient-9" x1="17.19" y1="71.27" x2="45.07" y2="71.27" xlink:href="#linear-gradient"/><linearGradient id="linear-gradient-10" x1="17.18" y1="70.21" x2="45.06" y2="70.21" xlink:href="#linear-gradient"/><linearGradient id="linear-gradient-11" x1="17.16" y1="69.17" x2="45.04" y2="69.17" xlink:href="#linear-gradient"/><linearGradient id="linear-gradient-12" x1="17.15" y1="68.14" x2="45.02" y2="68.14" xlink:href="#linear-gradient"/><linearGradient id="linear-gradient-13" x1="17.13" y1="67.13" x2="45.01" y2="67.13" xlink:href="#linear-gradient"/><linearGradient id="linear-gradient-14" x1="17.11" y1="66.13" x2="44.99" y2="66.13" xlink:href="#linear-gradient"/><linearGradient id="linear-gradient-15" x1="17.09" y1="65.14" x2="44.97" y2="65.14" xlink:href="#linear-gradient"/><linearGradient id="linear-gradient-16" x1="17.07" y1="64.16" x2="44.95" y2="64.16" xlink:href="#linear-gradient"/><linearGradient id="linear-gradient-17" x1="17.05" y1="63.18" x2="44.93" y2="63.18" xlink:href="#linear-gradient"/><linearGradient id="linear-gradient-18" x1="17.03" y1="62.21" x2="44.91" y2="62.21" xlink:href="#linear-gradient"/><linearGradient id="linear-gradient-19" x1="17.01" y1="61.25" x2="44.88" y2="61.25" xlink:href="#linear-gradient"/><linearGradient id="linear-gradient-20" x1="16.98" y1="60.28" x2="44.86" y2="60.28" xlink:href="#linear-gradient"/><linearGradient id="linear-gradient-21" x1="16.96" y1="59.31" x2="44.84" y2="59.31" xlink:href="#linear-gradient"/><linearGradient id="linear-gradient-22" x1="16.93" y1="58.34" x2="44.81" y2="58.34" xlink:href="#linear-gradient"/><linearGradient id="linear-gradient-23" x1="16.91" y1="57.37" x2="44.79" y2="57.37" xlink:href="#linear-gradient"/><linearGradient id="linear-gradient-24" x1="16.88" y1="56.39" x2="44.76" y2="56.39" xlink:href="#linear-gradient"/><linearGradient id="linear-gradient-25" x1="16.86" y1="55.4" x2="44.74" y2="55.4" xlink:href="#linear-gradient"/><linearGradient id="linear-gradient-26" x1="16.83" y1="54.4" x2="44.71" y2="54.4" xlink:href="#linear-gradient"/><linearGradient id="linear-gradient-27" x1="16.81" y1="53.4" x2="44.69" y2="53.4" xlink:href="#linear-gradient"/><linearGradient id="linear-gradient-28" x1="16.78" y1="52.38" x2="44.66" y2="52.38" xlink:href="#linear-gradient"/><linearGradient id="linear-gradient-29" x1="16.76" y1="51.34" x2="44.63" y2="51.34" xlink:href="#linear-gradient"/><linearGradient id="linear-gradient-30" x1="16.73" y1="50.29" x2="44.61" y2="50.29" xlink:href="#linear-gradient"/><linearGradient id="linear-gradient-31" x1="16.7" y1="49.22" x2="44.58" y2="49.22" xlink:href="#linear-gradient"/><linearGradient id="linear-gradient-32" x1="16.68" y1="48.13" x2="44.56" y2="48.13" xlink:href="#linear-gradient"/><linearGradient id="linear-gradient-33" x1="16.65" y1="47.02" x2="44.53" y2="47.02" xlink:href="#linear-gradient"/><linearGradient id="linear-gradient-34" x1="16.63" y1="45.88" x2="44.51" y2="45.88" xlink:href="#linear-gradient"/><linearGradient id="linear-gradient-35" x1="16.6" y1="44.72" x2="44.48" y2="44.72" xlink:href="#linear-gradient"/><linearGradient id="linear-gradient-36" x1="16.58" y1="43.54" x2="44.46" y2="43.54" xlink:href="#linear-gradient"/><linearGradient id="linear-gradient-37" x1="16.56" y1="42.32" x2="44.43" y2="42.32" xlink:href="#linear-gradient"/><linearGradient id="linear-gradient-38" x1="16.53" y1="41.08" x2="44.41" y2="41.08" xlink:href="#linear-gradient"/><linearGradient id="linear-gradient-39" x1="16.51" y1="39.8" x2="44.39" y2="39.8" xlink:href="#linear-gradient"/><linearGradient id="linear-gradient-40" x1="16.49" y1="38.48" x2="44.37" y2="38.48" xlink:href="#linear-gradient"/><linearGradient id="linear-gradient-41" x1="16.47" y1="37.14" x2="44.35" y2="37.14" xlink:href="#linear-gradient"/><linearGradient id="linear-gradient-42" x1="16.45" y1="35.75" x2="44.33" y2="35.75" xlink:href="#linear-gradient"/><linearGradient id="linear-gradient-43" x1="16.43" y1="34.33" x2="44.31" y2="34.33" xlink:href="#linear-gradient"/><linearGradient id="linear-gradient-44" x1="16.41" y1="32.86" x2="44.29" y2="32.86" xlink:href="#linear-gradient"/><linearGradient id="linear-gradient-45" x1="16.39" y1="31.35" x2="44.27" y2="31.35" xlink:href="#linear-gradient"/><linearGradient id="linear-gradient-46" x1="16.38" y1="29.8" x2="44.26" y2="29.8" xlink:href="#linear-gradient"/><linearGradient id="linear-gradient-47" x1="16.36" y1="28.2" x2="44.24" y2="28.2" xlink:href="#linear-gradient"/><linearGradient id="linear-gradient-48" x1="16.35" y1="26.55" x2="44.23" y2="26.55" xlink:href="#linear-gradient"/><linearGradient id="linear-gradient-49" x1="16.34" y1="24.85" x2="44.22" y2="24.85" xlink:href="#linear-gradient"/><linearGradient id="linear-gradient-50" x1="16.33" y1="23.1" x2="44.21" y2="23.1" xlink:href="#linear-gradient"/><linearGradient id="linear-gradient-51" x1="16.32" y1="21.3" x2="44.2" y2="21.3" xlink:href="#linear-gradient"/><linearGradient id="linear-gradient-52" x1="16.35" y1="19.63" x2="44.22" y2="19.63" xlink:href="#linear-gradient"/><linearGradient id="linear-gradient-53" x1="16.88" y1="18.6" x2="44.76" y2="18.6" xlink:href="#linear-gradient"/><linearGradient id="linear-gradient-54" x1="17.9" y1="18.04" x2="45.78" y2="18.04" xlink:href="#linear-gradient"/><linearGradient id="linear-gradient-55" x1="19.16" y1="18.03" x2="47.04" y2="18.03" xlink:href="#linear-gradient"/><linearGradient id="linear-gradient-56" x1="20.44" y1="18.07" x2="48.31" y2="18.07" xlink:href="#linear-gradient"/><linearGradient id="linear-gradient-57" x1="21.71" y1="18.12" x2="49.58" y2="18.12" xlink:href="#linear-gradient"/><linearGradient id="linear-gradient-58" x1="22.97" y1="18.17" x2="50.85" y2="18.17" xlink:href="#linear-gradient"/><linearGradient id="linear-gradient-59" x1="24.22" y1="18.23" x2="52.1" y2="18.23" xlink:href="#linear-gradient"/><linearGradient id="linear-gradient-60" x1="25.47" y1="18.29" x2="53.35" y2="18.29" xlink:href="#linear-gradient"/><linearGradient id="linear-gradient-61" x1="26.7" y1="18.36" x2="54.58" y2="18.36" xlink:href="#linear-gradient"/><linearGradient id="linear-gradient-62" x1="27.93" y1="18.43" x2="55.81" y2="18.43" xlink:href="#linear-gradient"/><linearGradient id="linear-gradient-63" x1="29.14" y1="18.52" x2="57.02" y2="18.52" xlink:href="#linear-gradient"/><linearGradient id="linear-gradient-64" x1="30.34" y1="18.63" x2="58.22" y2="18.63" xlink:href="#linear-gradient"/><linearGradient id="linear-gradient-65" x1="31.53" y1="18.74" x2="59.41" y2="18.74" xlink:href="#linear-gradient"/><linearGradient id="linear-gradient-66" x1="32.7" y1="18.87" x2="60.58" y2="18.87" xlink:href="#linear-gradient"/><linearGradient id="linear-gradient-67" x1="33.86" y1="19.02" x2="61.74" y2="19.02" xlink:href="#linear-gradient"/><linearGradient id="linear-gradient-68" x1="35.01" y1="19.19" x2="62.89" y2="19.19" xlink:href="#linear-gradient"/><linearGradient id="linear-gradient-69" x1="36.13" y1="19.37" x2="64.01" y2="19.37" xlink:href="#linear-gradient"/><linearGradient id="linear-gradient-70" x1="37.24" y1="19.58" x2="65.12" y2="19.58" xlink:href="#linear-gradient"/><linearGradient id="linear-gradient-71" x1="38.34" y1="19.81" x2="66.21" y2="19.81" xlink:href="#linear-gradient"/><linearGradient id="linear-gradient-72" x1="39.41" y1="20.07" x2="67.29" y2="20.07" xlink:href="#linear-gradient"/><linearGradient id="linear-gradient-73" x1="40.46" y1="20.35" x2="68.34" y2="20.35" xlink:href="#linear-gradient"/><linearGradient id="linear-gradient-74" x1="41.5" y1="20.66" x2="69.37" y2="20.66" xlink:href="#linear-gradient"/><linearGradient id="linear-gradient-75" x1="42.51" y1="21" x2="70.38" y2="21" xlink:href="#linear-gradient"/><linearGradient id="linear-gradient-76" x1="43.5" y1="21.36" x2="71.37" y2="21.36" xlink:href="#linear-gradient"/><linearGradient id="linear-gradient-77" x1="44.46" y1="21.76" x2="72.34" y2="21.76" xlink:href="#linear-gradient"/><linearGradient id="linear-gradient-78" x1="45.4" y1="22.2" x2="73.28" y2="22.2" xlink:href="#linear-gradient"/><linearGradient id="linear-gradient-79" x1="46.32" y1="22.67" x2="74.2" y2="22.67" xlink:href="#linear-gradient"/><linearGradient id="linear-gradient-80" x1="47.21" y1="23.17" x2="75.09" y2="23.17" xlink:href="#linear-gradient"/><linearGradient id="linear-gradient-81" x1="48.08" y1="23.72" x2="75.96" y2="23.72" xlink:href="#linear-gradient"/><linearGradient id="linear-gradient-82" x1="48.92" y1="24.3" x2="76.79" y2="24.3" xlink:href="#linear-gradient"/><linearGradient id="linear-gradient-83" x1="49.73" y1="24.93" x2="77.6" y2="24.93" xlink:href="#linear-gradient"/><linearGradient id="linear-gradient-84" x1="50.51" y1="25.6" x2="78.39" y2="25.6" xlink:href="#linear-gradient"/><linearGradient id="linear-gradient-85" x1="51.26" y1="26.31" x2="79.14" y2="26.31" xlink:href="#linear-gradient"/><linearGradient id="linear-gradient-86" x1="51.98" y1="27.07" x2="79.86" y2="27.07" xlink:href="#linear-gradient"/><linearGradient id="linear-gradient-87" x1="52.67" y1="27.87" x2="80.55" y2="27.87" xlink:href="#linear-gradient"/><linearGradient id="linear-gradient-88" x1="53.33" y1="28.72" x2="81.21" y2="28.72" xlink:href="#linear-gradient"/><linearGradient id="linear-gradient-89" x1="53.95" y1="29.63" x2="81.83" y2="29.63" xlink:href="#linear-gradient"/><linearGradient id="linear-gradient-90" x1="54.54" y1="30.59" x2="82.42" y2="30.59" xlink:href="#linear-gradient"/><linearGradient id="linear-gradient-91" x1="55.1" y1="31.59" x2="82.98" y2="31.59" xlink:href="#linear-gradient"/><linearGradient id="linear-gradient-92" x1="55.62" y1="32.66" x2="83.5" y2="32.66" xlink:href="#linear-gradient"/><linearGradient id="linear-gradient-93" x1="56.1" y1="33.78" x2="83.98" y2="33.78" xlink:href="#linear-gradient"/><linearGradient id="linear-gradient-94" x1="56.55" y1="34.96" x2="84.43" y2="34.96" xlink:href="#linear-gradient"/><linearGradient id="linear-gradient-95" x1="56.96" y1="36.2" x2="84.83" y2="36.2" xlink:href="#linear-gradient"/><linearGradient id="linear-gradient-96" x1="57.33" y1="37.5" x2="85.2" y2="37.5" xlink:href="#linear-gradient"/><linearGradient id="linear-gradient-97" x1="57.66" y1="38.86" x2="85.53" y2="38.86" xlink:href="#linear-gradient"/><linearGradient id="linear-gradient-98" x1="57.95" y1="40.28" x2="85.82" y2="40.28" xlink:href="#linear-gradient"/><linearGradient id="linear-gradient-99" x1="58.19" y1="41.77" x2="86.07" y2="41.77" xlink:href="#linear-gradient"/><linearGradient id="linear-gradient-100" x1="58.4" y1="43.33" x2="86.28" y2="43.33" xlink:href="#linear-gradient"/><linearGradient id="linear-gradient-101" x1="58.56" y1="44.96" x2="86.44" y2="44.96" xlink:href="#linear-gradient"/><linearGradient id="linear-gradient-102" x1="58.68" y1="46.65" x2="86.56" y2="46.65" xlink:href="#linear-gradient"/><linearGradient id="linear-gradient-103" x1="58.32" y1="47.47" x2="86.71" y2="47.83" xlink:href="#linear-gradient"/><linearGradient id="linear-gradient-104" x1="57.94" y1="48.26" x2="86.85" y2="48.98" xlink:href="#linear-gradient"/><linearGradient id="linear-gradient-105" x1="57.55" y1="49.01" x2="86.97" y2="50.12" xlink:href="#linear-gradient"/><linearGradient id="linear-gradient-106" x1="57.15" y1="49.74" x2="87.07" y2="51.24" xlink:href="#linear-gradient"/><linearGradient id="linear-gradient-107" x1="56.74" y1="50.44" x2="87.16" y2="52.34" xlink:href="#linear-gradient"/><linearGradient id="linear-gradient-108" x1="56.32" y1="51.11" x2="87.23" y2="53.43" xlink:href="#linear-gradient"/><linearGradient id="linear-gradient-109" x1="55.88" y1="51.75" x2="87.28" y2="54.5" xlink:href="#linear-gradient"/><linearGradient id="linear-gradient-110" x1="55.44" y1="52.36" x2="87.32" y2="55.56" xlink:href="#linear-gradient"/><linearGradient id="linear-gradient-111" x1="54.99" y1="52.94" x2="87.34" y2="56.6" xlink:href="#linear-gradient"/><linearGradient id="linear-gradient-112" x1="54.53" y1="53.5" x2="87.35" y2="57.62" xlink:href="#linear-gradient"/><linearGradient id="linear-gradient-113" x1="54.06" y1="54.02" x2="87.34" y2="58.63" xlink:href="#linear-gradient"/><linearGradient id="linear-gradient-114" x1="53.58" y1="54.52" x2="87.32" y2="59.62" xlink:href="#linear-gradient"/><linearGradient id="linear-gradient-115" x1="53.09" y1="55" x2="87.28" y2="60.6" xlink:href="#linear-gradient"/><linearGradient id="linear-gradient-116" x1="52.59" y1="55.44" x2="87.22" y2="61.57" xlink:href="#linear-gradient"/><linearGradient id="linear-gradient-117" x1="52.09" y1="55.86" x2="87.15" y2="62.51" xlink:href="#linear-gradient"/><linearGradient id="linear-gradient-118" x1="51.58" y1="56.25" x2="87.07" y2="63.45" xlink:href="#linear-gradient"/><linearGradient id="linear-gradient-119" x1="51.06" y1="56.62" x2="86.96" y2="64.37" xlink:href="#linear-gradient"/><linearGradient id="linear-gradient-120" x1="50.54" y1="56.96" x2="86.85" y2="65.27" xlink:href="#linear-gradient"/><linearGradient id="linear-gradient-121" x1="50.01" y1="57.27" x2="86.72" y2="66.16" xlink:href="#linear-gradient"/><linearGradient id="linear-gradient-122" x1="49.47" y1="57.56" x2="86.57" y2="67.04" xlink:href="#linear-gradient"/><linearGradient id="linear-gradient-123" x1="48.93" y1="57.83" x2="86.41" y2="67.9" xlink:href="#linear-gradient"/><linearGradient id="linear-gradient-124" x1="48.38" y1="58.07" x2="86.24" y2="68.75" xlink:href="#linear-gradient"/><linearGradient id="linear-gradient-125" x1="47.83" y1="58.28" x2="86.05" y2="69.58" xlink:href="#linear-gradient"/><linearGradient id="linear-gradient-126" x1="47.28" y1="58.47" x2="85.85" y2="70.41" xlink:href="#linear-gradient"/><linearGradient id="linear-gradient-127" x1="46.72" y1="58.64" x2="85.63" y2="71.21" xlink:href="#linear-gradient"/><linearGradient id="linear-gradient-128" x1="46.15" y1="58.78" x2="85.4" y2="72.01" xlink:href="#linear-gradient"/><linearGradient id="linear-gradient-129" x1="45.59" y1="58.9" x2="85.15" y2="72.79" xlink:href="#linear-gradient"/><linearGradient id="linear-gradient-130" x1="45.02" y1="59" x2="84.9" y2="73.56" xlink:href="#linear-gradient"/><linearGradient id="linear-gradient-131" x1="44.44" y1="59.07" x2="84.62" y2="74.32" xlink:href="#linear-gradient"/><linearGradient id="linear-gradient-132" x1="43.87" y1="59.12" x2="84.34" y2="75.06" xlink:href="#linear-gradient"/><linearGradient id="linear-gradient-133" x1="43.29" y1="59.15" x2="84.04" y2="75.79" xlink:href="#linear-gradient"/><linearGradient id="linear-gradient-134" x1="42.71" y1="59.16" x2="83.73" y2="76.51" xlink:href="#linear-gradient"/><linearGradient id="linear-gradient-135" x1="42.13" y1="59.15" x2="83.4" y2="77.22" xlink:href="#linear-gradient"/><linearGradient id="linear-gradient-136" x1="41.55" y1="59.11" x2="83.07" y2="77.91" xlink:href="#linear-gradient"/><linearGradient id="linear-gradient-137" x1="40.96" y1="59.06" x2="82.72" y2="78.59" xlink:href="#linear-gradient"/><linearGradient id="linear-gradient-138" x1="40.38" y1="58.98" x2="82.35" y2="79.26" xlink:href="#linear-gradient"/><linearGradient id="linear-gradient-139" x1="39.8" y1="58.88" x2="81.98" y2="79.92" xlink:href="#linear-gradient"/><linearGradient id="linear-gradient-140" x1="39.21" y1="58.77" x2="81.59" y2="80.57" xlink:href="#linear-gradient"/><linearGradient id="linear-gradient-141" x1="38.63" y1="58.63" x2="81.19" y2="81.21" xlink:href="#linear-gradient"/><linearGradient id="linear-gradient-142" x1="38.04" y1="58.48" x2="80.78" y2="81.83" xlink:href="#linear-gradient"/><linearGradient id="linear-gradient-143" x1="37.46" y1="58.3" x2="80.35" y2="82.45" xlink:href="#linear-gradient"/><linearGradient id="linear-gradient-144" x1="36.88" y1="58.11" x2="79.92" y2="83.05" xlink:href="#linear-gradient"/><linearGradient id="linear-gradient-145" x1="36.3" y1="57.9" x2="79.47" y2="83.64" xlink:href="#linear-gradient"/><linearGradient id="linear-gradient-146" x1="35.73" y1="57.67" x2="79.01" y2="84.22" xlink:href="#linear-gradient"/><linearGradient id="linear-gradient-147" x1="35.15" y1="57.43" x2="78.54" y2="84.8" xlink:href="#linear-gradient"/><linearGradient id="linear-gradient-148" x1="34.58" y1="57.17" x2="78.06" y2="85.36" xlink:href="#linear-gradient"/><linearGradient id="linear-gradient-149" x1="34.01" y1="56.89" x2="77.56" y2="85.91" xlink:href="#linear-gradient"/><linearGradient id="linear-gradient-150" x1="33.44" y1="56.59" x2="77.06" y2="86.45" xlink:href="#linear-gradient"/><linearGradient id="linear-gradient-151" x1="32.88" y1="56.28" x2="76.54" y2="86.98" xlink:href="#linear-gradient"/><linearGradient id="linear-gradient-152" x1="32.32" y1="55.96" x2="76.02" y2="87.5" xlink:href="#linear-gradient"/><linearGradient id="linear-gradient-153" x1="31.76" y1="55.61" x2="75.48" y2="88.01" xlink:href="#linear-gradient"/><linearGradient id="linear-gradient-154" x1="31.21" y1="55.26" x2="74.94" y2="88.51" xlink:href="#linear-gradient"/><linearGradient id="linear-gradient-155" x1="30.67" y1="54.88" x2="74.38" y2="89" xlink:href="#linear-gradient"/><linearGradient id="linear-gradient-156" x1="30.12" y1="54.5" x2="73.81" y2="89.49" xlink:href="#linear-gradient"/><linearGradient id="linear-gradient-157" x1="29.59" y1="54.1" x2="73.24" y2="89.96" xlink:href="#linear-gradient"/><linearGradient id="linear-gradient-158" x1="29.05" y1="53.69" x2="72.65" y2="90.43" xlink:href="#linear-gradient"/><linearGradient id="linear-gradient-159" x1="28.53" y1="53.26" x2="72.05" y2="90.88" xlink:href="#linear-gradient"/><linearGradient id="linear-gradient-160" x1="28.01" y1="52.82" x2="71.45" y2="91.33" xlink:href="#linear-gradient"/><linearGradient id="linear-gradient-161" x1="27.49" y1="52.37" x2="70.83" y2="91.77" xlink:href="#linear-gradient"/><linearGradient id="linear-gradient-162" x1="26.98" y1="51.91" x2="70.21" y2="92.2" xlink:href="#linear-gradient"/><linearGradient id="linear-gradient-163" x1="26.48" y1="51.43" x2="69.58" y2="92.62" xlink:href="#linear-gradient"/><linearGradient id="linear-gradient-164" x1="25.98" y1="50.95" x2="68.93" y2="93.03" xlink:href="#linear-gradient"/><linearGradient id="linear-gradient-165" x1="25.5" y1="50.45" x2="68.28" y2="93.44" xlink:href="#linear-gradient"/><linearGradient id="linear-gradient-166" x1="25.02" y1="49.94" x2="67.62" y2="93.84" xlink:href="#linear-gradient"/><linearGradient id="linear-gradient-167" x1="24.54" y1="49.42" x2="66.95" y2="94.23" xlink:href="#linear-gradient"/><linearGradient id="linear-gradient-168" x1="24.08" y1="48.9" x2="66.28" y2="94.61" xlink:href="#linear-gradient"/><linearGradient id="linear-gradient-169" x1="23.62" y1="48.36" x2="65.59" y2="94.99" xlink:href="#linear-gradient"/><linearGradient id="linear-gradient-170" x1="23.17" y1="47.82" x2="64.9" y2="95.35" xlink:href="#linear-gradient"/><linearGradient id="linear-gradient-171" x1="22.73" y1="47.26" x2="64.2" y2="95.71" xlink:href="#linear-gradient"/><linearGradient id="linear-gradient-172" x1="22.3" y1="46.7" x2="63.49" y2="96.07" xlink:href="#linear-gradient"/><linearGradient id="linear-gradient-173" x1="21.87" y1="46.13" x2="62.78" y2="96.41" xlink:href="#linear-gradient"/><linearGradient id="linear-gradient-174" x1="21.46" y1="45.56" x2="62.06" y2="96.75" xlink:href="#linear-gradient"/><linearGradient id="linear-gradient-175" x1="21.05" y1="44.97" x2="61.33" y2="97.08" xlink:href="#linear-gradient"/><linearGradient id="linear-gradient-176" x1="20.66" y1="44.38" x2="60.59" y2="97.41" xlink:href="#linear-gradient"/><linearGradient id="linear-gradient-177" x1="20.27" y1="43.79" x2="59.85" y2="97.73" xlink:href="#linear-gradient"/><linearGradient id="linear-gradient-178" x1="19.9" y1="43.18" x2="59.1" y2="98.04" xlink:href="#linear-gradient"/><linearGradient id="linear-gradient-179" x1="19.53" y1="42.58" x2="58.34" y2="98.35" xlink:href="#linear-gradient"/><linearGradient id="linear-gradient-180" x1="19.18" y1="41.97" x2="57.58" y2="98.65" xlink:href="#linear-gradient"/><linearGradient id="linear-gradient-181" x1="18.83" y1="41.35" x2="56.81" y2="98.94" xlink:href="#linear-gradient"/><linearGradient id="linear-gradient-182" x1="18.5" y1="40.73" x2="56.03" y2="99.23" xlink:href="#linear-gradient"/><linearGradient id="linear-gradient-183" x1="18.18" y1="40.11" x2="55.25" y2="99.51" xlink:href="#linear-gradient"/><linearGradient id="linear-gradient-184" x1="17.87" y1="39.48" x2="54.47" y2="99.79" xlink:href="#linear-gradient"/><linearGradient id="linear-gradient-185" x1="17.57" y1="38.85" x2="53.68" y2="100.06" xlink:href="#linear-gradient"/><linearGradient id="linear-gradient-186" x1="17.28" y1="38.22" x2="52.88" y2="100.33" xlink:href="#linear-gradient"/><linearGradient id="linear-gradient-187" x1="17.01" y1="37.58" x2="52.08" y2="100.59" xlink:href="#linear-gradient"/><linearGradient id="linear-gradient-188" x1="16.74" y1="36.95" x2="51.27" y2="100.85" xlink:href="#linear-gradient"/><linearGradient id="linear-gradient-189" x1="16.49" y1="36.31" x2="50.46" y2="101.1" xlink:href="#linear-gradient"/><linearGradient id="linear-gradient-190" x1="16.25" y1="35.67" x2="49.64" y2="101.35" xlink:href="#linear-gradient"/><linearGradient id="linear-gradient-191" x1="16.02" y1="35.03" x2="48.82" y2="101.59" xlink:href="#linear-gradient"/><linearGradient id="linear-gradient-192" x1="15.81" y1="34.39" x2="47.99" y2="101.82" xlink:href="#linear-gradient"/><linearGradient id="linear-gradient-193" x1="15.61" y1="33.76" x2="47.17" y2="102.06" xlink:href="#linear-gradient"/><linearGradient id="linear-gradient-194" x1="15.42" y1="33.12" x2="46.33" y2="102.28" xlink:href="#linear-gradient"/><linearGradient id="linear-gradient-195" x1="15.24" y1="32.48" x2="45.5" y2="102.51" xlink:href="#linear-gradient"/><linearGradient id="linear-gradient-196" x1="15.08" y1="31.85" x2="44.66" y2="102.73" xlink:href="#linear-gradient"/><linearGradient id="linear-gradient-197" x1="14.93" y1="31.22" x2="43.81" y2="102.95" xlink:href="#linear-gradient"/><linearGradient id="linear-gradient-198" x1="14.79" y1="30.59" x2="42.97" y2="103.16" xlink:href="#linear-gradient"/><linearGradient id="linear-gradient-199" x1="14.67" y1="29.97" x2="42.12" y2="103.37" xlink:href="#linear-gradient"/><linearGradient id="linear-gradient-200" x1="14.56" y1="29.34" x2="41.27" y2="103.57" xlink:href="#linear-gradient"/><linearGradient id="linear-gradient-201" x1="14.47" y1="28.73" x2="40.41" y2="103.77" xlink:href="#linear-gradient"/><linearGradient id="linear-gradient-202" x1="14.39" y1="28.11" x2="39.55" y2="103.97" xlink:href="#linear-gradient"/><linearGradient id="linear-gradient-203" x1="14.32" y1="27.5" x2="38.69" y2="104.17" xlink:href="#linear-gradient"/></defs><title>d</title><path class="cls-1" d="M43.86,74.54C49,86.76,37.39,98.42,25.17,93.23a12.6,12.6,0,0,1-6.65-6.65C13.33,74.35,25,62.7,37.21,67.88A12.6,12.6,0,0,1,43.86,74.54Z"/><path class="cls-2" d="M43.86,73.28C49,85.5,37.39,97.16,25.16,92a12.6,12.6,0,0,1-6.65-6.65C13.32,73.09,25,61.44,37.2,66.62A12.6,12.6,0,0,1,43.86,73.28Z"/><path class="cls-3" d="M43.86,72.05C49,84.28,37.39,95.93,25.16,90.75a12.6,12.6,0,0,1-6.65-6.65C13.32,71.87,25,60.21,37.2,65.4A12.6,12.6,0,0,1,43.86,72.05Z"/><path class="cls-4" d="M43.85,70.85C49,83.08,37.38,94.74,25.16,89.55A12.6,12.6,0,0,1,18.5,82.9C13.32,70.67,25,59,37.2,64.2A12.6,12.6,0,0,1,43.85,70.85Z"/><path class="cls-5" d="M43.84,69.69C49,81.91,37.38,93.57,25.15,88.38a12.6,12.6,0,0,1-6.65-6.65C13.31,69.5,25,57.85,37.19,63A12.6,12.6,0,0,1,43.84,69.69Z"/><path class="cls-6" d="M43.84,68.54C49,80.77,37.37,92.42,25.14,87.24a12.6,12.6,0,0,1-6.65-6.65C13.3,68.36,25,56.7,37.18,61.89A12.6,12.6,0,0,1,43.84,68.54Z"/><path class="cls-7" d="M43.83,67.42C49,79.65,37.36,91.3,25.13,86.12a12.6,12.6,0,0,1-6.65-6.65c-5.19-12.23,6.47-23.88,18.69-18.69A12.6,12.6,0,0,1,43.83,67.42Z"/><path class="cls-8" d="M43.82,66.33C49,78.55,37.35,90.21,25.12,85a12.6,12.6,0,0,1-6.65-6.65c-5.19-12.23,6.47-23.88,18.69-18.69A12.6,12.6,0,0,1,43.82,66.33Z"/><path class="cls-9" d="M43.8,65.25C49,77.47,37.34,89.13,25.11,83.94a12.6,12.6,0,0,1-6.65-6.65C13.27,65.06,24.93,53.41,37.15,58.6A12.6,12.6,0,0,1,43.8,65.25Z"/><path class="cls-10" d="M43.79,64.19C49,76.42,37.32,88.07,25.1,82.88a12.6,12.6,0,0,1-6.65-6.65C13.26,64,24.91,52.35,37.14,57.54A12.6,12.6,0,0,1,43.79,64.19Z"/><path class="cls-11" d="M43.78,63.15C49,75.38,37.31,87,25.08,81.84a12.6,12.6,0,0,1-6.65-6.65C13.24,63,24.9,51.31,37.12,56.5A12.6,12.6,0,0,1,43.78,63.15Z"/><path class="cls-12" d="M43.76,62.12C48.95,74.35,37.29,86,25.07,80.82a12.6,12.6,0,0,1-6.65-6.65c-5.19-12.23,6.47-23.88,18.69-18.69A12.6,12.6,0,0,1,43.76,62.12Z"/><path class="cls-13" d="M43.74,61.11C48.93,73.34,37.27,85,25,79.81a12.6,12.6,0,0,1-6.65-6.65c-5.19-12.23,6.47-23.88,18.69-18.69A12.6,12.6,0,0,1,43.74,61.11Z"/><path class="cls-14" d="M43.72,60.11C48.91,72.34,37.26,84,25,78.81a12.6,12.6,0,0,1-6.65-6.65c-5.19-12.23,6.47-23.88,18.69-18.69A12.6,12.6,0,0,1,43.72,60.11Z"/><path class="cls-15" d="M43.7,59.12C48.89,71.35,37.24,83,25,77.82a12.6,12.6,0,0,1-6.65-6.65c-5.19-12.23,6.47-23.88,18.69-18.69A12.6,12.6,0,0,1,43.7,59.12Z"/><path class="cls-16" d="M43.68,58.14C48.87,70.37,37.22,82,25,76.83a12.6,12.6,0,0,1-6.65-6.65C13.15,58,24.81,46.3,37,51.49A12.6,12.6,0,0,1,43.68,58.14Z"/><path class="cls-17" d="M43.66,57.16C48.85,69.39,37.19,81,25,75.86a12.6,12.6,0,0,1-6.65-6.65C13.13,57,24.78,45.32,37,50.51A12.6,12.6,0,0,1,43.66,57.16Z"/><path class="cls-18" d="M43.64,56.19c5.19,12.23-6.47,23.88-18.69,18.69a12.6,12.6,0,0,1-6.65-6.65C13.11,56,24.76,44.35,37,49.54A12.6,12.6,0,0,1,43.64,56.19Z"/><path class="cls-19" d="M43.62,55.23c5.19,12.23-6.47,23.88-18.69,18.69a12.6,12.6,0,0,1-6.65-6.65C13.08,55,24.74,43.39,37,48.57A12.6,12.6,0,0,1,43.62,55.23Z"/><path class="cls-20" d="M43.6,54.26C48.78,66.48,37.13,78.14,24.9,73a12.6,12.6,0,0,1-6.65-6.65c-5.19-12.23,6.47-23.88,18.69-18.69A12.6,12.6,0,0,1,43.6,54.26Z"/><path class="cls-21" d="M43.57,53.29C48.76,65.52,37.1,77.17,24.88,72a12.6,12.6,0,0,1-6.65-6.65C13,53.11,24.69,41.45,36.92,46.64A12.6,12.6,0,0,1,43.57,53.29Z"/><path class="cls-22" d="M43.55,52.32C48.73,64.55,37.08,76.2,24.85,71a12.6,12.6,0,0,1-6.65-6.65C13,52.14,24.67,40.48,36.89,45.67A12.6,12.6,0,0,1,43.55,52.32Z"/><path class="cls-23" d="M43.52,51.35C48.71,63.57,37.05,75.23,24.83,70a12.6,12.6,0,0,1-6.65-6.65C13,51.16,24.64,39.51,36.87,44.69A12.6,12.6,0,0,1,43.52,51.35Z"/><path class="cls-24" d="M43.5,50.37C48.68,62.59,37,74.25,24.8,69.06a12.6,12.6,0,0,1-6.65-6.65C13,50.18,24.62,38.53,36.84,43.72A12.6,12.6,0,0,1,43.5,50.37Z"/><path class="cls-25" d="M43.47,49.38C48.66,61.61,37,73.26,24.78,68.08a12.6,12.6,0,0,1-6.65-6.65C12.94,49.2,24.59,37.54,36.82,42.73A12.6,12.6,0,0,1,43.47,49.38Z"/><path class="cls-26" d="M43.45,48.38C48.63,60.61,37,72.26,24.75,67.08a12.6,12.6,0,0,1-6.65-6.65C12.91,48.2,24.57,36.54,36.79,41.73A12.6,12.6,0,0,1,43.45,48.38Z"/><path class="cls-27" d="M43.42,47.38C48.61,59.6,37,71.26,24.73,66.07a12.6,12.6,0,0,1-6.65-6.65c-5.19-12.23,6.47-23.88,18.69-18.69A12.6,12.6,0,0,1,43.42,47.38Z"/><path class="cls-28" d="M43.39,46.36c5.19,12.23-6.47,23.88-18.69,18.69A12.6,12.6,0,0,1,18,58.4C12.86,46.17,24.52,34.52,36.74,39.7A12.6,12.6,0,0,1,43.39,46.36Z"/><path class="cls-29" d="M43.37,45.32C48.55,57.55,36.9,69.2,24.67,64A12.6,12.6,0,0,1,18,57.36c-5.19-12.23,6.47-23.88,18.69-18.69A12.6,12.6,0,0,1,43.37,45.32Z"/><path class="cls-30" d="M43.34,44.27C48.53,56.5,36.87,68.15,24.65,63A12.6,12.6,0,0,1,18,56.31c-5.19-12.23,6.47-23.88,18.69-18.69A12.6,12.6,0,0,1,43.34,44.27Z"/><path class="cls-31" d="M43.32,43.2c5.19,12.23-6.47,23.88-18.69,18.69A12.6,12.6,0,0,1,18,55.24C12.78,43,24.44,31.36,36.66,36.55A12.6,12.6,0,0,1,43.32,43.2Z"/><path class="cls-32" d="M43.29,42.11C48.48,54.34,36.82,66,24.6,60.8a12.6,12.6,0,0,1-6.65-6.65c-5.19-12.23,6.47-23.88,18.69-18.69A12.6,12.6,0,0,1,43.29,42.11Z"/><path class="cls-33" d="M43.27,41c5.19,12.23-6.47,23.88-18.69,18.69A12.6,12.6,0,0,1,17.92,53c-5.19-12.23,6.47-23.88,18.69-18.69A12.6,12.6,0,0,1,43.27,41Z"/><path class="cls-34" d="M43.24,39.86c5.19,12.23-6.47,23.88-18.69,18.69a12.6,12.6,0,0,1-6.65-6.65C12.71,39.68,24.36,28,36.59,33.21A12.6,12.6,0,0,1,43.24,39.86Z"/><path class="cls-35" d="M43.22,38.7C48.4,50.93,36.75,62.58,24.52,57.4a12.6,12.6,0,0,1-6.65-6.65c-5.19-12.23,6.47-23.88,18.69-18.69A12.6,12.6,0,0,1,43.22,38.7Z"/><path class="cls-36" d="M43.19,37.52C48.38,49.74,36.72,61.4,24.5,56.21a12.6,12.6,0,0,1-6.65-6.65c-5.19-12.23,6.47-23.88,18.69-18.69A12.6,12.6,0,0,1,43.19,37.52Z"/><path class="cls-37" d="M43.17,36.3C48.35,48.53,36.7,60.18,24.47,55a12.6,12.6,0,0,1-6.65-6.65c-5.19-12.23,6.47-23.88,18.69-18.69A12.6,12.6,0,0,1,43.17,36.3Z"/><path class="cls-38" d="M43.14,35.06c5.19,12.23-6.47,23.88-18.69,18.69A12.6,12.6,0,0,1,17.8,47.1C12.61,34.87,24.27,23.22,36.49,28.4A12.6,12.6,0,0,1,43.14,35.06Z"/><path class="cls-39" d="M43.12,33.78C48.31,46,36.65,57.66,24.43,52.47a12.6,12.6,0,0,1-6.65-6.65c-5.19-12.23,6.47-23.88,18.69-18.69A12.6,12.6,0,0,1,43.12,33.78Z"/><path class="cls-40" d="M43.1,32.46c5.19,12.23-6.47,23.88-18.69,18.69a12.6,12.6,0,0,1-6.65-6.65c-5.19-12.23,6.47-23.88,18.69-18.69A12.6,12.6,0,0,1,43.1,32.46Z"/><path class="cls-41" d="M43.08,31.12C48.27,43.34,36.61,55,24.39,49.81a12.6,12.6,0,0,1-6.65-6.65C12.55,30.93,24.2,19.28,36.43,24.46A12.6,12.6,0,0,1,43.08,31.12Z"/><path class="cls-42" d="M43.06,29.73C48.25,42,36.59,53.61,24.37,48.42a12.6,12.6,0,0,1-6.65-6.65c-5.19-12.23,6.47-23.88,18.69-18.69A12.6,12.6,0,0,1,43.06,29.73Z"/><path class="cls-43" d="M43,28.31C48.23,40.53,36.57,52.19,24.35,47a12.6,12.6,0,0,1-6.65-6.65c-5.19-12.23,6.47-23.88,18.69-18.69A12.6,12.6,0,0,1,43,28.31Z"/><path class="cls-44" d="M43,26.84c5.19,12.23-6.47,23.88-18.69,18.69a12.6,12.6,0,0,1-6.65-6.65C12.49,26.65,24.14,15,36.37,20.19A12.6,12.6,0,0,1,43,26.84Z"/><path class="cls-45" d="M43,25.33C48.19,37.56,36.54,49.21,24.31,44a12.6,12.6,0,0,1-6.65-6.65c-5.19-12.23,6.47-23.88,18.69-18.69A12.6,12.6,0,0,1,43,25.33Z"/><path class="cls-46" d="M43,23.78C48.18,36,36.52,47.66,24.3,42.47a12.6,12.6,0,0,1-6.65-6.65c-5.19-12.23,6.47-23.88,18.69-18.69A12.6,12.6,0,0,1,43,23.78Z"/><path class="cls-47" d="M43,22.18c5.19,12.23-6.47,23.88-18.69,18.69a12.6,12.6,0,0,1-6.65-6.65C12.44,22,24.1,10.34,36.32,15.52A12.6,12.6,0,0,1,43,22.18Z"/><path class="cls-48" d="M43,20.53c5.19,12.23-6.47,23.88-18.69,18.69a12.6,12.6,0,0,1-6.65-6.65C12.43,20.35,24.08,8.69,36.31,13.88A12.6,12.6,0,0,1,43,20.53Z"/><path class="cls-49" d="M43,18.83c5.19,12.23-6.47,23.88-18.69,18.69a12.6,12.6,0,0,1-6.65-6.65C12.42,18.65,24.07,7,36.3,12.18A12.6,12.6,0,0,1,43,18.83Z"/><path class="cls-50" d="M42.94,17.08C48.13,29.31,36.47,41,24.25,35.78a12.6,12.6,0,0,1-6.65-6.65C12.41,16.9,24.06,5.24,36.29,10.43A12.6,12.6,0,0,1,42.94,17.08Z"/><path class="cls-51" d="M42.93,15.28C48.12,27.51,36.46,39.16,24.24,34a12.6,12.6,0,0,1-6.65-6.65C12.4,15.1,24.05,3.44,36.28,8.63A12.6,12.6,0,0,1,42.93,15.28Z"/><path class="cls-52" d="M43,13.61c5.19,12.23-6.47,23.88-18.69,18.69a12.6,12.6,0,0,1-6.65-6.65C12.43,13.43,24.08,1.77,36.31,7A12.6,12.6,0,0,1,43,13.61Z"/><path class="cls-53" d="M43.49,12.58C48.68,24.8,37,36.46,24.8,31.27a12.6,12.6,0,0,1-6.65-6.65C13,12.39,24.62.74,36.84,5.92A12.6,12.6,0,0,1,43.49,12.58Z"/><path class="cls-54" d="M44.51,12C49.7,24.25,38,35.9,25.82,30.71a12.6,12.6,0,0,1-6.65-6.65C14,11.84,25.64.18,37.86,5.37A12.6,12.6,0,0,1,44.51,12Z"/><path class="cls-55" d="M45.77,12C51,24.23,39.31,35.89,27.08,30.7A12.6,12.6,0,0,1,20.43,24C15.24,11.82,26.89.17,39.12,5.36A12.6,12.6,0,0,1,45.77,12Z"/><path class="cls-56" d="M47,12.05c5.19,12.23-6.47,23.88-18.69,18.69a12.6,12.6,0,0,1-6.65-6.65C16.52,11.87,28.17.21,40.4,5.4A12.6,12.6,0,0,1,47,12.05Z"/><path class="cls-57" d="M48.32,12.1C53.51,24.33,41.85,36,29.63,30.79A12.6,12.6,0,0,1,23,24.14C17.79,11.92,29.44.26,41.67,5.45A12.6,12.6,0,0,1,48.32,12.1Z"/><path class="cls-58" d="M49.58,12.15C54.77,24.38,43.11,36,30.89,30.84a12.6,12.6,0,0,1-6.65-6.65C19,12,30.7.31,42.93,5.5A12.6,12.6,0,0,1,49.58,12.15Z"/><path class="cls-59" d="M50.84,12.21C56,24.43,44.37,36.09,32.14,30.9a12.6,12.6,0,0,1-6.65-6.65C20.3,12,32,.37,44.18,5.55A12.6,12.6,0,0,1,50.84,12.21Z"/><path class="cls-60" d="M52.08,12.27C57.27,24.49,45.61,36.15,33.39,31a12.6,12.6,0,0,1-6.65-6.65C21.55,12.08,33.2.43,45.43,5.61A12.6,12.6,0,0,1,52.08,12.27Z"/><path class="cls-61" d="M53.32,12.34C58.5,24.56,46.85,36.22,34.62,31A12.6,12.6,0,0,1,28,24.38C22.78,12.15,34.44.5,46.66,5.68A12.6,12.6,0,0,1,53.32,12.34Z"/><path class="cls-62" d="M54.54,12.41c5.19,12.23-6.47,23.88-18.69,18.69a12.6,12.6,0,0,1-6.65-6.65C24,12.23,35.66.57,47.89,5.76A12.6,12.6,0,0,1,54.54,12.41Z"/><path class="cls-63" d="M55.75,12.5c5.19,12.23-6.47,23.88-18.69,18.69a12.6,12.6,0,0,1-6.65-6.65C25.22,12.32,36.87.66,49.1,5.85A12.6,12.6,0,0,1,55.75,12.5Z"/><path class="cls-64" d="M57,12.61c5.19,12.23-6.47,23.88-18.69,18.69a12.6,12.6,0,0,1-6.65-6.65C26.42,12.42,38.08.77,50.3,6A12.6,12.6,0,0,1,57,12.61Z"/><path class="cls-65" d="M58.14,12.72c5.19,12.23-6.47,23.88-18.69,18.69a12.6,12.6,0,0,1-6.65-6.65C27.61,12.54,39.26.88,51.49,6.07A12.6,12.6,0,0,1,58.14,12.72Z"/><path class="cls-66" d="M59.32,12.85c5.19,12.23-6.47,23.88-18.69,18.69A12.6,12.6,0,0,1,34,24.89C28.78,12.67,40.44,1,52.66,6.2A12.6,12.6,0,0,1,59.32,12.85Z"/><path class="cls-67" d="M60.48,13C65.66,25.23,54,36.88,41.78,31.69A12.6,12.6,0,0,1,35.13,25C29.94,12.81,41.6,1.16,53.82,6.35A12.6,12.6,0,0,1,60.48,13Z"/><path class="cls-68" d="M61.62,13.17C66.81,25.39,55.15,37,42.93,31.86a12.6,12.6,0,0,1-6.65-6.65C31.09,13,42.74,1.33,55,6.51A12.6,12.6,0,0,1,61.62,13.17Z"/><path class="cls-69" d="M62.75,13.35C67.93,25.58,56.28,37.23,44.05,32a12.6,12.6,0,0,1-6.65-6.65C32.21,13.17,43.87,1.51,56.09,6.7A12.6,12.6,0,0,1,62.75,13.35Z"/><path class="cls-70" d="M63.86,13.56C69,25.79,57.39,37.44,45.16,32.25a12.6,12.6,0,0,1-6.65-6.65C33.32,13.38,45,1.72,57.2,6.91A12.6,12.6,0,0,1,63.86,13.56Z"/><path class="cls-71" d="M64.95,13.79C70.14,26,58.48,37.67,46.26,32.49a12.6,12.6,0,0,1-6.65-6.65C34.42,13.61,46.07,2,58.3,7.14A12.6,12.6,0,0,1,64.95,13.79Z"/><path class="cls-72" d="M66,14c5.19,12.23-6.47,23.88-18.69,18.69a12.6,12.6,0,0,1-6.65-6.65C35.49,13.86,47.14,2.21,59.37,7.39A12.6,12.6,0,0,1,66,14Z"/><path class="cls-73" d="M67.08,14.33C72.26,26.55,60.61,38.21,48.38,33a12.6,12.6,0,0,1-6.65-6.65C36.54,14.14,48.2,2.49,60.42,7.67A12.6,12.6,0,0,1,67.08,14.33Z"/><path class="cls-74" d="M68.11,14.64c5.19,12.23-6.47,23.88-18.69,18.69a12.6,12.6,0,0,1-6.65-6.65C37.57,14.45,49.23,2.8,61.45,8A12.6,12.6,0,0,1,68.11,14.64Z"/><path class="cls-75" d="M69.12,15c5.19,12.23-6.47,23.88-18.69,18.69A12.6,12.6,0,0,1,43.77,27C38.59,14.79,50.24,3.14,62.47,8.32A12.6,12.6,0,0,1,69.12,15Z"/><path class="cls-76" d="M70.11,15.34C75.29,27.57,63.64,39.22,51.41,34a12.6,12.6,0,0,1-6.65-6.65C39.57,15.16,51.23,3.5,63.46,8.69A12.6,12.6,0,0,1,70.11,15.34Z"/><path class="cls-77" d="M71.07,15.74C76.26,28,64.61,39.62,52.38,34.44a12.6,12.6,0,0,1-6.65-6.65C40.54,15.56,52.2,3.9,64.42,9.09A12.6,12.6,0,0,1,71.07,15.74Z"/><path class="cls-78" d="M72,16.18C77.2,28.4,65.55,40.06,53.32,34.87a12.6,12.6,0,0,1-6.65-6.65C41.48,16,53.14,4.34,65.36,9.53A12.6,12.6,0,0,1,72,16.18Z"/><path class="cls-79" d="M72.93,16.65c5.19,12.23-6.47,23.88-18.69,18.69a12.6,12.6,0,0,1-6.65-6.65C42.4,16.46,54.06,4.81,66.28,10A12.6,12.6,0,0,1,72.93,16.65Z"/><path class="cls-80" d="M73.83,17.15C79,29.38,67.36,41,55.13,35.85a12.6,12.6,0,0,1-6.65-6.65C43.29,17,54.95,5.31,67.17,10.5A12.6,12.6,0,0,1,73.83,17.15Z"/><path class="cls-81" d="M74.69,17.7C79.88,29.92,68.22,41.58,56,36.39a12.6,12.6,0,0,1-6.65-6.65C44.16,17.51,55.81,5.86,68,11A12.6,12.6,0,0,1,74.69,17.7Z"/><path class="cls-82" d="M75.53,18.28C80.72,30.51,69.06,42.16,56.84,37a12.6,12.6,0,0,1-6.65-6.65C45,18.1,56.65,6.44,68.88,11.63A12.6,12.6,0,0,1,75.53,18.28Z"/><path class="cls-83" d="M76.34,18.91c5.19,12.23-6.47,23.88-18.69,18.69A12.6,12.6,0,0,1,51,30.95C45.81,18.72,57.46,7.07,69.69,12.25A12.6,12.6,0,0,1,76.34,18.91Z"/><path class="cls-84" d="M77.12,19.58c5.19,12.23-6.47,23.88-18.69,18.69a12.6,12.6,0,0,1-6.65-6.65C46.59,19.39,58.24,7.74,70.47,12.92A12.6,12.6,0,0,1,77.12,19.58Z"/><path class="cls-85" d="M77.87,20.29C83.06,32.51,71.4,44.17,59.18,39a12.6,12.6,0,0,1-6.65-6.65C47.34,20.1,59,8.45,71.22,13.63A12.6,12.6,0,0,1,77.87,20.29Z"/><path class="cls-86" d="M78.59,21c5.19,12.23-6.47,23.88-18.69,18.69a12.6,12.6,0,0,1-6.65-6.65C48.06,20.86,59.71,9.21,71.94,14.39A12.6,12.6,0,0,1,78.59,21Z"/><path class="cls-87" d="M79.28,21.85c5.19,12.23-6.47,23.88-18.69,18.69a12.6,12.6,0,0,1-6.65-6.65C48.75,21.67,60.4,10,72.63,15.2A12.6,12.6,0,0,1,79.28,21.85Z"/><path class="cls-88" d="M79.94,22.7c5.19,12.23-6.47,23.88-18.69,18.69a12.6,12.6,0,0,1-6.65-6.65c-5.19-12.23,6.47-23.88,18.69-18.69A12.6,12.6,0,0,1,79.94,22.7Z"/><path class="cls-89" d="M80.56,23.61C85.75,35.83,74.1,47.49,61.87,42.3a12.6,12.6,0,0,1-6.65-6.65C50,23.42,61.69,11.77,73.91,17A12.6,12.6,0,0,1,80.56,23.61Z"/><path class="cls-90" d="M81.15,24.57c5.19,12.23-6.47,23.88-18.69,18.69a12.6,12.6,0,0,1-6.65-6.65C50.62,24.38,62.28,12.73,74.5,17.91A12.6,12.6,0,0,1,81.15,24.57Z"/><path class="cls-91" d="M81.71,25.57C86.9,37.8,75.24,49.45,63,44.27a12.6,12.6,0,0,1-6.65-6.65c-5.19-12.23,6.47-23.88,18.69-18.69A12.6,12.6,0,0,1,81.71,25.57Z"/><path class="cls-92" d="M82.23,26.64c5.19,12.23-6.47,23.88-18.69,18.69a12.6,12.6,0,0,1-6.65-6.65C51.7,26.45,63.35,14.8,75.58,20A12.6,12.6,0,0,1,82.23,26.64Z"/><path class="cls-93" d="M82.71,27.76C87.9,40,76.25,51.64,64,46.45a12.6,12.6,0,0,1-6.65-6.65c-5.19-12.23,6.47-23.88,18.69-18.69A12.6,12.6,0,0,1,82.71,27.76Z"/><path class="cls-94" d="M83.16,28.94c5.19,12.23-6.47,23.88-18.69,18.69A12.6,12.6,0,0,1,57.81,41C52.63,28.75,64.28,17.1,76.51,22.29A12.6,12.6,0,0,1,83.16,28.94Z"/><path class="cls-95" d="M83.57,30.18C88.76,42.4,77.1,54.06,64.88,48.87a12.6,12.6,0,0,1-6.65-6.65C53,30,64.69,18.34,76.92,23.52A12.6,12.6,0,0,1,83.57,30.18Z"/><path class="cls-96" d="M83.94,31.48c5.19,12.23-6.47,23.88-18.69,18.69a12.6,12.6,0,0,1-6.65-6.65C53.4,31.29,65.06,19.64,77.29,24.82A12.6,12.6,0,0,1,83.94,31.48Z"/><path class="cls-97" d="M84.27,32.84c5.19,12.23-6.47,23.88-18.69,18.69a12.6,12.6,0,0,1-6.65-6.65C53.73,32.65,65.39,21,77.62,26.18A12.6,12.6,0,0,1,84.27,32.84Z"/><path class="cls-98" d="M84.56,34.26C89.74,46.49,78.09,58.14,65.86,53a12.6,12.6,0,0,1-6.65-6.65C54,34.08,65.68,22.42,77.9,27.61A12.6,12.6,0,0,1,84.56,34.26Z"/><path class="cls-99" d="M84.81,35.75C90,48,78.34,59.63,66.11,54.45a12.6,12.6,0,0,1-6.65-6.65C54.27,35.57,65.93,23.91,78.15,29.1A12.6,12.6,0,0,1,84.81,35.75Z"/><path class="cls-100" d="M85,37.31C90.2,49.54,78.54,61.19,66.32,56a12.6,12.6,0,0,1-6.65-6.65c-5.19-12.23,6.47-23.88,18.69-18.69A12.6,12.6,0,0,1,85,37.31Z"/><path class="cls-101" d="M85.17,38.94c5.19,12.23-6.47,23.88-18.69,18.69A12.6,12.6,0,0,1,59.83,51C54.64,38.75,66.3,27.1,78.52,32.28A12.6,12.6,0,0,1,85.17,38.94Z"/><path class="cls-102" d="M85.29,40.63c5.19,12.23-6.47,23.88-18.69,18.69a12.6,12.6,0,0,1-6.65-6.65C54.76,40.45,66.41,28.79,78.64,34A12.6,12.6,0,0,1,85.29,40.63Z"/><path class="cls-103" d="M85.34,41.63c5.19,12.23-6.47,23.88-18.69,18.69A12.6,12.6,0,0,1,60,53.67C54.81,41.45,66.46,29.79,78.69,35A12.6,12.6,0,0,1,85.34,41.63Z"/><path class="cls-104" d="M85.38,42.61c5.19,12.23-6.47,23.88-18.69,18.69A12.6,12.6,0,0,1,60,54.65C54.84,42.42,66.5,30.77,78.72,36A12.6,12.6,0,0,1,85.38,42.61Z"/><path class="cls-105" d="M85.4,43.56c5.19,12.23-6.47,23.88-18.69,18.69A12.6,12.6,0,0,1,60,55.6c-5.19-12.23,6.47-23.88,18.69-18.69A12.6,12.6,0,0,1,85.4,43.56Z"/><path class="cls-106" d="M85.4,44.5c5.19,12.23-6.47,23.88-18.69,18.69a12.6,12.6,0,0,1-6.65-6.65c-5.19-12.23,6.47-23.88,18.69-18.69A12.6,12.6,0,0,1,85.4,44.5Z"/><path class="cls-107" d="M85.39,45.42C90.58,57.64,78.93,69.3,66.7,64.11A12.6,12.6,0,0,1,60,57.46c-5.19-12.23,6.47-23.88,18.69-18.69A12.6,12.6,0,0,1,85.39,45.42Z"/><path class="cls-108" d="M85.37,46.32C90.56,58.54,78.9,70.2,66.68,65A12.6,12.6,0,0,1,60,58.36c-5.19-12.23,6.47-23.88,18.69-18.69A12.6,12.6,0,0,1,85.37,46.32Z"/><path class="cls-109" d="M85.34,47.2c5.19,12.23-6.47,23.88-18.69,18.69A12.6,12.6,0,0,1,60,59.24C54.8,47,66.46,35.36,78.68,40.55A12.6,12.6,0,0,1,85.34,47.2Z"/><path class="cls-110" d="M85.29,48.06c5.19,12.23-6.47,23.88-18.69,18.69a12.6,12.6,0,0,1-6.65-6.65c-5.19-12.23,6.47-23.88,18.69-18.69A12.6,12.6,0,0,1,85.29,48.06Z"/><path class="cls-111" d="M85.22,48.91c5.19,12.23-6.47,23.88-18.69,18.69a12.6,12.6,0,0,1-6.65-6.65c-5.19-12.23,6.47-23.88,18.69-18.69A12.6,12.6,0,0,1,85.22,48.91Z"/><path class="cls-112" d="M85.15,49.73C90.33,62,78.68,73.61,66.45,68.43a12.6,12.6,0,0,1-6.65-6.65c-5.19-12.23,6.47-23.88,18.69-18.69A12.6,12.6,0,0,1,85.15,49.73Z"/><path class="cls-113" d="M85.06,50.54c5.19,12.23-6.47,23.88-18.69,18.69a12.6,12.6,0,0,1-6.65-6.65C54.52,50.36,66.18,38.7,78.4,43.89A12.6,12.6,0,0,1,85.06,50.54Z"/><path class="cls-114" d="M85,51.33C90.14,63.56,78.49,75.21,66.26,70a12.6,12.6,0,0,1-6.65-6.65C54.42,51.15,66.08,39.49,78.3,44.68A12.6,12.6,0,0,1,85,51.33Z"/><path class="cls-115" d="M84.84,52.1C90,64.33,78.37,76,66.15,70.8a12.6,12.6,0,0,1-6.65-6.65C54.31,51.92,66,40.26,78.19,45.45A12.6,12.6,0,0,1,84.84,52.1Z"/><path class="cls-116" d="M84.71,52.86C89.9,65.09,78.24,76.74,66,71.55a12.6,12.6,0,0,1-6.65-6.65C54.18,52.68,65.83,41,78.06,46.21A12.6,12.6,0,0,1,84.71,52.86Z"/><path class="cls-117" d="M84.57,53.6c5.19,12.23-6.47,23.88-18.69,18.69a12.6,12.6,0,0,1-6.65-6.65C54,53.41,65.69,41.76,77.92,46.95A12.6,12.6,0,0,1,84.57,53.6Z"/><path class="cls-118" d="M84.42,54.32C89.61,66.55,78,78.2,65.73,73a12.6,12.6,0,0,1-6.65-6.65c-5.19-12.23,6.47-23.88,18.69-18.69A12.6,12.6,0,0,1,84.42,54.32Z"/><path class="cls-119" d="M84.26,55c5.19,12.23-6.47,23.88-18.69,18.69a12.6,12.6,0,0,1-6.65-6.65C53.72,54.84,65.38,43.19,77.6,48.37A12.6,12.6,0,0,1,84.26,55Z"/><path class="cls-120" d="M84.08,55.72c5.19,12.23-6.47,23.88-18.69,18.69a12.6,12.6,0,0,1-6.65-6.65C53.55,55.53,65.2,43.88,77.43,49.06A12.6,12.6,0,0,1,84.08,55.72Z"/><path class="cls-121" d="M83.89,56.39c5.19,12.23-6.47,23.88-18.69,18.69a12.6,12.6,0,0,1-6.65-6.65C53.36,56.2,65,44.55,77.24,49.74A12.6,12.6,0,0,1,83.89,56.39Z"/><path class="cls-122" d="M83.69,57C88.88,69.27,77.22,80.93,65,75.74a12.6,12.6,0,0,1-6.65-6.65C53.16,56.86,64.81,45.21,77,50.39A12.6,12.6,0,0,1,83.69,57Z"/><path class="cls-123" d="M83.48,57.69C88.67,69.91,77,81.57,64.79,76.38a12.6,12.6,0,0,1-6.65-6.65C52.95,57.5,64.6,45.85,76.83,51A12.6,12.6,0,0,1,83.48,57.69Z"/><path class="cls-124" d="M83.26,58.31C88.45,70.54,76.79,82.19,64.57,77a12.6,12.6,0,0,1-6.65-6.65c-5.19-12.23,6.47-23.88,18.69-18.69A12.6,12.6,0,0,1,83.26,58.31Z"/><path class="cls-125" d="M83,58.92c5.19,12.23-6.47,23.88-18.69,18.69A12.6,12.6,0,0,1,57.68,71c-5.19-12.23,6.47-23.88,18.69-18.69A12.6,12.6,0,0,1,83,58.92Z"/><path class="cls-126" d="M82.78,59.52C88,71.74,76.31,83.4,64.09,78.21a12.6,12.6,0,0,1-6.65-6.65C52.25,59.33,63.9,47.68,76.13,52.86A12.6,12.6,0,0,1,82.78,59.52Z"/><path class="cls-127" d="M82.53,60.09C87.71,72.32,76.06,84,63.83,78.79a12.6,12.6,0,0,1-6.65-6.65C52,59.91,63.65,48.26,75.87,53.44A12.6,12.6,0,0,1,82.53,60.09Z"/><path class="cls-128" d="M82.26,60.66c5.19,12.23-6.47,23.88-18.69,18.69a12.6,12.6,0,0,1-6.65-6.65C51.73,60.47,63.38,48.82,75.61,54A12.6,12.6,0,0,1,82.26,60.66Z"/><path class="cls-129" d="M82,61.21c5.19,12.23-6.47,23.88-18.69,18.69a12.6,12.6,0,0,1-6.65-6.65C51.45,61,63.1,49.37,75.33,54.56A12.6,12.6,0,0,1,82,61.21Z"/><path class="cls-130" d="M81.7,61.74C86.88,74,75.23,85.62,63,80.44a12.6,12.6,0,0,1-6.65-6.65C51.16,61.56,62.82,49.9,75,55.09A12.6,12.6,0,0,1,81.7,61.74Z"/><path class="cls-131" d="M81.4,62.26C86.59,74.49,74.93,86.14,62.71,81a12.6,12.6,0,0,1-6.65-6.65c-5.19-12.23,6.47-23.88,18.69-18.69A12.6,12.6,0,0,1,81.4,62.26Z"/><path class="cls-132" d="M81.09,62.77C86.28,75,74.63,86.65,62.4,81.46a12.6,12.6,0,0,1-6.65-6.65c-5.19-12.23,6.47-23.88,18.69-18.69A12.6,12.6,0,0,1,81.09,62.77Z"/><path class="cls-133" d="M80.78,63.26C86,75.49,74.31,87.14,62.08,82a12.6,12.6,0,0,1-6.65-6.65C50.24,63.08,61.9,51.42,74.12,56.61A12.6,12.6,0,0,1,80.78,63.26Z"/><path class="cls-134" d="M80.45,63.74C85.64,76,74,87.62,61.76,82.44a12.6,12.6,0,0,1-6.65-6.65C49.92,63.56,61.57,51.9,73.8,57.09A12.6,12.6,0,0,1,80.45,63.74Z"/><path class="cls-135" d="M80.11,64.21C85.3,76.43,73.65,88.09,61.42,82.9a12.6,12.6,0,0,1-6.65-6.65C49.58,64,61.24,52.37,73.46,57.55A12.6,12.6,0,0,1,80.11,64.21Z"/><path class="cls-136" d="M79.77,64.66C85,76.89,73.3,88.54,61.08,83.35a12.6,12.6,0,0,1-6.65-6.65C49.24,64.47,60.89,52.82,73.12,58A12.6,12.6,0,0,1,79.77,64.66Z"/><path class="cls-137" d="M79.42,65.1C84.6,77.32,72.95,89,60.72,83.79a12.6,12.6,0,0,1-6.65-6.65c-5.19-12.23,6.47-23.88,18.69-18.69A12.6,12.6,0,0,1,79.42,65.1Z"/><path class="cls-138" d="M79.05,65.52c5.19,12.23-6.47,23.88-18.69,18.69a12.6,12.6,0,0,1-6.65-6.65C48.52,65.34,60.17,53.68,72.4,58.87A12.6,12.6,0,0,1,79.05,65.52Z"/><path class="cls-139" d="M78.68,65.94C83.87,78.16,72.21,89.82,60,84.63A12.6,12.6,0,0,1,53.33,78C48.15,65.75,59.8,54.1,72,59.28A12.6,12.6,0,0,1,78.68,65.94Z"/><path class="cls-140" d="M78.3,66.34C83.49,78.56,71.83,90.22,59.61,85A12.6,12.6,0,0,1,53,78.38C47.77,66.15,59.42,54.5,71.65,59.68A12.6,12.6,0,0,1,78.3,66.34Z"/><path class="cls-141" d="M77.91,66.73C83.1,79,71.44,90.61,59.22,85.42a12.6,12.6,0,0,1-6.65-6.65C47.38,66.54,59,54.89,71.26,60.07A12.6,12.6,0,0,1,77.91,66.73Z"/><path class="cls-142" d="M77.51,67.1C82.7,79.33,71,91,58.82,85.8a12.6,12.6,0,0,1-6.65-6.65C47,66.92,58.63,55.26,70.86,60.45A12.6,12.6,0,0,1,77.51,67.1Z"/><path class="cls-143" d="M77.11,67.47c5.19,12.23-6.47,23.88-18.69,18.69a12.6,12.6,0,0,1-6.65-6.65c-5.19-12.23,6.47-23.88,18.69-18.69A12.6,12.6,0,0,1,77.11,67.47Z"/><path class="cls-144" d="M76.69,67.82C81.88,80,70.22,91.7,58,86.51a12.6,12.6,0,0,1-6.65-6.65C46.16,67.63,57.81,56,70,61.16A12.6,12.6,0,0,1,76.69,67.82Z"/><path class="cls-145" d="M76.27,68.16C81.46,80.38,69.8,92,57.58,86.85a12.6,12.6,0,0,1-6.65-6.65C45.74,68,57.39,56.32,69.62,61.5A12.6,12.6,0,0,1,76.27,68.16Z"/><path class="cls-146" d="M75.84,68.49C81,80.71,69.37,92.37,57.15,87.18a12.6,12.6,0,0,1-6.65-6.65C45.31,68.3,57,56.65,69.19,61.83A12.6,12.6,0,0,1,75.84,68.49Z"/><path class="cls-147" d="M75.4,68.8C80.59,81,68.94,92.69,56.71,87.5a12.6,12.6,0,0,1-6.65-6.65C44.87,68.62,56.53,57,68.75,62.15A12.6,12.6,0,0,1,75.4,68.8Z"/><path class="cls-148" d="M75,69.11C80.15,81.34,68.49,93,56.27,87.81a12.6,12.6,0,0,1-6.65-6.65c-5.19-12.23,6.47-23.88,18.69-18.69A12.6,12.6,0,0,1,75,69.11Z"/><path class="cls-149" d="M74.51,69.41C79.7,81.63,68,93.29,55.82,88.1a12.6,12.6,0,0,1-6.65-6.65C44,69.22,55.63,57.57,67.86,62.75A12.6,12.6,0,0,1,74.51,69.41Z"/><path class="cls-150" d="M74.05,69.69c5.19,12.23-6.47,23.88-18.69,18.69a12.6,12.6,0,0,1-6.65-6.65C43.52,69.51,55.17,57.85,67.4,63A12.6,12.6,0,0,1,74.05,69.69Z"/><path class="cls-151" d="M73.58,70c5.19,12.23-6.47,23.88-18.69,18.69A12.6,12.6,0,0,1,48.24,82c-5.19-12.23,6.47-23.88,18.69-18.69A12.6,12.6,0,0,1,73.58,70Z"/><path class="cls-152" d="M73.11,70.23c5.19,12.23-6.47,23.88-18.69,18.69a12.6,12.6,0,0,1-6.65-6.65C42.58,70,54.23,58.39,66.46,63.58A12.6,12.6,0,0,1,73.11,70.23Z"/><path class="cls-153" d="M72.63,70.49c5.19,12.23-6.47,23.88-18.69,18.69a12.6,12.6,0,0,1-6.65-6.65C42.1,70.3,53.75,58.65,66,63.83A12.6,12.6,0,0,1,72.63,70.49Z"/><path class="cls-154" d="M72.15,70.73C77.33,83,65.68,94.61,53.45,89.43a12.6,12.6,0,0,1-6.65-6.65c-5.19-12.23,6.47-23.88,18.69-18.69A12.6,12.6,0,0,1,72.15,70.73Z"/><path class="cls-155" d="M71.66,71C76.84,83.19,65.19,94.85,53,89.66A12.6,12.6,0,0,1,46.31,83C41.12,70.78,52.78,59.13,65,64.31A12.6,12.6,0,0,1,71.66,71Z"/><path class="cls-156" d="M71.16,71.19c5.19,12.23-6.47,23.88-18.69,18.69a12.6,12.6,0,0,1-6.65-6.65C40.63,71,52.28,59.35,64.51,64.54A12.6,12.6,0,0,1,71.16,71.19Z"/><path class="cls-157" d="M70.66,71.41C75.84,83.63,64.19,95.29,52,90.1a12.6,12.6,0,0,1-6.65-6.65C40.12,71.22,51.78,59.57,64,64.76A12.6,12.6,0,0,1,70.66,71.41Z"/><path class="cls-158" d="M70.15,71.62c5.19,12.23-6.47,23.88-18.69,18.69a12.6,12.6,0,0,1-6.65-6.65C39.61,71.43,51.27,59.78,63.49,65A12.6,12.6,0,0,1,70.15,71.62Z"/><path class="cls-159" d="M69.63,71.81C74.82,84,63.16,95.69,50.94,90.51a12.6,12.6,0,0,1-6.65-6.65C39.1,71.63,50.75,60,63,65.16A12.6,12.6,0,0,1,69.63,71.81Z"/><path class="cls-160" d="M69.11,72C74.3,84.23,62.64,95.88,50.42,90.7A12.6,12.6,0,0,1,43.76,84c-5.19-12.23,6.47-23.88,18.69-18.69A12.6,12.6,0,0,1,69.11,72Z"/><path class="cls-161" d="M68.59,72.19c5.19,12.23-6.47,23.88-18.69,18.69a12.6,12.6,0,0,1-6.65-6.65C38.05,72,49.71,60.35,61.93,65.53A12.6,12.6,0,0,1,68.59,72.19Z"/><path class="cls-162" d="M68.06,72.36c5.19,12.23-6.47,23.88-18.69,18.69a12.6,12.6,0,0,1-6.65-6.65C37.52,72.17,49.18,60.52,61.4,65.71A12.6,12.6,0,0,1,68.06,72.36Z"/><path class="cls-163" d="M67.52,72.52c5.19,12.23-6.47,23.88-18.69,18.69a12.6,12.6,0,0,1-6.65-6.65C37,72.34,48.64,60.68,60.87,65.87A12.6,12.6,0,0,1,67.52,72.52Z"/><path class="cls-164" d="M67,72.68c5.19,12.23-6.47,23.88-18.69,18.69a12.6,12.6,0,0,1-6.65-6.65C36.45,72.49,48.1,60.84,60.33,66A12.6,12.6,0,0,1,67,72.68Z"/><path class="cls-165" d="M66.43,72.83C71.62,85.05,60,96.71,47.74,91.52a12.6,12.6,0,0,1-6.65-6.65C35.9,72.64,47.56,61,59.78,66.18A12.6,12.6,0,0,1,66.43,72.83Z"/><path class="cls-166" d="M65.89,73c5.19,12.23-6.47,23.88-18.69,18.69A12.6,12.6,0,0,1,40.54,85C35.35,72.79,47,61.13,59.23,66.32A12.6,12.6,0,0,1,65.89,73Z"/><path class="cls-167" d="M65.33,73.11C70.52,85.33,58.86,97,46.64,91.8A12.6,12.6,0,0,1,40,85.15C34.8,72.92,46.45,61.27,58.68,66.45A12.6,12.6,0,0,1,65.33,73.11Z"/><path class="cls-168" d="M64.77,73.23C70,85.46,58.31,97.11,46.08,91.93a12.6,12.6,0,0,1-6.65-6.65C34.24,73,45.89,61.39,58.12,66.58A12.6,12.6,0,0,1,64.77,73.23Z"/><path class="cls-169" d="M64.21,73.35C69.4,85.58,57.74,97.23,45.52,92a12.6,12.6,0,0,1-6.65-6.65C33.68,73.17,45.33,61.51,57.56,66.7A12.6,12.6,0,0,1,64.21,73.35Z"/><path class="cls-170" d="M63.65,73.47C68.83,85.69,57.18,97.35,45,92.16a12.6,12.6,0,0,1-6.65-6.65C33.11,73.28,44.77,61.63,57,66.81A12.6,12.6,0,0,1,63.65,73.47Z"/><path class="cls-171" d="M63.08,73.57c5.19,12.23-6.47,23.88-18.69,18.69a12.6,12.6,0,0,1-6.65-6.65C32.54,73.39,44.2,61.73,56.42,66.92A12.6,12.6,0,0,1,63.08,73.57Z"/><path class="cls-172" d="M62.5,73.67C67.69,85.9,56,97.55,43.81,92.37a12.6,12.6,0,0,1-6.65-6.65C32,73.49,43.63,61.83,55.85,67A12.6,12.6,0,0,1,62.5,73.67Z"/><path class="cls-173" d="M61.93,73.77C67.11,86,55.46,97.65,43.23,92.46a12.6,12.6,0,0,1-6.65-6.65C31.39,73.58,43,61.93,55.27,67.11A12.6,12.6,0,0,1,61.93,73.77Z"/><path class="cls-174" d="M61.35,73.86c5.19,12.23-6.47,23.88-18.69,18.69A12.6,12.6,0,0,1,36,85.9C30.82,73.67,42.47,62,54.7,67.2A12.6,12.6,0,0,1,61.35,73.86Z"/><path class="cls-175" d="M60.77,73.94C66,86.16,54.3,97.82,42.07,92.63A12.6,12.6,0,0,1,35.42,86C30.23,73.75,41.89,62.1,54.11,67.29A12.6,12.6,0,0,1,60.77,73.94Z"/><path class="cls-176" d="M60.18,74c5.19,12.23-6.47,23.88-18.69,18.69a12.6,12.6,0,0,1-6.65-6.65C29.65,73.83,41.3,62.18,53.53,67.36A12.6,12.6,0,0,1,60.18,74Z"/><path class="cls-177" d="M59.59,74.09C64.78,86.31,53.13,98,40.9,92.78a12.6,12.6,0,0,1-6.65-6.65C29.06,73.9,40.72,62.25,52.94,67.43A12.6,12.6,0,0,1,59.59,74.09Z"/><path class="cls-178" d="M59,74.15C64.19,86.38,52.54,98,40.31,92.85a12.6,12.6,0,0,1-6.65-6.65C28.47,74,40.13,62.31,52.35,67.5A12.6,12.6,0,0,1,59,74.15Z"/><path class="cls-179" d="M58.41,74.22C63.6,86.44,51.94,98.1,39.72,92.91a12.6,12.6,0,0,1-6.65-6.65C27.88,74,39.53,62.38,51.76,67.56A12.6,12.6,0,0,1,58.41,74.22Z"/><path class="cls-180" d="M57.82,74.27C63,86.5,51.35,98.15,39.12,93a12.6,12.6,0,0,1-6.65-6.65c-5.19-12.23,6.47-23.88,18.69-18.69A12.6,12.6,0,0,1,57.82,74.27Z"/><path class="cls-181" d="M57.22,74.33C62.41,86.55,50.75,98.21,38.53,93a12.6,12.6,0,0,1-6.65-6.65c-5.19-12.23,6.47-23.88,18.69-18.69A12.6,12.6,0,0,1,57.22,74.33Z"/><path class="cls-182" d="M56.62,74.37c5.19,12.23-6.47,23.88-18.69,18.69a12.6,12.6,0,0,1-6.65-6.65C26.09,74.19,37.74,62.53,50,67.72A12.6,12.6,0,0,1,56.62,74.37Z"/><path class="cls-183" d="M56,74.42c5.19,12.23-6.47,23.88-18.69,18.69a12.6,12.6,0,0,1-6.65-6.65c-5.19-12.23,6.47-23.88,18.69-18.69A12.6,12.6,0,0,1,56,74.42Z"/><path class="cls-184" d="M55.42,74.46C60.61,86.68,49,98.34,36.73,93.15a12.6,12.6,0,0,1-6.65-6.65C24.89,74.27,36.54,62.62,48.77,67.8A12.6,12.6,0,0,1,55.42,74.46Z"/><path class="cls-185" d="M54.82,74.49C60,86.72,48.35,98.37,36.12,93.19a12.6,12.6,0,0,1-6.65-6.65c-5.19-12.23,6.47-23.88,18.69-18.69A12.6,12.6,0,0,1,54.82,74.49Z"/><path class="cls-186" d="M54.21,74.52C59.4,86.75,47.74,98.4,35.52,93.22a12.6,12.6,0,0,1-6.65-6.65c-5.19-12.23,6.47-23.88,18.69-18.69A12.6,12.6,0,0,1,54.21,74.52Z"/><path class="cls-187" d="M53.61,74.55c5.19,12.23-6.47,23.88-18.69,18.69a12.6,12.6,0,0,1-6.65-6.65C23.07,74.37,34.73,62.71,47,67.9A12.6,12.6,0,0,1,53.61,74.55Z"/><path class="cls-188" d="M53,74.58c5.19,12.23-6.47,23.88-18.69,18.69a12.6,12.6,0,0,1-6.65-6.65c-5.19-12.23,6.47-23.88,18.69-18.69A12.6,12.6,0,0,1,53,74.58Z"/><path class="cls-189" d="M52.39,74.6c5.19,12.23-6.47,23.88-18.69,18.69A12.6,12.6,0,0,1,27,86.64c-5.19-12.23,6.47-23.88,18.69-18.69A12.6,12.6,0,0,1,52.39,74.6Z"/><path class="cls-190" d="M51.79,74.62C57,86.84,45.32,98.5,33.09,93.31a12.6,12.6,0,0,1-6.65-6.65C21.25,74.43,32.91,62.78,45.13,68A12.6,12.6,0,0,1,51.79,74.62Z"/><path class="cls-191" d="M51.18,74.64c5.19,12.23-6.47,23.88-18.69,18.69a12.6,12.6,0,0,1-6.65-6.65C20.65,74.45,32.3,62.8,44.53,68A12.6,12.6,0,0,1,51.18,74.64Z"/><path class="cls-192" d="M50.57,74.65c5.19,12.23-6.47,23.88-18.69,18.69a12.6,12.6,0,0,1-6.65-6.65C20,74.47,31.69,62.81,43.92,68A12.6,12.6,0,0,1,50.57,74.65Z"/><path class="cls-193" d="M50,74.66c5.19,12.23-6.47,23.88-18.69,18.69a12.6,12.6,0,0,1-6.65-6.65C19.43,74.48,31.08,62.82,43.31,68A12.6,12.6,0,0,1,50,74.66Z"/><path class="cls-194" d="M49.36,74.67c5.19,12.23-6.47,23.88-18.69,18.69A12.6,12.6,0,0,1,24,86.71C18.82,74.49,30.48,62.83,42.7,68A12.6,12.6,0,0,1,49.36,74.67Z"/><path class="cls-195" d="M48.75,74.68c5.19,12.23-6.47,23.88-18.69,18.69a12.6,12.6,0,0,1-6.65-6.65C18.21,74.5,29.87,62.84,42.09,68A12.6,12.6,0,0,1,48.75,74.68Z"/><path class="cls-196" d="M48.14,74.69c5.19,12.23-6.47,23.88-18.69,18.69a12.6,12.6,0,0,1-6.65-6.65C17.61,74.5,29.26,62.85,41.49,68A12.6,12.6,0,0,1,48.14,74.69Z"/><path class="cls-197" d="M47.53,74.69c5.19,12.23-6.47,23.88-18.69,18.69a12.6,12.6,0,0,1-6.65-6.65C17,74.51,28.65,62.85,40.88,68A12.6,12.6,0,0,1,47.53,74.69Z"/><path class="cls-198" d="M46.93,74.7c5.19,12.23-6.47,23.88-18.69,18.69a12.6,12.6,0,0,1-6.65-6.65C16.39,74.51,28,62.86,40.27,68A12.6,12.6,0,0,1,46.93,74.7Z"/><path class="cls-199" d="M46.32,74.7c5.19,12.23-6.47,23.88-18.69,18.69A12.6,12.6,0,0,1,21,86.74C15.79,74.51,27.44,62.86,39.67,68A12.6,12.6,0,0,1,46.32,74.7Z"/><path class="cls-200" d="M45.72,74.7C50.9,86.93,39.25,98.58,27,93.39a12.6,12.6,0,0,1-6.65-6.65C15.18,74.51,26.84,62.86,39.06,68A12.6,12.6,0,0,1,45.72,74.7Z"/><path class="cls-201" d="M45.12,74.7C50.3,86.93,38.65,98.58,26.42,93.4a12.6,12.6,0,0,1-6.65-6.65C14.58,74.52,26.24,62.86,38.46,68A12.6,12.6,0,0,1,45.12,74.7Z"/><path class="cls-202" d="M44.51,74.7C49.7,86.93,38,98.58,25.82,93.4a12.6,12.6,0,0,1-6.65-6.65C14,74.52,25.64,62.86,37.86,68A12.6,12.6,0,0,1,44.51,74.7Z"/><path class="cls-203" d="M43.91,74.7C49.1,86.93,37.45,98.58,25.22,93.4a12.6,12.6,0,0,1-6.65-6.65C13.38,74.52,25,62.86,37.26,68A12.6,12.6,0,0,1,43.91,74.7Z"/></svg>