<svg id="Layer_1" data-name="Layer 1" xmlns="http://www.w3.org/2000/svg" xmlns:xlink="http://www.w3.org/1999/xlink" viewBox="0 0 101 99"><defs><style>.cls-1{fill:url(#linear-gradient);}.cls-2{fill:url(#linear-gradient-2);}.cls-3{fill:url(#linear-gradient-3);}.cls-4{fill:url(#linear-gradient-4);}.cls-5{fill:url(#linear-gradient-5);}.cls-6{fill:url(#linear-gradient-6);}.cls-7{fill:url(#linear-gradient-7);}.cls-8{fill:url(#linear-gradient-8);}.cls-9{fill:url(#linear-gradient-9);}.cls-10{fill:url(#linear-gradient-10);}.cls-11{fill:url(#linear-gradient-11);}.cls-12{fill:url(#linear-gradient-12);}.cls-13{fill:url(#linear-gradient-13);}.cls-14{fill:url(#linear-gradient-14);}.cls-15{fill:url(#linear-gradient-15);}.cls-16{fill:url(#linear-gradient-16);}.cls-17{fill:url(#linear-gradient-17);}.cls-18{fill:url(#linear-gradient-18);}.cls-19{fill:url(#linear-gradient-19);}.cls-20{fill:url(#linear-gradient-20);}.cls-21{fill:url(#linear-gradient-21);}.cls-22{fill:url(#linear-gradient-22);}.cls-23{fill:url(#linear-gradient-23);}.cls-24{fill:url(#linear-gradient-24);}.cls-25{fill:url(#linear-gradient-25);}.cls-26{fill:url(#linear-gradient-26);}.cls-27{fill:url(#linear-gradient-27);}.cls-28{fill:url(#linear-gradient-28);}.cls-29{fill:url(#linear-gradient-29);}.cls-30{fill:url(#linear-gradient-30);}.cls-31{fill:url(#linear-gradient-31);}.cls-32{fill:url(#linear-gradient-32);}.cls-33{fill:url(#linear-gradient-33);}.cls-34{fill:url(#linear-gradient-34);}.cls-35{fill:url(#linear-gradient-35);}.cls-36{fill:url(#linear-gradient-36);}.cls-37{fill:url(#linear-gradient-37);}.cls-38{fill:url(#linear-gradient-38);}.cls-39{fill:url(#linear-gradient-39);}.cls-40{fill:url(#linear-gradient-40);}.cls-41{fill:url(#linear-gradient-41);}.cls-42{fill:url(#linear-gradient-42);}.cls-43{fill:url(#linear-gradient-43);}.cls-44{fill:url(#linear-gradient-44);}.cls-45{fill:url(#linear-gradient-45);}.cls-46{fill:url(#linear-gradient-46);}.cls-47{fill:url(#linear-gradient-47);}.cls-48{fill:url(#linear-gradient-48);}.cls-49{fill:url(#linear-gradient-49);}.cls-50{fill:url(#linear-gradient-50);}.cls-51{fill:url(#linear-gradient-51);}.cls-52{fill:url(#linear-gradient-52);}.cls-53{fill:url(#linear-gradient-53);}.cls-54{fill:url(#linear-gradient-54);}.cls-55{fill:url(#linear-gradient-55);}.cls-56{fill:url(#linear-gradient-56);}.cls-57{fill:url(#linear-gradient-57);}.cls-58{fill:url(#linear-gradient-58);}.cls-59{fill:url(#linear-gradient-59);}.cls-60{fill:url(#linear-gradient-60);}.cls-61{fill:url(#linear-gradient-61);}.cls-62{fill:url(#linear-gradient-62);}.cls-63{fill:url(#linear-gradient-63);}.cls-64{fill:url(#linear-gradient-64);}.cls-65{fill:url(#linear-gradient-65);}.cls-66{fill:url(#linear-gradient-66);}.cls-67{fill:url(#linear-gradient-67);}.cls-68{fill:url(#linear-gradient-68);}.cls-69{fill:url(#linear-gradient-69);}.cls-70{fill:url(#linear-gradient-70);}.cls-71{fill:url(#linear-gradient-71);}.cls-72{fill:url(#linear-gradient-72);}.cls-73{fill:url(#linear-gradient-73);}.cls-74{fill:url(#linear-gradient-74);}.cls-75{fill:url(#linear-gradient-75);}.cls-76{fill:url(#linear-gradient-76);}.cls-77{fill:url(#linear-gradient-77);}.cls-78{fill:url(#linear-gradient-78);}.cls-79{fill:url(#linear-gradient-79);}.cls-80{fill:url(#linear-gradient-80);}.cls-81{fill:url(#linear-gradient-81);}.cls-82{fill:url(#linear-gradient-82);}.cls-83{fill:url(#linear-gradient-83);}.cls-84{fill:url(#linear-gradient-84);}.cls-85{fill:url(#linear-gradient-85);}.cls-86{fill:url(#linear-gradient-86);}.cls-87{fill:url(#linear-gradient-87);}.cls-88{fill:url(#linear-gradient-88);}.cls-89{fill:url(#linear-gradient-89);}.cls-90{fill:url(#linear-gradient-90);}.cls-91{fill:url(#linear-gradient-91);}.cls-92{fill:url(#linear-gradient-92);}.cls-93{fill:url(#linear-gradient-93);}.cls-94{fill:url(#linear-gradient-94);}.cls-95{fill:url(#linear-gradient-95);}.cls-96{fill:url(#linear-gradient-96);}.cls-97{fill:url(#linear-gradient-97);}.cls-98{fill:url(#linear-gradient-98);}.cls-99{fill:url(#linear-gradient-99);}.cls-100{fill:url(#linear-gradient-100);}.cls-101{fill:url(#linear-gradient-101);}.cls-102{fill:url(#linear-gradient-102);}</style><linearGradient id="linear-gradient" x1="14.6" y1="81.64" x2="43.37" y2="81.64" gradientUnits="userSpaceOnUse"><stop offset="0.12" stop-color="#fd80d7"/><stop offset="0.98" stop-color="#ff5c55"/></linearGradient><linearGradient id="linear-gradient-2" x1="14.61" y1="80.38" x2="43.37" y2="80.38" xlink:href="#linear-gradient"/><linearGradient id="linear-gradient-3" x1="14.61" y1="79.12" x2="43.37" y2="79.12" xlink:href="#linear-gradient"/><linearGradient id="linear-gradient-4" x1="14.61" y1="77.86" x2="43.37" y2="77.86" xlink:href="#linear-gradient"/><linearGradient id="linear-gradient-5" x1="14.61" y1="76.6" x2="43.38" y2="76.6" xlink:href="#linear-gradient"/><linearGradient id="linear-gradient-6" x1="14.62" y1="75.34" x2="43.38" y2="75.34" xlink:href="#linear-gradient"/><linearGradient id="linear-gradient-7" x1="14.62" y1="74.08" x2="43.38" y2="74.08" xlink:href="#linear-gradient"/><linearGradient id="linear-gradient-8" x1="14.62" y1="72.82" x2="43.38" y2="72.82" xlink:href="#linear-gradient"/><linearGradient id="linear-gradient-9" x1="14.62" y1="71.56" x2="43.39" y2="71.56" xlink:href="#linear-gradient"/><linearGradient id="linear-gradient-10" x1="14.63" y1="70.3" x2="43.39" y2="70.3" xlink:href="#linear-gradient"/><linearGradient id="linear-gradient-11" x1="14.63" y1="69.04" x2="43.39" y2="69.04" xlink:href="#linear-gradient"/><linearGradient id="linear-gradient-12" x1="14.63" y1="67.78" x2="43.4" y2="67.78" xlink:href="#linear-gradient"/><linearGradient id="linear-gradient-13" x1="14.63" y1="66.53" x2="43.4" y2="66.53" xlink:href="#linear-gradient"/><linearGradient id="linear-gradient-14" x1="14.64" y1="65.27" x2="43.4" y2="65.27" xlink:href="#linear-gradient"/><linearGradient id="linear-gradient-15" x1="14.64" y1="64.01" x2="43.4" y2="64.01" xlink:href="#linear-gradient"/><linearGradient id="linear-gradient-16" x1="14.64" y1="62.75" x2="43.41" y2="62.75" xlink:href="#linear-gradient"/><linearGradient id="linear-gradient-17" x1="14.64" y1="61.49" x2="43.41" y2="61.49" xlink:href="#linear-gradient"/><linearGradient id="linear-gradient-18" x1="14.65" y1="60.23" x2="43.41" y2="60.23" xlink:href="#linear-gradient"/><linearGradient id="linear-gradient-19" x1="14.65" y1="58.97" x2="43.41" y2="58.97" xlink:href="#linear-gradient"/><linearGradient id="linear-gradient-20" x1="14.65" y1="57.71" x2="43.42" y2="57.71" xlink:href="#linear-gradient"/><linearGradient id="linear-gradient-21" x1="14.65" y1="56.45" x2="43.42" y2="56.45" xlink:href="#linear-gradient"/><linearGradient id="linear-gradient-22" x1="14.66" y1="55.19" x2="43.42" y2="55.19" xlink:href="#linear-gradient"/><linearGradient id="linear-gradient-23" x1="14.66" y1="53.93" x2="43.42" y2="53.93" xlink:href="#linear-gradient"/><linearGradient id="linear-gradient-24" x1="14.66" y1="52.67" x2="43.43" y2="52.67" xlink:href="#linear-gradient"/><linearGradient id="linear-gradient-25" x1="14.66" y1="51.41" x2="43.43" y2="51.41" xlink:href="#linear-gradient"/><linearGradient id="linear-gradient-26" x1="14.67" y1="50.15" x2="43.43" y2="50.15" xlink:href="#linear-gradient"/><linearGradient id="linear-gradient-27" x1="14.67" y1="48.89" x2="43.43" y2="48.89" xlink:href="#linear-gradient"/><linearGradient id="linear-gradient-28" x1="14.67" y1="47.63" x2="43.44" y2="47.63" xlink:href="#linear-gradient"/><linearGradient id="linear-gradient-29" x1="14.68" y1="46.37" x2="43.44" y2="46.37" xlink:href="#linear-gradient"/><linearGradient id="linear-gradient-30" x1="14.68" y1="45.11" x2="43.44" y2="45.11" xlink:href="#linear-gradient"/><linearGradient id="linear-gradient-31" x1="14.68" y1="43.85" x2="43.44" y2="43.85" xlink:href="#linear-gradient"/><linearGradient id="linear-gradient-32" x1="14.68" y1="42.59" x2="43.45" y2="42.59" xlink:href="#linear-gradient"/><linearGradient id="linear-gradient-33" x1="14.69" y1="41.33" x2="43.45" y2="41.33" xlink:href="#linear-gradient"/><linearGradient id="linear-gradient-34" x1="14.69" y1="40.07" x2="43.45" y2="40.07" xlink:href="#linear-gradient"/><linearGradient id="linear-gradient-35" x1="14.69" y1="38.81" x2="43.45" y2="38.81" xlink:href="#linear-gradient"/><linearGradient id="linear-gradient-36" x1="14.69" y1="37.56" x2="43.46" y2="37.56" xlink:href="#linear-gradient"/><linearGradient id="linear-gradient-37" x1="14.7" y1="36.3" x2="43.46" y2="36.3" xlink:href="#linear-gradient"/><linearGradient id="linear-gradient-38" x1="14.7" y1="35.04" x2="43.46" y2="35.04" xlink:href="#linear-gradient"/><linearGradient id="linear-gradient-39" x1="14.7" y1="33.78" x2="43.46" y2="33.78" xlink:href="#linear-gradient"/><linearGradient id="linear-gradient-40" x1="14.7" y1="32.52" x2="43.47" y2="32.52" xlink:href="#linear-gradient"/><linearGradient id="linear-gradient-41" x1="14.71" y1="31.26" x2="43.47" y2="31.26" xlink:href="#linear-gradient"/><linearGradient id="linear-gradient-42" x1="14.71" y1="30" x2="43.47" y2="30" xlink:href="#linear-gradient"/><linearGradient id="linear-gradient-43" x1="14.71" y1="28.74" x2="43.47" y2="28.74" xlink:href="#linear-gradient"/><linearGradient id="linear-gradient-44" x1="14.71" y1="27.48" x2="43.48" y2="27.48" xlink:href="#linear-gradient"/><linearGradient id="linear-gradient-45" x1="14.72" y1="26.22" x2="43.48" y2="26.22" xlink:href="#linear-gradient"/><linearGradient id="linear-gradient-46" x1="14.72" y1="24.96" x2="43.48" y2="24.96" xlink:href="#linear-gradient"/><linearGradient id="linear-gradient-47" x1="14.72" y1="23.7" x2="43.48" y2="23.7" xlink:href="#linear-gradient"/><linearGradient id="linear-gradient-48" x1="14.72" y1="22.44" x2="43.49" y2="22.44" xlink:href="#linear-gradient"/><linearGradient id="linear-gradient-49" x1="14.73" y1="21.18" x2="43.49" y2="21.18" xlink:href="#linear-gradient"/><linearGradient id="linear-gradient-50" x1="14.73" y1="19.92" x2="43.49" y2="19.92" xlink:href="#linear-gradient"/><linearGradient id="linear-gradient-51" x1="14.73" y1="18.66" x2="43.49" y2="18.66" xlink:href="#linear-gradient"/><linearGradient id="linear-gradient-52" x1="60.37" y1="81.33" x2="89.13" y2="81.33" xlink:href="#linear-gradient"/><linearGradient id="linear-gradient-53" x1="59.32" y1="80.09" x2="88.08" y2="80.09" xlink:href="#linear-gradient"/><linearGradient id="linear-gradient-54" x1="58.26" y1="78.85" x2="87.03" y2="78.85" xlink:href="#linear-gradient"/><linearGradient id="linear-gradient-55" x1="57.21" y1="77.61" x2="85.97" y2="77.61" xlink:href="#linear-gradient"/><linearGradient id="linear-gradient-56" x1="56.16" y1="76.37" x2="84.92" y2="76.37" xlink:href="#linear-gradient"/><linearGradient id="linear-gradient-57" x1="55.1" y1="75.13" x2="83.87" y2="75.13" xlink:href="#linear-gradient"/><linearGradient id="linear-gradient-58" x1="54.05" y1="73.9" x2="82.81" y2="73.9" xlink:href="#linear-gradient"/><linearGradient id="linear-gradient-59" x1="52.99" y1="72.66" x2="81.76" y2="72.66" xlink:href="#linear-gradient"/><linearGradient id="linear-gradient-60" x1="51.94" y1="71.42" x2="80.71" y2="71.42" xlink:href="#linear-gradient"/><linearGradient id="linear-gradient-61" x1="50.89" y1="70.18" x2="79.65" y2="70.18" xlink:href="#linear-gradient"/><linearGradient id="linear-gradient-62" x1="49.83" y1="68.94" x2="78.6" y2="68.94" xlink:href="#linear-gradient"/><linearGradient id="linear-gradient-63" x1="48.78" y1="67.71" x2="77.55" y2="67.71" xlink:href="#linear-gradient"/><linearGradient id="linear-gradient-64" x1="47.73" y1="66.47" x2="76.49" y2="66.47" xlink:href="#linear-gradient"/><linearGradient id="linear-gradient-65" x1="46.67" y1="65.23" x2="75.44" y2="65.23" xlink:href="#linear-gradient"/><linearGradient id="linear-gradient-66" x1="45.62" y1="63.99" x2="74.38" y2="63.99" xlink:href="#linear-gradient"/><linearGradient id="linear-gradient-67" x1="44.57" y1="62.75" x2="73.33" y2="62.75" xlink:href="#linear-gradient"/><linearGradient id="linear-gradient-68" x1="43.51" y1="61.52" x2="72.28" y2="61.52" xlink:href="#linear-gradient"/><linearGradient id="linear-gradient-69" x1="42.46" y1="60.28" x2="71.22" y2="60.28" xlink:href="#linear-gradient"/><linearGradient id="linear-gradient-70" x1="41.41" y1="59.04" x2="70.17" y2="59.04" xlink:href="#linear-gradient"/><linearGradient id="linear-gradient-71" x1="40.35" y1="57.8" x2="69.12" y2="57.8" xlink:href="#linear-gradient"/><linearGradient id="linear-gradient-72" x1="39.3" y1="56.56" x2="68.06" y2="56.56" xlink:href="#linear-gradient"/><linearGradient id="linear-gradient-73" x1="38.25" y1="55.33" x2="67.01" y2="55.33" xlink:href="#linear-gradient"/><linearGradient id="linear-gradient-74" x1="37.19" y1="54.09" x2="65.96" y2="54.09" xlink:href="#linear-gradient"/><linearGradient id="linear-gradient-75" x1="36.14" y1="52.85" x2="64.9" y2="52.85" xlink:href="#linear-gradient"/><linearGradient id="linear-gradient-76" x1="35.09" y1="51.61" x2="63.85" y2="51.61" xlink:href="#linear-gradient"/><linearGradient id="linear-gradient-77" x1="34.03" y1="50.37" x2="62.8" y2="50.37" xlink:href="#linear-gradient"/><linearGradient id="linear-gradient-78" x1="33.52" y1="49.14" x2="62.28" y2="49.14" xlink:href="#linear-gradient"/><linearGradient id="linear-gradient-79" x1="34.57" y1="47.9" x2="63.34" y2="47.9" xlink:href="#linear-gradient"/><linearGradient id="linear-gradient-80" x1="35.63" y1="46.66" x2="64.39" y2="46.66" xlink:href="#linear-gradient"/><linearGradient id="linear-gradient-81" x1="36.68" y1="45.42" x2="65.44" y2="45.42" xlink:href="#linear-gradient"/><linearGradient id="linear-gradient-82" x1="37.73" y1="44.19" x2="66.5" y2="44.19" xlink:href="#linear-gradient"/><linearGradient id="linear-gradient-83" x1="38.79" y1="42.95" x2="67.55" y2="42.95" xlink:href="#linear-gradient"/><linearGradient id="linear-gradient-84" x1="39.84" y1="41.71" x2="68.61" y2="41.71" xlink:href="#linear-gradient"/><linearGradient id="linear-gradient-85" x1="40.9" y1="40.47" x2="69.66" y2="40.47" xlink:href="#linear-gradient"/><linearGradient id="linear-gradient-86" x1="41.95" y1="39.24" x2="70.71" y2="39.24" xlink:href="#linear-gradient"/><linearGradient id="linear-gradient-87" x1="43" y1="38" x2="71.77" y2="38" xlink:href="#linear-gradient"/><linearGradient id="linear-gradient-88" x1="44.06" y1="36.76" x2="72.82" y2="36.76" xlink:href="#linear-gradient"/><linearGradient id="linear-gradient-89" x1="45.11" y1="35.52" x2="73.88" y2="35.52" xlink:href="#linear-gradient"/><linearGradient id="linear-gradient-90" x1="46.17" y1="34.29" x2="74.93" y2="34.29" xlink:href="#linear-gradient"/><linearGradient id="linear-gradient-91" x1="47.22" y1="33.05" x2="75.98" y2="33.05" xlink:href="#linear-gradient"/><linearGradient id="linear-gradient-92" x1="48.27" y1="31.81" x2="77.04" y2="31.81" xlink:href="#linear-gradient"/><linearGradient id="linear-gradient-93" x1="49.33" y1="30.57" x2="78.09" y2="30.57" xlink:href="#linear-gradient"/><linearGradient id="linear-gradient-94" x1="50.38" y1="29.34" x2="79.15" y2="29.34" xlink:href="#linear-gradient"/><linearGradient id="linear-gradient-95" x1="51.44" y1="28.1" x2="80.2" y2="28.1" xlink:href="#linear-gradient"/><linearGradient id="linear-gradient-96" x1="52.49" y1="26.86" x2="81.25" y2="26.86" xlink:href="#linear-gradient"/><linearGradient id="linear-gradient-97" x1="53.55" y1="25.62" x2="82.31" y2="25.62" xlink:href="#linear-gradient"/><linearGradient id="linear-gradient-98" x1="54.6" y1="24.39" x2="83.36" y2="24.39" xlink:href="#linear-gradient"/><linearGradient id="linear-gradient-99" x1="55.65" y1="23.15" x2="84.42" y2="23.15" xlink:href="#linear-gradient"/><linearGradient id="linear-gradient-100" x1="56.71" y1="21.91" x2="85.47" y2="21.91" xlink:href="#linear-gradient"/><linearGradient id="linear-gradient-101" x1="57.76" y1="20.67" x2="86.53" y2="20.67" xlink:href="#linear-gradient"/><linearGradient id="linear-gradient-102" x1="58.82" y1="19.44" x2="87.58" y2="19.44" xlink:href="#linear-gradient"/></defs><title>k_1</title><circle class="cls-1" cx="28.99" cy="81.64" r="14.38"/><circle class="cls-2" cx="28.99" cy="80.38" r="14.38"/><circle class="cls-3" cx="28.99" cy="79.12" r="14.38"/><circle class="cls-4" cx="28.99" cy="77.86" r="14.38"/><circle class="cls-5" cx="29" cy="76.6" r="14.38"/><circle class="cls-6" cx="29" cy="75.34" r="14.38"/><circle class="cls-7" cx="29" cy="74.08" r="14.38"/><circle class="cls-8" cx="29" cy="72.82" r="14.38"/><circle class="cls-9" cx="29.01" cy="71.56" r="14.38"/><circle class="cls-10" cx="29.01" cy="70.3" r="14.38"/><circle class="cls-11" cx="29.01" cy="69.04" r="14.38"/><circle class="cls-12" cx="29.01" cy="67.78" r="14.38"/><circle class="cls-13" cx="29.02" cy="66.53" r="14.38"/><circle class="cls-14" cx="29.02" cy="65.27" r="14.38"/><circle class="cls-15" cx="29.02" cy="64.01" r="14.38"/><circle class="cls-16" cx="29.02" cy="62.75" r="14.38"/><circle class="cls-17" cx="29.03" cy="61.49" r="14.38"/><circle class="cls-18" cx="29.03" cy="60.23" r="14.38"/><circle class="cls-19" cx="29.03" cy="58.97" r="14.38"/><circle class="cls-20" cx="29.03" cy="57.71" r="14.38"/><circle class="cls-21" cx="29.04" cy="56.45" r="14.38"/><circle class="cls-22" cx="29.04" cy="55.19" r="14.38"/><circle class="cls-23" cx="29.04" cy="53.93" r="14.38"/><circle class="cls-24" cx="29.04" cy="52.67" r="14.38"/><circle class="cls-25" cx="29.05" cy="51.41" r="14.38"/><circle class="cls-26" cx="29.05" cy="50.15" r="14.38"/><circle class="cls-27" cx="29.05" cy="48.89" r="14.38"/><circle class="cls-28" cx="29.05" cy="47.63" r="14.38"/><circle class="cls-29" cx="29.06" cy="46.37" r="14.38"/><circle class="cls-30" cx="29.06" cy="45.11" r="14.38"/><circle class="cls-31" cx="29.06" cy="43.85" r="14.38"/><circle class="cls-32" cx="29.06" cy="42.59" r="14.38"/><circle class="cls-33" cx="29.07" cy="41.33" r="14.38"/><circle class="cls-34" cx="29.07" cy="40.07" r="14.38"/><circle class="cls-35" cx="29.07" cy="38.81" r="14.38"/><circle class="cls-36" cx="29.07" cy="37.56" r="14.38"/><circle class="cls-37" cx="29.08" cy="36.3" r="14.38"/><circle class="cls-38" cx="29.08" cy="35.04" r="14.38"/><circle class="cls-39" cx="29.08" cy="33.78" r="14.38"/><circle class="cls-40" cx="29.09" cy="32.52" r="14.38"/><circle class="cls-41" cx="29.09" cy="31.26" r="14.38"/><circle class="cls-42" cx="29.09" cy="30" r="14.38"/><circle class="cls-43" cx="29.09" cy="28.74" r="14.38"/><circle class="cls-44" cx="29.1" cy="27.48" r="14.38"/><circle class="cls-45" cx="29.1" cy="26.22" r="14.38"/><circle class="cls-46" cx="29.1" cy="24.96" r="14.38"/><circle class="cls-47" cx="29.1" cy="23.7" r="14.38"/><circle class="cls-48" cx="29.11" cy="22.44" r="14.38"/><circle class="cls-49" cx="29.11" cy="21.18" r="14.38"/><circle class="cls-50" cx="29.11" cy="19.92" r="14.38"/><circle class="cls-51" cx="29.11" cy="18.66" r="14.38"/><circle class="cls-52" cx="74.75" cy="81.33" r="14.38"/><circle class="cls-53" cx="73.7" cy="80.09" r="14.38"/><circle class="cls-54" cx="72.64" cy="78.85" r="14.38"/><circle class="cls-55" cx="71.59" cy="77.61" r="14.38"/><circle class="cls-56" cx="70.54" cy="76.37" r="14.38"/><circle class="cls-57" cx="69.48" cy="75.13" r="14.38"/><circle class="cls-58" cx="68.43" cy="73.9" r="14.38"/><circle class="cls-59" cx="67.38" cy="72.66" r="14.38"/><circle class="cls-60" cx="66.32" cy="71.42" r="14.38"/><circle class="cls-61" cx="65.27" cy="70.18" r="14.38"/><circle class="cls-62" cx="64.22" cy="68.94" r="14.38"/><circle class="cls-63" cx="63.16" cy="67.71" r="14.38"/><circle class="cls-64" cx="62.11" cy="66.47" r="14.38"/><circle class="cls-65" cx="61.06" cy="65.23" r="14.38"/><circle class="cls-66" cx="60" cy="63.99" r="14.38"/><circle class="cls-67" cx="58.95" cy="62.75" r="14.38"/><circle class="cls-68" cx="57.9" cy="61.52" r="14.38"/><circle class="cls-69" cx="56.84" cy="60.28" r="14.38"/><circle class="cls-70" cx="55.79" cy="59.04" r="14.38"/><circle class="cls-71" cx="54.74" cy="57.8" r="14.38"/><circle class="cls-72" cx="53.68" cy="56.56" r="14.38"/><circle class="cls-73" cx="52.63" cy="55.33" r="14.38"/><circle class="cls-74" cx="51.58" cy="54.09" r="14.38"/><circle class="cls-75" cx="50.52" cy="52.85" r="14.38"/><circle class="cls-76" cx="49.47" cy="51.61" r="14.38"/><circle class="cls-77" cx="48.42" cy="50.37" r="14.38"/><circle class="cls-78" cx="47.9" cy="49.14" r="14.38"/><circle class="cls-79" cx="48.95" cy="47.9" r="14.38"/><circle class="cls-80" cx="50.01" cy="46.66" r="14.38"/><circle class="cls-81" cx="51.06" cy="45.42" r="14.38"/><circle class="cls-82" cx="52.12" cy="44.19" r="14.38"/><circle class="cls-83" cx="53.17" cy="42.95" r="14.38"/><circle class="cls-84" cx="54.22" cy="41.71" r="14.38"/><circle class="cls-85" cx="55.28" cy="40.47" r="14.38"/><circle class="cls-86" cx="56.33" cy="39.24" r="14.38"/><circle class="cls-87" cx="57.39" cy="38" r="14.38"/><circle class="cls-88" cx="58.44" cy="36.76" r="14.38"/><circle class="cls-89" cx="59.49" cy="35.52" r="14.38"/><circle class="cls-90" cx="60.55" cy="34.29" r="14.38"/><circle class="cls-91" cx="61.6" cy="33.05" r="14.38"/><circle class="cls-92" cx="62.66" cy="31.81" r="14.38"/><circle class="cls-93" cx="63.71" cy="30.57" r="14.38"/><circle class="cls-94" cx="64.76" cy="29.34" r="14.38"/><circle class="cls-95" cx="65.82" cy="28.1" r="14.38"/><circle class="cls-96" cx="66.87" cy="26.86" r="14.38"/><circle class="cls-97" cx="67.93" cy="25.62" r="14.38"/><circle class="cls-98" cx="68.98" cy="24.39" r="14.38"/><circle class="cls-99" cx="70.04" cy="23.15" r="14.38"/><circle class="cls-100" cx="71.09" cy="21.91" r="14.38"/><circle class="cls-101" cx="72.14" cy="20.67" r="14.38"/><circle class="cls-102" cx="73.2" cy="19.44" r="14.38"/></svg>