<svg id="Layer_1" data-name="Layer 1" xmlns="http://www.w3.org/2000/svg" xmlns:xlink="http://www.w3.org/1999/xlink" viewBox="0 0 101 99"><defs><style>.cls-1{fill:url(#linear-gradient);}.cls-2{fill:url(#linear-gradient-2);}.cls-3{fill:url(#linear-gradient-3);}.cls-4{fill:url(#linear-gradient-4);}.cls-5{fill:url(#linear-gradient-5);}.cls-6{fill:url(#linear-gradient-6);}.cls-7{fill:url(#linear-gradient-7);}.cls-8{fill:url(#linear-gradient-8);}.cls-9{fill:url(#linear-gradient-9);}.cls-10{fill:url(#linear-gradient-10);}.cls-11{fill:url(#linear-gradient-11);}.cls-12{fill:url(#linear-gradient-12);}.cls-13{fill:url(#linear-gradient-13);}.cls-14{fill:url(#linear-gradient-14);}.cls-15{fill:url(#linear-gradient-15);}.cls-16{fill:url(#linear-gradient-16);}.cls-17{fill:url(#linear-gradient-17);}.cls-18{fill:url(#linear-gradient-18);}.cls-19{fill:url(#linear-gradient-19);}.cls-20{fill:url(#linear-gradient-20);}.cls-21{fill:url(#linear-gradient-21);}.cls-22{fill:url(#linear-gradient-22);}.cls-23{fill:url(#linear-gradient-23);}.cls-24{fill:url(#linear-gradient-24);}.cls-25{fill:url(#linear-gradient-25);}.cls-26{fill:url(#linear-gradient-26);}.cls-27{fill:url(#linear-gradient-27);}.cls-28{fill:url(#linear-gradient-28);}.cls-29{fill:url(#linear-gradient-29);}.cls-30{fill:url(#linear-gradient-30);}.cls-31{fill:url(#linear-gradient-31);}.cls-32{fill:url(#linear-gradient-32);}.cls-33{fill:url(#linear-gradient-33);}.cls-34{fill:url(#linear-gradient-34);}.cls-35{fill:url(#linear-gradient-35);}.cls-36{fill:url(#linear-gradient-36);}.cls-37{fill:url(#linear-gradient-37);}.cls-38{fill:url(#linear-gradient-38);}.cls-39{fill:url(#linear-gradient-39);}.cls-40{fill:url(#linear-gradient-40);}.cls-41{fill:url(#linear-gradient-41);}.cls-42{fill:url(#linear-gradient-42);}.cls-43{fill:url(#linear-gradient-43);}.cls-44{fill:url(#linear-gradient-44);}.cls-45{fill:url(#linear-gradient-45);}.cls-46{fill:url(#linear-gradient-46);}.cls-47{fill:url(#linear-gradient-47);}.cls-48{fill:url(#linear-gradient-48);}.cls-49{fill:url(#linear-gradient-49);}.cls-50{fill:url(#linear-gradient-50);}.cls-51{fill:url(#linear-gradient-51);}.cls-52{fill:url(#linear-gradient-52);}.cls-53{fill:url(#linear-gradient-53);}.cls-54{fill:url(#linear-gradient-54);}.cls-55{fill:url(#linear-gradient-55);}.cls-56{fill:url(#linear-gradient-56);}.cls-57{fill:url(#linear-gradient-57);}.cls-58{fill:url(#linear-gradient-58);}.cls-59{fill:url(#linear-gradient-59);}.cls-60{fill:url(#linear-gradient-60);}.cls-61{fill:url(#linear-gradient-61);}.cls-62{fill:url(#linear-gradient-62);}.cls-63{fill:url(#linear-gradient-63);}.cls-64{fill:url(#linear-gradient-64);}.cls-65{fill:url(#linear-gradient-65);}.cls-66{fill:url(#linear-gradient-66);}.cls-67{fill:url(#linear-gradient-67);}.cls-68{fill:url(#linear-gradient-68);}.cls-69{fill:url(#linear-gradient-69);}.cls-70{fill:url(#linear-gradient-70);}.cls-71{fill:url(#linear-gradient-71);}.cls-72{fill:url(#linear-gradient-72);}.cls-73{fill:url(#linear-gradient-73);}.cls-74{fill:url(#linear-gradient-74);}.cls-75{fill:url(#linear-gradient-75);}.cls-76{fill:url(#linear-gradient-76);}.cls-77{fill:url(#linear-gradient-77);}.cls-78{fill:url(#linear-gradient-78);}.cls-79{fill:url(#linear-gradient-79);}.cls-80{fill:url(#linear-gradient-80);}.cls-81{fill:url(#linear-gradient-81);}.cls-82{fill:url(#linear-gradient-82);}.cls-83{fill:url(#linear-gradient-83);}.cls-84{fill:url(#linear-gradient-84);}.cls-85{fill:url(#linear-gradient-85);}.cls-86{fill:url(#linear-gradient-86);}.cls-87{fill:url(#linear-gradient-87);}.cls-88{fill:url(#linear-gradient-88);}.cls-89{fill:url(#linear-gradient-89);}.cls-90{fill:url(#linear-gradient-90);}.cls-91{fill:url(#linear-gradient-91);}.cls-92{fill:url(#linear-gradient-92);}.cls-93{fill:url(#linear-gradient-93);}.cls-94{fill:url(#linear-gradient-94);}.cls-95{fill:url(#linear-gradient-95);}.cls-96{fill:url(#linear-gradient-96);}.cls-97{fill:url(#linear-gradient-97);}.cls-98{fill:url(#linear-gradient-98);}.cls-99{fill:url(#linear-gradient-99);}.cls-100{fill:url(#linear-gradient-100);}.cls-101{fill:url(#linear-gradient-101);}.cls-102{fill:url(#linear-gradient-102);}</style><linearGradient id="linear-gradient" x1="17.12" y1="78.94" x2="48.88" y2="78.94" gradientUnits="userSpaceOnUse"><stop offset="0.12" stop-color="#fd80d7"/><stop offset="0.98" stop-color="#ff5c55"/></linearGradient><linearGradient id="linear-gradient-2" x1="17.29" y1="78.95" x2="49.04" y2="78.95" xlink:href="#linear-gradient"/><linearGradient id="linear-gradient-3" x1="17.76" y1="78.95" x2="49.5" y2="78.95" xlink:href="#linear-gradient"/><linearGradient id="linear-gradient-4" x1="18.49" y1="78.95" x2="50.23" y2="78.95" xlink:href="#linear-gradient"/><linearGradient id="linear-gradient-5" x1="19.46" y1="78.95" x2="51.19" y2="78.95" xlink:href="#linear-gradient"/><linearGradient id="linear-gradient-6" x1="20.63" y1="78.96" x2="52.34" y2="78.96" xlink:href="#linear-gradient"/><linearGradient id="linear-gradient-7" x1="21.95" y1="78.96" x2="53.66" y2="78.96" xlink:href="#linear-gradient"/><linearGradient id="linear-gradient-8" x1="23.4" y1="78.97" x2="55.1" y2="78.97" xlink:href="#linear-gradient"/><linearGradient id="linear-gradient-9" x1="24.93" y1="78.97" x2="56.62" y2="78.97" xlink:href="#linear-gradient"/><linearGradient id="linear-gradient-10" x1="26.52" y1="78.98" x2="58.2" y2="78.98" xlink:href="#linear-gradient"/><linearGradient id="linear-gradient-11" x1="28.12" y1="78.98" x2="59.79" y2="78.98" xlink:href="#linear-gradient"/><linearGradient id="linear-gradient-12" x1="29.7" y1="78.99" x2="61.37" y2="78.99" xlink:href="#linear-gradient"/><linearGradient id="linear-gradient-13" x1="31.23" y1="78.99" x2="62.89" y2="78.99" xlink:href="#linear-gradient"/><linearGradient id="linear-gradient-14" x1="32.67" y1="78.99" x2="64.31" y2="78.99" xlink:href="#linear-gradient"/><linearGradient id="linear-gradient-15" x1="33.98" y1="79" x2="65.62" y2="79" xlink:href="#linear-gradient"/><linearGradient id="linear-gradient-16" x1="35.13" y1="79" x2="66.75" y2="79" xlink:href="#linear-gradient"/><linearGradient id="linear-gradient-17" x1="36.08" y1="79" x2="67.69" y2="79" xlink:href="#linear-gradient"/><linearGradient id="linear-gradient-18" x1="37.22" y1="79" x2="68.83" y2="79" xlink:href="#linear-gradient"/><linearGradient id="linear-gradient-19" x1="39.09" y1="78.93" x2="70.69" y2="78.93" xlink:href="#linear-gradient"/><linearGradient id="linear-gradient-20" x1="40.79" y1="78.77" x2="72.38" y2="78.77" xlink:href="#linear-gradient"/><linearGradient id="linear-gradient-21" x1="42.31" y1="78.54" x2="73.89" y2="78.54" xlink:href="#linear-gradient"/><linearGradient id="linear-gradient-22" x1="43.67" y1="78.23" x2="75.25" y2="78.23" xlink:href="#linear-gradient"/><linearGradient id="linear-gradient-23" x1="44.88" y1="77.85" x2="76.44" y2="77.85" xlink:href="#linear-gradient"/><linearGradient id="linear-gradient-24" x1="45.93" y1="77.4" x2="77.48" y2="77.4" xlink:href="#linear-gradient"/><linearGradient id="linear-gradient-25" x1="46.84" y1="76.88" x2="78.38" y2="76.88" xlink:href="#linear-gradient"/><linearGradient id="linear-gradient-26" x1="47.6" y1="76.3" x2="79.14" y2="76.3" xlink:href="#linear-gradient"/><linearGradient id="linear-gradient-27" x1="48.23" y1="75.67" x2="79.76" y2="75.67" xlink:href="#linear-gradient"/><linearGradient id="linear-gradient-28" x1="48.74" y1="74.97" x2="80.26" y2="74.97" xlink:href="#linear-gradient"/><linearGradient id="linear-gradient-29" x1="49.12" y1="74.23" x2="80.63" y2="74.23" xlink:href="#linear-gradient"/><linearGradient id="linear-gradient-30" x1="49.38" y1="73.44" x2="80.88" y2="73.44" xlink:href="#linear-gradient"/><linearGradient id="linear-gradient-31" x1="49.53" y1="72.6" x2="81.02" y2="72.6" xlink:href="#linear-gradient"/><linearGradient id="linear-gradient-32" x1="49.58" y1="71.72" x2="81.06" y2="71.72" xlink:href="#linear-gradient"/><linearGradient id="linear-gradient-33" x1="49.52" y1="70.8" x2="81" y2="70.8" xlink:href="#linear-gradient"/><linearGradient id="linear-gradient-34" x1="49.38" y1="69.85" x2="80.84" y2="69.85" xlink:href="#linear-gradient"/><linearGradient id="linear-gradient-35" x1="49.14" y1="68.86" x2="80.59" y2="68.86" xlink:href="#linear-gradient"/><linearGradient id="linear-gradient-36" x1="48.82" y1="67.85" x2="80.27" y2="67.85" xlink:href="#linear-gradient"/><linearGradient id="linear-gradient-37" x1="48.42" y1="66.81" x2="79.86" y2="66.81" xlink:href="#linear-gradient"/><linearGradient id="linear-gradient-38" x1="47.96" y1="65.76" x2="79.38" y2="65.76" xlink:href="#linear-gradient"/><linearGradient id="linear-gradient-39" x1="47.42" y1="64.68" x2="78.84" y2="64.68" xlink:href="#linear-gradient"/><linearGradient id="linear-gradient-40" x1="46.83" y1="63.59" x2="78.24" y2="63.59" xlink:href="#linear-gradient"/><linearGradient id="linear-gradient-41" x1="46.18" y1="62.49" x2="77.58" y2="62.49" xlink:href="#linear-gradient"/><linearGradient id="linear-gradient-42" x1="45.49" y1="61.39" x2="76.88" y2="61.39" xlink:href="#linear-gradient"/><linearGradient id="linear-gradient-43" x1="44.75" y1="60.28" x2="76.13" y2="60.28" xlink:href="#linear-gradient"/><linearGradient id="linear-gradient-44" x1="43.98" y1="59.17" x2="75.35" y2="59.17" xlink:href="#linear-gradient"/><linearGradient id="linear-gradient-45" x1="43.17" y1="58.06" x2="74.54" y2="58.06" xlink:href="#linear-gradient"/><linearGradient id="linear-gradient-46" x1="42.34" y1="56.96" x2="73.7" y2="56.96" xlink:href="#linear-gradient"/><linearGradient id="linear-gradient-47" x1="41.49" y1="55.87" x2="72.84" y2="55.87" xlink:href="#linear-gradient"/><linearGradient id="linear-gradient-48" x1="40.63" y1="54.79" x2="71.97" y2="54.79" xlink:href="#linear-gradient"/><linearGradient id="linear-gradient-49" x1="39.76" y1="53.73" x2="71.09" y2="53.73" xlink:href="#linear-gradient"/><linearGradient id="linear-gradient-50" x1="38.89" y1="52.69" x2="70.2" y2="52.69" xlink:href="#linear-gradient"/><linearGradient id="linear-gradient-51" x1="38.02" y1="51.67" x2="69.33" y2="51.67" xlink:href="#linear-gradient"/><linearGradient id="linear-gradient-52" x1="37.16" y1="50.69" x2="68.46" y2="50.69" xlink:href="#linear-gradient"/><linearGradient id="linear-gradient-53" x1="36.31" y1="49.73" x2="67.6" y2="49.73" xlink:href="#linear-gradient"/><linearGradient id="linear-gradient-54" x1="35.49" y1="48.8" x2="66.77" y2="48.8" xlink:href="#linear-gradient"/><linearGradient id="linear-gradient-55" x1="34.69" y1="47.92" x2="65.96" y2="47.92" xlink:href="#linear-gradient"/><linearGradient id="linear-gradient-56" x1="33.92" y1="47.07" x2="65.19" y2="47.07" xlink:href="#linear-gradient"/><linearGradient id="linear-gradient-57" x1="33.19" y1="46.27" x2="64.45" y2="46.27" xlink:href="#linear-gradient"/><linearGradient id="linear-gradient-58" x1="32.51" y1="45.52" x2="63.76" y2="45.52" xlink:href="#linear-gradient"/><linearGradient id="linear-gradient-59" x1="31.88" y1="44.82" x2="63.11" y2="44.82" xlink:href="#linear-gradient"/><linearGradient id="linear-gradient-60" x1="31.3" y1="44.17" x2="62.52" y2="44.17" xlink:href="#linear-gradient"/><linearGradient id="linear-gradient-61" x1="30.78" y1="43.58" x2="62" y2="43.58" xlink:href="#linear-gradient"/><linearGradient id="linear-gradient-62" x1="30.33" y1="43.05" x2="61.54" y2="43.05" xlink:href="#linear-gradient"/><linearGradient id="linear-gradient-63" x1="29.53" y1="42.08" x2="60.73" y2="42.08" xlink:href="#linear-gradient"/><linearGradient id="linear-gradient-64" x1="28.39" y1="40.59" x2="59.58" y2="40.59" xlink:href="#linear-gradient"/><linearGradient id="linear-gradient-65" x1="27.38" y1="39.15" x2="58.56" y2="39.15" xlink:href="#linear-gradient"/><linearGradient id="linear-gradient-66" x1="26.5" y1="37.77" x2="57.67" y2="37.77" xlink:href="#linear-gradient"/><linearGradient id="linear-gradient-67" x1="25.74" y1="36.44" x2="56.91" y2="36.44" xlink:href="#linear-gradient"/><linearGradient id="linear-gradient-68" x1="25.11" y1="35.16" x2="56.26" y2="35.16" xlink:href="#linear-gradient"/><linearGradient id="linear-gradient-69" x1="24.59" y1="33.94" x2="55.74" y2="33.94" xlink:href="#linear-gradient"/><linearGradient id="linear-gradient-70" x1="24.2" y1="32.77" x2="55.33" y2="32.77" xlink:href="#linear-gradient"/><linearGradient id="linear-gradient-71" x1="23.91" y1="31.65" x2="55.04" y2="31.65" xlink:href="#linear-gradient"/><linearGradient id="linear-gradient-72" x1="23.73" y1="30.59" x2="54.85" y2="30.59" xlink:href="#linear-gradient"/><linearGradient id="linear-gradient-73" x1="23.65" y1="29.57" x2="54.76" y2="29.57" xlink:href="#linear-gradient"/><linearGradient id="linear-gradient-74" x1="23.68" y1="28.61" x2="54.78" y2="28.61" xlink:href="#linear-gradient"/><linearGradient id="linear-gradient-75" x1="23.8" y1="27.69" x2="54.9" y2="27.69" xlink:href="#linear-gradient"/><linearGradient id="linear-gradient-76" x1="24.02" y1="26.82" x2="55.1" y2="26.82" xlink:href="#linear-gradient"/><linearGradient id="linear-gradient-77" x1="24.33" y1="26.01" x2="55.4" y2="26.01" xlink:href="#linear-gradient"/><linearGradient id="linear-gradient-78" x1="24.72" y1="25.24" x2="55.79" y2="25.24" xlink:href="#linear-gradient"/><linearGradient id="linear-gradient-79" x1="25.2" y1="24.52" x2="56.25" y2="24.52" xlink:href="#linear-gradient"/><linearGradient id="linear-gradient-80" x1="25.76" y1="23.85" x2="56.8" y2="23.85" xlink:href="#linear-gradient"/><linearGradient id="linear-gradient-81" x1="26.39" y1="23.22" x2="57.42" y2="23.22" xlink:href="#linear-gradient"/><linearGradient id="linear-gradient-82" x1="27.09" y1="22.64" x2="58.12" y2="22.64" xlink:href="#linear-gradient"/><linearGradient id="linear-gradient-83" x1="27.87" y1="22.11" x2="58.88" y2="22.11" xlink:href="#linear-gradient"/><linearGradient id="linear-gradient-84" x1="28.7" y1="21.62" x2="59.71" y2="21.62" xlink:href="#linear-gradient"/><linearGradient id="linear-gradient-85" x1="29.6" y1="21.18" x2="60.6" y2="21.18" xlink:href="#linear-gradient"/><linearGradient id="linear-gradient-86" x1="30.56" y1="20.78" x2="61.55" y2="20.78" xlink:href="#linear-gradient"/><linearGradient id="linear-gradient-87" x1="31.58" y1="20.43" x2="62.56" y2="20.43" xlink:href="#linear-gradient"/><linearGradient id="linear-gradient-88" x1="32.64" y1="20.12" x2="63.61" y2="20.12" xlink:href="#linear-gradient"/><linearGradient id="linear-gradient-89" x1="33.75" y1="19.85" x2="64.71" y2="19.85" xlink:href="#linear-gradient"/><linearGradient id="linear-gradient-90" x1="34.91" y1="19.63" x2="65.86" y2="19.63" xlink:href="#linear-gradient"/><linearGradient id="linear-gradient-91" x1="36.1" y1="19.45" x2="67.05" y2="19.45" xlink:href="#linear-gradient"/><linearGradient id="linear-gradient-92" x1="37.33" y1="19.31" x2="68.27" y2="19.31" xlink:href="#linear-gradient"/><linearGradient id="linear-gradient-93" x1="38.6" y1="19.21" x2="69.53" y2="19.21" xlink:href="#linear-gradient"/><linearGradient id="linear-gradient-94" x1="39.89" y1="19.15" x2="70.81" y2="19.15" xlink:href="#linear-gradient"/><linearGradient id="linear-gradient-95" x1="41.22" y1="19.13" x2="72.13" y2="19.13" xlink:href="#linear-gradient"/><linearGradient id="linear-gradient-96" x1="42.76" y1="19.15" x2="73.66" y2="19.15" xlink:href="#linear-gradient"/><linearGradient id="linear-gradient-97" x1="44.35" y1="19.19" x2="75.24" y2="19.19" xlink:href="#linear-gradient"/><linearGradient id="linear-gradient-98" x1="45.87" y1="19.24" x2="76.76" y2="19.24" xlink:href="#linear-gradient"/><linearGradient id="linear-gradient-99" x1="47.24" y1="19.3" x2="78.12" y2="19.3" xlink:href="#linear-gradient"/><linearGradient id="linear-gradient-100" x1="48.35" y1="19.35" x2="79.22" y2="19.35" xlink:href="#linear-gradient"/><linearGradient id="linear-gradient-101" x1="49.09" y1="19.39" x2="79.95" y2="19.39" xlink:href="#linear-gradient"/><linearGradient id="linear-gradient-102" x1="49.37" y1="19.41" x2="80.21" y2="19.41" xlink:href="#linear-gradient"/></defs><title>s</title><circle class="cls-1" cx="33" cy="78.94" r="15.88"/><circle class="cls-2" cx="33.16" cy="78.95" r="15.88"/><circle class="cls-3" cx="33.63" cy="78.95" r="15.87"/><circle class="cls-4" cx="34.36" cy="78.95" r="15.87"/><circle class="cls-5" cx="35.33" cy="78.95" r="15.86"/><circle class="cls-6" cx="36.48" cy="78.96" r="15.86"/><circle class="cls-7" cx="37.8" cy="78.96" r="15.85"/><circle class="cls-8" cx="39.25" cy="78.97" r="15.85"/><circle class="cls-9" cx="40.78" cy="78.97" r="15.85"/><circle class="cls-10" cx="42.36" cy="78.98" r="15.84"/><circle class="cls-11" cx="43.96" cy="78.98" r="15.84"/><circle class="cls-12" cx="45.54" cy="78.99" r="15.83"/><circle class="cls-13" cx="47.06" cy="78.99" r="15.83"/><circle class="cls-14" cx="48.49" cy="78.99" r="15.82"/><circle class="cls-15" cx="49.8" cy="79" r="15.82"/><circle class="cls-16" cx="50.94" cy="79" r="15.81"/><circle class="cls-17" cx="51.88" cy="79" r="15.81"/><circle class="cls-18" cx="53.03" cy="79" r="15.8"/><circle class="cls-19" cx="54.89" cy="78.93" r="15.8"/><circle class="cls-20" cx="56.58" cy="78.77" r="15.8"/><circle class="cls-21" cx="58.1" cy="78.54" r="15.79"/><circle class="cls-22" cx="59.46" cy="78.23" r="15.79"/><circle class="cls-23" cx="60.66" cy="77.85" r="15.78"/><circle class="cls-24" cx="61.71" cy="77.4" r="15.78"/><circle class="cls-25" cx="62.61" cy="76.88" r="15.77"/><circle class="cls-26" cx="63.37" cy="76.3" r="15.77"/><circle class="cls-27" cx="64" cy="75.67" r="15.76"/><circle class="cls-28" cx="64.5" cy="74.97" r="15.76"/><circle class="cls-29" cx="64.87" cy="74.23" r="15.75"/><circle class="cls-30" cx="65.13" cy="73.44" r="15.75"/><circle class="cls-31" cx="65.28" cy="72.6" r="15.75"/><circle class="cls-32" cx="65.32" cy="71.72" r="15.74"/><circle class="cls-33" cx="65.26" cy="70.8" r="15.74"/><circle class="cls-34" cx="65.11" cy="69.85" r="15.73"/><circle class="cls-35" cx="64.87" cy="68.86" r="15.73"/><circle class="cls-36" cx="64.54" cy="67.85" r="15.72"/><circle class="cls-37" cx="64.14" cy="66.81" r="15.72"/><circle class="cls-38" cx="63.67" cy="65.76" r="15.71"/><circle class="cls-39" cx="63.13" cy="64.68" r="15.71"/><circle class="cls-40" cx="62.54" cy="63.59" r="15.7"/><circle class="cls-41" cx="61.88" cy="62.49" r="15.7"/><circle class="cls-42" cx="61.18" cy="61.39" r="15.7"/><circle class="cls-43" cx="60.44" cy="60.28" r="15.69"/><circle class="cls-44" cx="59.66" cy="59.17" r="15.69"/><circle class="cls-45" cx="58.86" cy="58.06" r="15.68"/><circle class="cls-46" cx="58.02" cy="56.96" r="15.68"/><circle class="cls-47" cx="57.17" cy="55.87" r="15.67"/><circle class="cls-48" cx="56.3" cy="54.79" r="15.67"/><circle class="cls-49" cx="55.42" cy="53.73" r="15.66"/><circle class="cls-50" cx="54.54" cy="52.69" r="15.66"/><circle class="cls-51" cx="53.67" cy="51.67" r="15.65"/><circle class="cls-52" cx="52.81" cy="50.69" r="15.65"/><circle class="cls-53" cx="51.96" cy="49.73" r="15.65"/><circle class="cls-54" cx="51.13" cy="48.8" r="15.64"/><circle class="cls-55" cx="50.32" cy="47.92" r="15.64"/><circle class="cls-56" cx="49.55" cy="47.07" r="15.63"/><circle class="cls-57" cx="48.82" cy="46.27" r="15.63"/><circle class="cls-58" cx="48.13" cy="45.52" r="15.62"/><circle class="cls-59" cx="47.49" cy="44.82" r="15.62"/><circle class="cls-60" cx="46.91" cy="44.17" r="15.61"/><circle class="cls-61" cx="46.39" cy="43.58" r="15.61"/><circle class="cls-62" cx="45.93" cy="43.05" r="15.6"/><circle class="cls-63" cx="45.13" cy="42.08" r="15.6"/><circle class="cls-64" cx="43.98" cy="40.59" r="15.6"/><circle class="cls-65" cx="42.97" cy="39.15" r="15.59"/><circle class="cls-66" cx="42.08" cy="37.77" r="15.59"/><circle class="cls-67" cx="41.32" cy="36.44" r="15.58"/><circle class="cls-68" cx="40.69" cy="35.16" r="15.58"/><circle class="cls-69" cx="40.17" cy="33.94" r="15.57"/><circle class="cls-70" cx="39.76" cy="32.77" r="15.57"/><circle class="cls-71" cx="39.47" cy="31.65" r="15.56"/><circle class="cls-72" cx="39.29" cy="30.59" r="15.56"/><circle class="cls-73" cx="39.21" cy="29.57" r="15.55"/><circle class="cls-74" cx="39.23" cy="28.61" r="15.55"/><circle class="cls-75" cx="39.35" cy="27.69" r="15.55"/><circle class="cls-76" cx="39.56" cy="26.82" r="15.54"/><circle class="cls-77" cx="39.86" cy="26.01" r="15.54"/><circle class="cls-78" cx="40.25" cy="25.24" r="15.53"/><circle class="cls-79" cx="40.73" cy="24.52" r="15.53"/><circle class="cls-80" cx="41.28" cy="23.85" r="15.52"/><circle class="cls-81" cx="41.91" cy="23.22" r="15.52"/><circle class="cls-82" cx="42.61" cy="22.64" r="15.51"/><circle class="cls-83" cx="43.37" cy="22.11" r="15.51"/><circle class="cls-84" cx="44.21" cy="21.62" r="15.5"/><circle class="cls-85" cx="45.1" cy="21.18" r="15.5"/><circle class="cls-86" cx="46.06" cy="20.78" r="15.5"/><circle class="cls-87" cx="47.07" cy="20.43" r="15.49"/><circle class="cls-88" cx="48.13" cy="20.12" r="15.49"/><circle class="cls-89" cx="49.23" cy="19.85" r="15.48"/><circle class="cls-90" cx="50.38" cy="19.63" r="15.48"/><circle class="cls-91" cx="51.57" cy="19.45" r="15.47"/><circle class="cls-92" cx="52.8" cy="19.31" r="15.47"/><circle class="cls-93" cx="54.06" cy="19.21" r="15.46"/><circle class="cls-94" cx="55.35" cy="19.15" r="15.46"/><circle class="cls-95" cx="56.68" cy="19.13" r="15.45"/><circle class="cls-96" cx="58.21" cy="19.15" r="15.45"/><circle class="cls-97" cx="59.79" cy="19.19" r="15.45"/><circle class="cls-98" cx="61.32" cy="19.24" r="15.44"/><circle class="cls-99" cx="62.68" cy="19.3" r="15.44"/><circle class="cls-100" cx="63.78" cy="19.35" r="15.43"/><circle class="cls-101" cx="64.52" cy="19.39" r="15.43"/><circle class="cls-102" cx="64.79" cy="19.41" r="15.42"/></svg>