<svg id="Layer_1" data-name="Layer 1" xmlns="http://www.w3.org/2000/svg" xmlns:xlink="http://www.w3.org/1999/xlink" viewBox="0 0 101 99"><defs><style>.cls-1{fill:url(#linear-gradient);}.cls-2{fill:url(#linear-gradient-2);}.cls-3{fill:url(#linear-gradient-3);}.cls-4{fill:url(#linear-gradient-4);}.cls-5{fill:url(#linear-gradient-5);}.cls-6{fill:url(#linear-gradient-6);}.cls-7{fill:url(#linear-gradient-7);}.cls-8{fill:url(#linear-gradient-8);}.cls-9{fill:url(#linear-gradient-9);}.cls-10{fill:url(#linear-gradient-10);}.cls-11{fill:url(#linear-gradient-11);}.cls-12{fill:url(#linear-gradient-12);}.cls-13{fill:url(#linear-gradient-13);}.cls-14{fill:url(#linear-gradient-14);}.cls-15{fill:url(#linear-gradient-15);}.cls-16{fill:url(#linear-gradient-16);}.cls-17{fill:url(#linear-gradient-17);}.cls-18{fill:url(#linear-gradient-18);}.cls-19{fill:url(#linear-gradient-19);}.cls-20{fill:url(#linear-gradient-20);}.cls-21{fill:url(#linear-gradient-21);}.cls-22{fill:url(#linear-gradient-22);}.cls-23{fill:url(#linear-gradient-23);}.cls-24{fill:url(#linear-gradient-24);}.cls-25{fill:url(#linear-gradient-25);}.cls-26{fill:url(#linear-gradient-26);}.cls-27{fill:url(#linear-gradient-27);}.cls-28{fill:url(#linear-gradient-28);}.cls-29{fill:url(#linear-gradient-29);}.cls-30{fill:url(#linear-gradient-30);}.cls-31{fill:url(#linear-gradient-31);}.cls-32{fill:url(#linear-gradient-32);}.cls-33{fill:url(#linear-gradient-33);}.cls-34{fill:url(#linear-gradient-34);}.cls-35{fill:url(#linear-gradient-35);}.cls-36{fill:url(#linear-gradient-36);}.cls-37{fill:url(#linear-gradient-37);}.cls-38{fill:url(#linear-gradient-38);}.cls-39{fill:url(#linear-gradient-39);}.cls-40{fill:url(#linear-gradient-40);}.cls-41{fill:url(#linear-gradient-41);}.cls-42{fill:url(#linear-gradient-42);}.cls-43{fill:url(#linear-gradient-43);}.cls-44{fill:url(#linear-gradient-44);}.cls-45{fill:url(#linear-gradient-45);}.cls-46{fill:url(#linear-gradient-46);}.cls-47{fill:url(#linear-gradient-47);}.cls-48{fill:url(#linear-gradient-48);}.cls-49{fill:url(#linear-gradient-49);}.cls-50{fill:url(#linear-gradient-50);}.cls-51{fill:url(#linear-gradient-51);}.cls-52{fill:url(#linear-gradient-52);}.cls-53{fill:url(#linear-gradient-53);}.cls-54{fill:url(#linear-gradient-54);}.cls-55{fill:url(#linear-gradient-55);}.cls-56{fill:url(#linear-gradient-56);}.cls-57{fill:url(#linear-gradient-57);}.cls-58{fill:url(#linear-gradient-58);}.cls-59{fill:url(#linear-gradient-59);}.cls-60{fill:url(#linear-gradient-60);}.cls-61{fill:url(#linear-gradient-61);}.cls-62{fill:url(#linear-gradient-62);}.cls-63{fill:url(#linear-gradient-63);}.cls-64{fill:url(#linear-gradient-64);}.cls-65{fill:url(#linear-gradient-65);}.cls-66{fill:url(#linear-gradient-66);}.cls-67{fill:url(#linear-gradient-67);}.cls-68{fill:url(#linear-gradient-68);}.cls-69{fill:url(#linear-gradient-69);}.cls-70{fill:url(#linear-gradient-70);}.cls-71{fill:url(#linear-gradient-71);}.cls-72{fill:url(#linear-gradient-72);}.cls-73{fill:url(#linear-gradient-73);}.cls-74{fill:url(#linear-gradient-74);}.cls-75{fill:url(#linear-gradient-75);}.cls-76{fill:url(#linear-gradient-76);}.cls-77{fill:url(#linear-gradient-77);}.cls-78{fill:url(#linear-gradient-78);}.cls-79{fill:url(#linear-gradient-79);}.cls-80{fill:url(#linear-gradient-80);}.cls-81{fill:url(#linear-gradient-81);}.cls-82{fill:url(#linear-gradient-82);}.cls-83{fill:url(#linear-gradient-83);}.cls-84{fill:url(#linear-gradient-84);}.cls-85{fill:url(#linear-gradient-85);}.cls-86{fill:url(#linear-gradient-86);}.cls-87{fill:url(#linear-gradient-87);}.cls-88{fill:url(#linear-gradient-88);}.cls-89{fill:url(#linear-gradient-89);}.cls-90{fill:url(#linear-gradient-90);}.cls-91{fill:url(#linear-gradient-91);}.cls-92{fill:url(#linear-gradient-92);}.cls-93{fill:url(#linear-gradient-93);}.cls-94{fill:url(#linear-gradient-94);}.cls-95{fill:url(#linear-gradient-95);}.cls-96{fill:url(#linear-gradient-96);}.cls-97{fill:url(#linear-gradient-97);}.cls-98{fill:url(#linear-gradient-98);}.cls-99{fill:url(#linear-gradient-99);}.cls-100{fill:url(#linear-gradient-100);}.cls-101{fill:url(#linear-gradient-101);}.cls-102{fill:url(#linear-gradient-102);}</style><linearGradient id="linear-gradient" x1="35.82" y1="81.36" x2="64.58" y2="81.36" gradientUnits="userSpaceOnUse"><stop offset="0.12" stop-color="#fd80d7"/><stop offset="0.98" stop-color="#ff5c55"/></linearGradient><linearGradient id="linear-gradient-2" x1="35.82" y1="80.73" x2="64.58" y2="80.73" xlink:href="#linear-gradient"/><linearGradient id="linear-gradient-3" x1="35.82" y1="80.1" x2="64.58" y2="80.1" xlink:href="#linear-gradient"/><linearGradient id="linear-gradient-4" x1="35.82" y1="79.46" x2="64.58" y2="79.46" xlink:href="#linear-gradient"/><linearGradient id="linear-gradient-5" x1="35.82" y1="78.83" x2="64.59" y2="78.83" xlink:href="#linear-gradient"/><linearGradient id="linear-gradient-6" x1="35.82" y1="78.2" x2="64.59" y2="78.2" xlink:href="#linear-gradient"/><linearGradient id="linear-gradient-7" x1="35.82" y1="77.56" x2="64.59" y2="77.56" xlink:href="#linear-gradient"/><linearGradient id="linear-gradient-8" x1="35.83" y1="76.93" x2="64.59" y2="76.93" xlink:href="#linear-gradient"/><linearGradient id="linear-gradient-9" x1="35.83" y1="76.3" x2="64.59" y2="76.3" xlink:href="#linear-gradient"/><linearGradient id="linear-gradient-10" x1="35.83" y1="75.66" x2="64.59" y2="75.66" xlink:href="#linear-gradient"/><linearGradient id="linear-gradient-11" x1="35.83" y1="75.03" x2="64.59" y2="75.03" xlink:href="#linear-gradient"/><linearGradient id="linear-gradient-12" x1="35.83" y1="74.4" x2="64.59" y2="74.4" xlink:href="#linear-gradient"/><linearGradient id="linear-gradient-13" x1="35.83" y1="73.76" x2="64.6" y2="73.76" xlink:href="#linear-gradient"/><linearGradient id="linear-gradient-14" x1="35.83" y1="73.13" x2="64.6" y2="73.13" xlink:href="#linear-gradient"/><linearGradient id="linear-gradient-15" x1="35.83" y1="72.5" x2="64.6" y2="72.5" xlink:href="#linear-gradient"/><linearGradient id="linear-gradient-16" x1="35.84" y1="71.86" x2="64.6" y2="71.86" xlink:href="#linear-gradient"/><linearGradient id="linear-gradient-17" x1="35.84" y1="71.23" x2="64.6" y2="71.23" xlink:href="#linear-gradient"/><linearGradient id="linear-gradient-18" x1="35.84" y1="70.6" x2="64.6" y2="70.6" xlink:href="#linear-gradient"/><linearGradient id="linear-gradient-19" x1="35.84" y1="69.96" x2="64.6" y2="69.96" xlink:href="#linear-gradient"/><linearGradient id="linear-gradient-20" x1="35.84" y1="69.33" x2="64.6" y2="69.33" xlink:href="#linear-gradient"/><linearGradient id="linear-gradient-21" x1="35.84" y1="68.7" x2="64.61" y2="68.7" xlink:href="#linear-gradient"/><linearGradient id="linear-gradient-22" x1="35.84" y1="68.06" x2="64.61" y2="68.06" xlink:href="#linear-gradient"/><linearGradient id="linear-gradient-23" x1="35.84" y1="67.43" x2="64.61" y2="67.43" xlink:href="#linear-gradient"/><linearGradient id="linear-gradient-24" x1="35.85" y1="66.8" x2="64.61" y2="66.8" xlink:href="#linear-gradient"/><linearGradient id="linear-gradient-25" x1="35.85" y1="66.16" x2="64.61" y2="66.16" xlink:href="#linear-gradient"/><linearGradient id="linear-gradient-26" x1="35.85" y1="65.53" x2="64.61" y2="65.53" xlink:href="#linear-gradient"/><linearGradient id="linear-gradient-27" x1="35.85" y1="64.89" x2="64.61" y2="64.89" xlink:href="#linear-gradient"/><linearGradient id="linear-gradient-28" x1="35.85" y1="64.26" x2="64.61" y2="64.26" xlink:href="#linear-gradient"/><linearGradient id="linear-gradient-29" x1="35.85" y1="63.63" x2="64.62" y2="63.63" xlink:href="#linear-gradient"/><linearGradient id="linear-gradient-30" x1="35.85" y1="62.99" x2="64.62" y2="62.99" xlink:href="#linear-gradient"/><linearGradient id="linear-gradient-31" x1="35.85" y1="62.36" x2="64.62" y2="62.36" xlink:href="#linear-gradient"/><linearGradient id="linear-gradient-32" x1="35.86" y1="61.73" x2="64.62" y2="61.73" xlink:href="#linear-gradient"/><linearGradient id="linear-gradient-33" x1="35.86" y1="61.09" x2="64.62" y2="61.09" xlink:href="#linear-gradient"/><linearGradient id="linear-gradient-34" x1="35.86" y1="60.46" x2="64.62" y2="60.46" xlink:href="#linear-gradient"/><linearGradient id="linear-gradient-35" x1="35.86" y1="59.83" x2="64.62" y2="59.83" xlink:href="#linear-gradient"/><linearGradient id="linear-gradient-36" x1="35.86" y1="59.19" x2="64.62" y2="59.19" xlink:href="#linear-gradient"/><linearGradient id="linear-gradient-37" x1="35.86" y1="58.56" x2="64.63" y2="58.56" xlink:href="#linear-gradient"/><linearGradient id="linear-gradient-38" x1="35.86" y1="57.93" x2="64.63" y2="57.93" xlink:href="#linear-gradient"/><linearGradient id="linear-gradient-39" x1="35.86" y1="57.29" x2="64.63" y2="57.29" xlink:href="#linear-gradient"/><linearGradient id="linear-gradient-40" x1="35.87" y1="56.66" x2="64.63" y2="56.66" xlink:href="#linear-gradient"/><linearGradient id="linear-gradient-41" x1="35.87" y1="56.03" x2="64.63" y2="56.03" xlink:href="#linear-gradient"/><linearGradient id="linear-gradient-42" x1="35.87" y1="55.39" x2="64.63" y2="55.39" xlink:href="#linear-gradient"/><linearGradient id="linear-gradient-43" x1="35.87" y1="54.76" x2="64.63" y2="54.76" xlink:href="#linear-gradient"/><linearGradient id="linear-gradient-44" x1="35.87" y1="54.13" x2="64.63" y2="54.13" xlink:href="#linear-gradient"/><linearGradient id="linear-gradient-45" x1="35.87" y1="53.49" x2="64.64" y2="53.49" xlink:href="#linear-gradient"/><linearGradient id="linear-gradient-46" x1="35.87" y1="52.86" x2="64.64" y2="52.86" xlink:href="#linear-gradient"/><linearGradient id="linear-gradient-47" x1="35.87" y1="52.23" x2="64.64" y2="52.23" xlink:href="#linear-gradient"/><linearGradient id="linear-gradient-48" x1="35.88" y1="51.59" x2="64.64" y2="51.59" xlink:href="#linear-gradient"/><linearGradient id="linear-gradient-49" x1="35.88" y1="50.96" x2="64.64" y2="50.96" xlink:href="#linear-gradient"/><linearGradient id="linear-gradient-50" x1="35.88" y1="50.33" x2="64.64" y2="50.33" xlink:href="#linear-gradient"/><linearGradient id="linear-gradient-51" x1="35.88" y1="49.69" x2="64.64" y2="49.69" xlink:href="#linear-gradient"/><linearGradient id="linear-gradient-52" x1="35.88" y1="49.06" x2="64.64" y2="49.06" xlink:href="#linear-gradient"/><linearGradient id="linear-gradient-53" x1="35.88" y1="48.43" x2="64.65" y2="48.43" xlink:href="#linear-gradient"/><linearGradient id="linear-gradient-54" x1="35.88" y1="47.79" x2="64.65" y2="47.79" xlink:href="#linear-gradient"/><linearGradient id="linear-gradient-55" x1="35.89" y1="47.16" x2="64.65" y2="47.16" xlink:href="#linear-gradient"/><linearGradient id="linear-gradient-56" x1="35.89" y1="46.52" x2="64.65" y2="46.52" xlink:href="#linear-gradient"/><linearGradient id="linear-gradient-57" x1="35.89" y1="45.89" x2="64.65" y2="45.89" xlink:href="#linear-gradient"/><linearGradient id="linear-gradient-58" x1="35.89" y1="45.26" x2="64.65" y2="45.26" xlink:href="#linear-gradient"/><linearGradient id="linear-gradient-59" x1="35.89" y1="44.62" x2="64.65" y2="44.62" xlink:href="#linear-gradient"/><linearGradient id="linear-gradient-60" x1="35.89" y1="43.99" x2="64.66" y2="43.99" xlink:href="#linear-gradient"/><linearGradient id="linear-gradient-61" x1="35.89" y1="43.36" x2="64.66" y2="43.36" xlink:href="#linear-gradient"/><linearGradient id="linear-gradient-62" x1="35.89" y1="42.72" x2="64.66" y2="42.72" xlink:href="#linear-gradient"/><linearGradient id="linear-gradient-63" x1="35.9" y1="42.09" x2="64.66" y2="42.09" xlink:href="#linear-gradient"/><linearGradient id="linear-gradient-64" x1="35.9" y1="41.46" x2="64.66" y2="41.46" xlink:href="#linear-gradient"/><linearGradient id="linear-gradient-65" x1="35.9" y1="40.82" x2="64.66" y2="40.82" xlink:href="#linear-gradient"/><linearGradient id="linear-gradient-66" x1="35.9" y1="40.19" x2="64.66" y2="40.19" xlink:href="#linear-gradient"/><linearGradient id="linear-gradient-67" x1="35.9" y1="39.56" x2="64.66" y2="39.56" xlink:href="#linear-gradient"/><linearGradient id="linear-gradient-68" x1="35.9" y1="38.92" x2="64.67" y2="38.92" xlink:href="#linear-gradient"/><linearGradient id="linear-gradient-69" x1="35.9" y1="38.29" x2="64.67" y2="38.29" xlink:href="#linear-gradient"/><linearGradient id="linear-gradient-70" x1="35.9" y1="37.66" x2="64.67" y2="37.66" xlink:href="#linear-gradient"/><linearGradient id="linear-gradient-71" x1="35.91" y1="37.02" x2="64.67" y2="37.02" xlink:href="#linear-gradient"/><linearGradient id="linear-gradient-72" x1="35.91" y1="36.39" x2="64.67" y2="36.39" xlink:href="#linear-gradient"/><linearGradient id="linear-gradient-73" x1="35.91" y1="35.76" x2="64.67" y2="35.76" xlink:href="#linear-gradient"/><linearGradient id="linear-gradient-74" x1="35.91" y1="35.12" x2="64.67" y2="35.12" xlink:href="#linear-gradient"/><linearGradient id="linear-gradient-75" x1="35.91" y1="34.49" x2="64.67" y2="34.49" xlink:href="#linear-gradient"/><linearGradient id="linear-gradient-76" x1="35.91" y1="33.86" x2="64.68" y2="33.86" xlink:href="#linear-gradient"/><linearGradient id="linear-gradient-77" x1="35.91" y1="33.22" x2="64.68" y2="33.22" xlink:href="#linear-gradient"/><linearGradient id="linear-gradient-78" x1="35.91" y1="32.59" x2="64.68" y2="32.59" xlink:href="#linear-gradient"/><linearGradient id="linear-gradient-79" x1="35.92" y1="31.96" x2="64.68" y2="31.96" xlink:href="#linear-gradient"/><linearGradient id="linear-gradient-80" x1="35.92" y1="31.32" x2="64.68" y2="31.32" xlink:href="#linear-gradient"/><linearGradient id="linear-gradient-81" x1="35.92" y1="30.69" x2="64.68" y2="30.69" xlink:href="#linear-gradient"/><linearGradient id="linear-gradient-82" x1="35.92" y1="30.06" x2="64.68" y2="30.06" xlink:href="#linear-gradient"/><linearGradient id="linear-gradient-83" x1="35.92" y1="29.42" x2="64.68" y2="29.42" xlink:href="#linear-gradient"/><linearGradient id="linear-gradient-84" x1="35.92" y1="28.79" x2="64.69" y2="28.79" xlink:href="#linear-gradient"/><linearGradient id="linear-gradient-85" x1="35.92" y1="28.16" x2="64.69" y2="28.16" xlink:href="#linear-gradient"/><linearGradient id="linear-gradient-86" x1="35.92" y1="27.52" x2="64.69" y2="27.52" xlink:href="#linear-gradient"/><linearGradient id="linear-gradient-87" x1="35.93" y1="26.89" x2="64.69" y2="26.89" xlink:href="#linear-gradient"/><linearGradient id="linear-gradient-88" x1="35.93" y1="26.25" x2="64.69" y2="26.25" xlink:href="#linear-gradient"/><linearGradient id="linear-gradient-89" x1="35.93" y1="25.62" x2="64.69" y2="25.62" xlink:href="#linear-gradient"/><linearGradient id="linear-gradient-90" x1="35.93" y1="24.99" x2="64.69" y2="24.99" xlink:href="#linear-gradient"/><linearGradient id="linear-gradient-91" x1="35.93" y1="24.35" x2="64.69" y2="24.35" xlink:href="#linear-gradient"/><linearGradient id="linear-gradient-92" x1="35.93" y1="23.72" x2="64.7" y2="23.72" xlink:href="#linear-gradient"/><linearGradient id="linear-gradient-93" x1="35.93" y1="23.09" x2="64.7" y2="23.09" xlink:href="#linear-gradient"/><linearGradient id="linear-gradient-94" x1="35.93" y1="22.45" x2="64.7" y2="22.45" xlink:href="#linear-gradient"/><linearGradient id="linear-gradient-95" x1="35.94" y1="21.82" x2="64.7" y2="21.82" xlink:href="#linear-gradient"/><linearGradient id="linear-gradient-96" x1="35.94" y1="21.19" x2="64.7" y2="21.19" xlink:href="#linear-gradient"/><linearGradient id="linear-gradient-97" x1="35.94" y1="20.55" x2="64.7" y2="20.55" xlink:href="#linear-gradient"/><linearGradient id="linear-gradient-98" x1="35.94" y1="19.92" x2="64.7" y2="19.92" xlink:href="#linear-gradient"/><linearGradient id="linear-gradient-99" x1="35.94" y1="19.29" x2="64.7" y2="19.29" xlink:href="#linear-gradient"/><linearGradient id="linear-gradient-100" x1="35.94" y1="18.65" x2="64.71" y2="18.65" xlink:href="#linear-gradient"/><linearGradient id="linear-gradient-101" x1="35.94" y1="18.02" x2="64.71" y2="18.02" xlink:href="#linear-gradient"/><linearGradient id="linear-gradient-102" x1="35.94" y1="17.39" x2="64.71" y2="17.39" xlink:href="#linear-gradient"/></defs><title>i_1</title><circle class="cls-1" cx="50.2" cy="81.36" r="14.38"/><circle class="cls-2" cx="50.2" cy="80.73" r="14.38"/><circle class="cls-3" cx="50.2" cy="80.1" r="14.38"/><circle class="cls-4" cx="50.2" cy="79.46" r="14.38"/><circle class="cls-5" cx="50.2" cy="78.83" r="14.38"/><circle class="cls-6" cx="50.2" cy="78.2" r="14.38"/><circle class="cls-7" cx="50.21" cy="77.56" r="14.38"/><circle class="cls-8" cx="50.21" cy="76.93" r="14.38"/><circle class="cls-9" cx="50.21" cy="76.3" r="14.38"/><circle class="cls-10" cx="50.21" cy="75.66" r="14.38"/><circle class="cls-11" cx="50.21" cy="75.03" r="14.38"/><circle class="cls-12" cx="50.21" cy="74.4" r="14.38"/><circle class="cls-13" cx="50.21" cy="73.76" r="14.38"/><circle class="cls-14" cx="50.21" cy="73.13" r="14.38"/><circle class="cls-15" cx="50.22" cy="72.5" r="14.38"/><circle class="cls-16" cx="50.22" cy="71.86" r="14.38"/><circle class="cls-17" cx="50.22" cy="71.23" r="14.38"/><circle class="cls-18" cx="50.22" cy="70.6" r="14.38"/><circle class="cls-19" cx="50.22" cy="69.96" r="14.38"/><circle class="cls-20" cx="50.22" cy="69.33" r="14.38"/><circle class="cls-21" cx="50.22" cy="68.7" r="14.38"/><circle class="cls-22" cx="50.23" cy="68.06" r="14.38"/><circle class="cls-23" cx="50.23" cy="67.43" r="14.38"/><circle class="cls-24" cx="50.23" cy="66.8" r="14.38"/><circle class="cls-25" cx="50.23" cy="66.16" r="14.38"/><circle class="cls-26" cx="50.23" cy="65.53" r="14.38"/><circle class="cls-27" cx="50.23" cy="64.89" r="14.38"/><circle class="cls-28" cx="50.23" cy="64.26" r="14.38"/><circle class="cls-29" cx="50.23" cy="63.63" r="14.38"/><circle class="cls-30" cx="50.24" cy="62.99" r="14.38"/><circle class="cls-31" cx="50.24" cy="62.36" r="14.38"/><circle class="cls-32" cx="50.24" cy="61.73" r="14.38"/><circle class="cls-33" cx="50.24" cy="61.09" r="14.38"/><circle class="cls-34" cx="50.24" cy="60.46" r="14.38"/><circle class="cls-35" cx="50.24" cy="59.83" r="14.38"/><circle class="cls-36" cx="50.24" cy="59.19" r="14.38"/><circle class="cls-37" cx="50.24" cy="58.56" r="14.38"/><circle class="cls-38" cx="50.25" cy="57.93" r="14.38"/><circle class="cls-39" cx="50.25" cy="57.29" r="14.38"/><circle class="cls-40" cx="50.25" cy="56.66" r="14.38"/><circle class="cls-41" cx="50.25" cy="56.03" r="14.38"/><circle class="cls-42" cx="50.25" cy="55.39" r="14.38"/><circle class="cls-43" cx="50.25" cy="54.76" r="14.38"/><circle class="cls-44" cx="50.25" cy="54.13" r="14.38"/><circle class="cls-45" cx="50.25" cy="53.49" r="14.38"/><circle class="cls-46" cx="50.26" cy="52.86" r="14.38"/><circle class="cls-47" cx="50.26" cy="52.23" r="14.38"/><circle class="cls-48" cx="50.26" cy="51.59" r="14.38"/><circle class="cls-49" cx="50.26" cy="50.96" r="14.38"/><circle class="cls-50" cx="50.26" cy="50.33" r="14.38"/><circle class="cls-51" cx="50.26" cy="49.69" r="14.38"/><circle class="cls-52" cx="50.26" cy="49.06" r="14.38"/><circle class="cls-53" cx="50.26" cy="48.43" r="14.38"/><circle class="cls-54" cx="50.27" cy="47.79" r="14.38"/><circle class="cls-55" cx="50.27" cy="47.16" r="14.38"/><circle class="cls-56" cx="50.27" cy="46.52" r="14.38"/><circle class="cls-57" cx="50.27" cy="45.89" r="14.38"/><circle class="cls-58" cx="50.27" cy="45.26" r="14.38"/><circle class="cls-59" cx="50.27" cy="44.62" r="14.38"/><circle class="cls-60" cx="50.27" cy="43.99" r="14.38"/><circle class="cls-61" cx="50.27" cy="43.36" r="14.38"/><circle class="cls-62" cx="50.28" cy="42.72" r="14.38"/><circle class="cls-63" cx="50.28" cy="42.09" r="14.38"/><circle class="cls-64" cx="50.28" cy="41.46" r="14.38"/><circle class="cls-65" cx="50.28" cy="40.82" r="14.38"/><circle class="cls-66" cx="50.28" cy="40.19" r="14.38"/><circle class="cls-67" cx="50.28" cy="39.56" r="14.38"/><circle class="cls-68" cx="50.28" cy="38.92" r="14.38"/><circle class="cls-69" cx="50.28" cy="38.29" r="14.38"/><circle class="cls-70" cx="50.29" cy="37.66" r="14.38"/><circle class="cls-71" cx="50.29" cy="37.02" r="14.38"/><circle class="cls-72" cx="50.29" cy="36.39" r="14.38"/><circle class="cls-73" cx="50.29" cy="35.76" r="14.38"/><circle class="cls-74" cx="50.29" cy="35.12" r="14.38"/><circle class="cls-75" cx="50.29" cy="34.49" r="14.38"/><circle class="cls-76" cx="50.29" cy="33.86" r="14.38"/><circle class="cls-77" cx="50.29" cy="33.22" r="14.38"/><circle class="cls-78" cx="50.3" cy="32.59" r="14.38"/><circle class="cls-79" cx="50.3" cy="31.96" r="14.38"/><circle class="cls-80" cx="50.3" cy="31.32" r="14.38"/><circle class="cls-81" cx="50.3" cy="30.69" r="14.38"/><circle class="cls-82" cx="50.3" cy="30.06" r="14.38"/><circle class="cls-83" cx="50.3" cy="29.42" r="14.38"/><circle class="cls-84" cx="50.3" cy="28.79" r="14.38"/><circle class="cls-85" cx="50.3" cy="28.16" r="14.38"/><circle class="cls-86" cx="50.31" cy="27.52" r="14.38"/><circle class="cls-87" cx="50.31" cy="26.89" r="14.38"/><circle class="cls-88" cx="50.31" cy="26.25" r="14.38"/><circle class="cls-89" cx="50.31" cy="25.62" r="14.38"/><circle class="cls-90" cx="50.31" cy="24.99" r="14.38"/><circle class="cls-91" cx="50.31" cy="24.35" r="14.38"/><circle class="cls-92" cx="50.31" cy="23.72" r="14.38"/><circle class="cls-93" cx="50.32" cy="23.09" r="14.38"/><circle class="cls-94" cx="50.32" cy="22.45" r="14.38"/><circle class="cls-95" cx="50.32" cy="21.82" r="14.38"/><circle class="cls-96" cx="50.32" cy="21.19" r="14.38"/><circle class="cls-97" cx="50.32" cy="20.55" r="14.38"/><circle class="cls-98" cx="50.32" cy="19.92" r="14.38"/><circle class="cls-99" cx="50.32" cy="19.29" r="14.38"/><circle class="cls-100" cx="50.32" cy="18.65" r="14.38"/><circle class="cls-101" cx="50.33" cy="18.02" r="14.38"/><circle class="cls-102" cx="50.33" cy="17.39" r="14.38"/></svg>