<svg id="Layer_1" data-name="Layer 1" xmlns="http://www.w3.org/2000/svg" xmlns:xlink="http://www.w3.org/1999/xlink" viewBox="0 0 101 99"><defs><style>.cls-1{fill:url(#linear-gradient);}.cls-2{fill:url(#linear-gradient-2);}.cls-3{fill:url(#linear-gradient-3);}.cls-4{fill:url(#linear-gradient-4);}.cls-5{fill:url(#linear-gradient-5);}.cls-6{fill:url(#linear-gradient-6);}.cls-7{fill:url(#linear-gradient-7);}.cls-8{fill:url(#linear-gradient-8);}.cls-9{fill:url(#linear-gradient-9);}.cls-10{fill:url(#linear-gradient-10);}.cls-11{fill:url(#linear-gradient-11);}.cls-12{fill:url(#linear-gradient-12);}.cls-13{fill:url(#linear-gradient-13);}.cls-14{fill:url(#linear-gradient-14);}.cls-15{fill:url(#linear-gradient-15);}.cls-16{fill:url(#linear-gradient-16);}.cls-17{fill:url(#linear-gradient-17);}.cls-18{fill:url(#linear-gradient-18);}.cls-19{fill:url(#linear-gradient-19);}.cls-20{fill:url(#linear-gradient-20);}.cls-21{fill:url(#linear-gradient-21);}.cls-22{fill:url(#linear-gradient-22);}.cls-23{fill:url(#linear-gradient-23);}.cls-24{fill:url(#linear-gradient-24);}.cls-25{fill:url(#linear-gradient-25);}.cls-26{fill:url(#linear-gradient-26);}.cls-27{fill:url(#linear-gradient-27);}.cls-28{fill:url(#linear-gradient-28);}.cls-29{fill:url(#linear-gradient-29);}.cls-30{fill:url(#linear-gradient-30);}.cls-31{fill:url(#linear-gradient-31);}.cls-32{fill:url(#linear-gradient-32);}.cls-33{fill:url(#linear-gradient-33);}.cls-34{fill:url(#linear-gradient-34);}.cls-35{fill:url(#linear-gradient-35);}.cls-36{fill:url(#linear-gradient-36);}.cls-37{fill:url(#linear-gradient-37);}.cls-38{fill:url(#linear-gradient-38);}.cls-39{fill:url(#linear-gradient-39);}.cls-40{fill:url(#linear-gradient-40);}.cls-41{fill:url(#linear-gradient-41);}.cls-42{fill:url(#linear-gradient-42);}.cls-43{fill:url(#linear-gradient-43);}.cls-44{fill:url(#linear-gradient-44);}.cls-45{fill:url(#linear-gradient-45);}.cls-46{fill:url(#linear-gradient-46);}.cls-47{fill:url(#linear-gradient-47);}.cls-48{fill:url(#linear-gradient-48);}.cls-49{fill:url(#linear-gradient-49);}.cls-50{fill:url(#linear-gradient-50);}.cls-51{fill:url(#linear-gradient-51);}.cls-52{fill:url(#linear-gradient-52);}.cls-53{fill:url(#linear-gradient-53);}.cls-54{fill:url(#linear-gradient-54);}.cls-55{fill:url(#linear-gradient-55);}.cls-56{fill:url(#linear-gradient-56);}.cls-57{fill:url(#linear-gradient-57);}.cls-58{fill:url(#linear-gradient-58);}.cls-59{fill:url(#linear-gradient-59);}.cls-60{fill:url(#linear-gradient-60);}.cls-61{fill:url(#linear-gradient-61);}.cls-62{fill:url(#linear-gradient-62);}.cls-63{fill:url(#linear-gradient-63);}.cls-64{fill:url(#linear-gradient-64);}.cls-65{fill:url(#linear-gradient-65);}.cls-66{fill:url(#linear-gradient-66);}.cls-67{fill:url(#linear-gradient-67);}.cls-68{fill:url(#linear-gradient-68);}.cls-69{fill:url(#linear-gradient-69);}.cls-70{fill:url(#linear-gradient-70);}.cls-71{fill:url(#linear-gradient-71);}.cls-72{fill:url(#linear-gradient-72);}.cls-73{fill:url(#linear-gradient-73);}.cls-74{fill:url(#linear-gradient-74);}.cls-75{fill:url(#linear-gradient-75);}.cls-76{fill:url(#linear-gradient-76);}.cls-77{fill:url(#linear-gradient-77);}.cls-78{fill:url(#linear-gradient-78);}.cls-79{fill:url(#linear-gradient-79);}.cls-80{fill:url(#linear-gradient-80);}.cls-81{fill:url(#linear-gradient-81);}.cls-82{fill:url(#linear-gradient-82);}.cls-83{fill:url(#linear-gradient-83);}.cls-84{fill:url(#linear-gradient-84);}.cls-85{fill:url(#linear-gradient-85);}.cls-86{fill:url(#linear-gradient-86);}.cls-87{fill:url(#linear-gradient-87);}.cls-88{fill:url(#linear-gradient-88);}.cls-89{fill:url(#linear-gradient-89);}.cls-90{fill:url(#linear-gradient-90);}.cls-91{fill:url(#linear-gradient-91);}.cls-92{fill:url(#linear-gradient-92);}.cls-93{fill:url(#linear-gradient-93);}.cls-94{fill:url(#linear-gradient-94);}.cls-95{fill:url(#linear-gradient-95);}.cls-96{fill:url(#linear-gradient-96);}.cls-97{fill:url(#linear-gradient-97);}.cls-98{fill:url(#linear-gradient-98);}.cls-99{fill:url(#linear-gradient-99);}.cls-100{fill:url(#linear-gradient-100);}.cls-101{fill:url(#linear-gradient-101);}.cls-102{fill:url(#linear-gradient-102);}.cls-103{fill:url(#linear-gradient-103);}.cls-104{fill:url(#linear-gradient-104);}.cls-105{fill:url(#linear-gradient-105);}.cls-106{fill:url(#linear-gradient-106);}.cls-107{fill:url(#linear-gradient-107);}.cls-108{fill:url(#linear-gradient-108);}.cls-109{fill:url(#linear-gradient-109);}.cls-110{fill:url(#linear-gradient-110);}.cls-111{fill:url(#linear-gradient-111);}.cls-112{fill:url(#linear-gradient-112);}.cls-113{fill:url(#linear-gradient-113);}.cls-114{fill:url(#linear-gradient-114);}.cls-115{fill:url(#linear-gradient-115);}.cls-116{fill:url(#linear-gradient-116);}.cls-117{fill:url(#linear-gradient-117);}.cls-118{fill:url(#linear-gradient-118);}.cls-119{fill:url(#linear-gradient-119);}.cls-120{fill:url(#linear-gradient-120);}.cls-121{fill:url(#linear-gradient-121);}.cls-122{fill:url(#linear-gradient-122);}.cls-123{fill:url(#linear-gradient-123);}.cls-124{fill:url(#linear-gradient-124);}.cls-125{fill:url(#linear-gradient-125);}.cls-126{fill:url(#linear-gradient-126);}.cls-127{fill:url(#linear-gradient-127);}.cls-128{fill:url(#linear-gradient-128);}.cls-129{fill:url(#linear-gradient-129);}.cls-130{fill:url(#linear-gradient-130);}.cls-131{fill:url(#linear-gradient-131);}.cls-132{fill:url(#linear-gradient-132);}.cls-133{fill:url(#linear-gradient-133);}.cls-134{fill:url(#linear-gradient-134);}.cls-135{fill:url(#linear-gradient-135);}.cls-136{fill:url(#linear-gradient-136);}.cls-137{fill:url(#linear-gradient-137);}.cls-138{fill:url(#linear-gradient-138);}.cls-139{fill:url(#linear-gradient-139);}.cls-140{fill:url(#linear-gradient-140);}.cls-141{fill:url(#linear-gradient-141);}.cls-142{fill:url(#linear-gradient-142);}.cls-143{fill:url(#linear-gradient-143);}.cls-144{fill:url(#linear-gradient-144);}.cls-145{fill:url(#linear-gradient-145);}.cls-146{fill:url(#linear-gradient-146);}.cls-147{fill:url(#linear-gradient-147);}.cls-148{fill:url(#linear-gradient-148);}.cls-149{fill:url(#linear-gradient-149);}.cls-150{fill:url(#linear-gradient-150);}.cls-151{fill:url(#linear-gradient-151);}.cls-152{fill:url(#linear-gradient-152);}.cls-153{fill:url(#linear-gradient-153);}.cls-154{fill:url(#linear-gradient-154);}.cls-155{fill:url(#linear-gradient-155);}.cls-156{fill:url(#linear-gradient-156);}.cls-157{fill:url(#linear-gradient-157);}.cls-158{fill:url(#linear-gradient-158);}.cls-159{fill:url(#linear-gradient-159);}.cls-160{fill:url(#linear-gradient-160);}.cls-161{fill:url(#linear-gradient-161);}.cls-162{fill:url(#linear-gradient-162);}.cls-163{fill:url(#linear-gradient-163);}.cls-164{fill:url(#linear-gradient-164);}.cls-165{fill:url(#linear-gradient-165);}.cls-166{fill:url(#linear-gradient-166);}.cls-167{fill:url(#linear-gradient-167);}.cls-168{fill:url(#linear-gradient-168);}.cls-169{fill:url(#linear-gradient-169);}.cls-170{fill:url(#linear-gradient-170);}.cls-171{fill:url(#linear-gradient-171);}.cls-172{fill:url(#linear-gradient-172);}.cls-173{fill:url(#linear-gradient-173);}.cls-174{fill:url(#linear-gradient-174);}.cls-175{fill:url(#linear-gradient-175);}.cls-176{fill:url(#linear-gradient-176);}.cls-177{fill:url(#linear-gradient-177);}.cls-178{fill:url(#linear-gradient-178);}.cls-179{fill:url(#linear-gradient-179);}.cls-180{fill:url(#linear-gradient-180);}.cls-181{fill:url(#linear-gradient-181);}.cls-182{fill:url(#linear-gradient-182);}.cls-183{fill:url(#linear-gradient-183);}.cls-184{fill:url(#linear-gradient-184);}.cls-185{fill:url(#linear-gradient-185);}.cls-186{fill:url(#linear-gradient-186);}.cls-187{fill:url(#linear-gradient-187);}.cls-188{fill:url(#linear-gradient-188);}.cls-189{fill:url(#linear-gradient-189);}.cls-190{fill:url(#linear-gradient-190);}.cls-191{fill:url(#linear-gradient-191);}.cls-192{fill:url(#linear-gradient-192);}.cls-193{fill:url(#linear-gradient-193);}.cls-194{fill:url(#linear-gradient-194);}.cls-195{fill:url(#linear-gradient-195);}.cls-196{fill:url(#linear-gradient-196);}.cls-197{fill:url(#linear-gradient-197);}.cls-198{fill:url(#linear-gradient-198);}.cls-199{fill:url(#linear-gradient-199);}.cls-200{fill:url(#linear-gradient-200);}.cls-201{fill:url(#linear-gradient-201);}.cls-202{fill:url(#linear-gradient-202);}.cls-203{fill:url(#linear-gradient-203);}</style><linearGradient id="linear-gradient" x1="35.21" y1="80.62" x2="62.76" y2="80.62" gradientUnits="userSpaceOnUse"><stop offset="0.12" stop-color="#fd80d7"/><stop offset="0.98" stop-color="#ff5c55"/></linearGradient><linearGradient id="linear-gradient-2" x1="34.05" y1="80.6" x2="61.59" y2="80.6" xlink:href="#linear-gradient"/><linearGradient id="linear-gradient-3" x1="32.9" y1="80.54" x2="60.45" y2="80.54" xlink:href="#linear-gradient"/><linearGradient id="linear-gradient-4" x1="31.78" y1="80.45" x2="59.33" y2="80.45" xlink:href="#linear-gradient"/><linearGradient id="linear-gradient-5" x1="30.69" y1="80.33" x2="58.24" y2="80.33" xlink:href="#linear-gradient"/><linearGradient id="linear-gradient-6" x1="29.62" y1="80.17" x2="57.17" y2="80.17" xlink:href="#linear-gradient"/><linearGradient id="linear-gradient-7" x1="28.57" y1="79.98" x2="56.12" y2="79.98" xlink:href="#linear-gradient"/><linearGradient id="linear-gradient-8" x1="27.54" y1="79.75" x2="55.09" y2="79.75" xlink:href="#linear-gradient"/><linearGradient id="linear-gradient-9" x1="26.54" y1="79.5" x2="54.09" y2="79.5" xlink:href="#linear-gradient"/><linearGradient id="linear-gradient-10" x1="25.56" y1="79.21" x2="53.11" y2="79.21" xlink:href="#linear-gradient"/><linearGradient id="linear-gradient-11" x1="24.61" y1="78.89" x2="52.16" y2="78.89" xlink:href="#linear-gradient"/><linearGradient id="linear-gradient-12" x1="23.68" y1="78.54" x2="51.23" y2="78.54" xlink:href="#linear-gradient"/><linearGradient id="linear-gradient-13" x1="22.77" y1="78.17" x2="50.32" y2="78.17" xlink:href="#linear-gradient"/><linearGradient id="linear-gradient-14" x1="21.89" y1="77.76" x2="49.43" y2="77.76" xlink:href="#linear-gradient"/><linearGradient id="linear-gradient-15" x1="21.03" y1="77.33" x2="48.57" y2="77.33" xlink:href="#linear-gradient"/><linearGradient id="linear-gradient-16" x1="20.19" y1="76.87" x2="47.74" y2="76.87" xlink:href="#linear-gradient"/><linearGradient id="linear-gradient-17" x1="19.38" y1="76.39" x2="46.92" y2="76.39" xlink:href="#linear-gradient"/><linearGradient id="linear-gradient-18" x1="18.59" y1="75.88" x2="46.13" y2="75.88" xlink:href="#linear-gradient"/><linearGradient id="linear-gradient-19" x1="17.82" y1="75.34" x2="45.37" y2="75.34" xlink:href="#linear-gradient"/><linearGradient id="linear-gradient-20" x1="17.08" y1="74.78" x2="44.62" y2="74.78" xlink:href="#linear-gradient"/><linearGradient id="linear-gradient-21" x1="16.36" y1="74.2" x2="43.9" y2="74.2" xlink:href="#linear-gradient"/><linearGradient id="linear-gradient-22" x1="15.66" y1="73.6" x2="43.21" y2="73.6" xlink:href="#linear-gradient"/><linearGradient id="linear-gradient-23" x1="14.99" y1="72.97" x2="42.53" y2="72.97" xlink:href="#linear-gradient"/><linearGradient id="linear-gradient-24" x1="14.34" y1="72.33" x2="41.88" y2="72.33" xlink:href="#linear-gradient"/><linearGradient id="linear-gradient-25" x1="13.71" y1="71.66" x2="41.26" y2="71.66" xlink:href="#linear-gradient"/><linearGradient id="linear-gradient-26" x1="13.11" y1="70.97" x2="40.66" y2="70.97" xlink:href="#linear-gradient"/><linearGradient id="linear-gradient-27" x1="12.53" y1="70.27" x2="40.08" y2="70.27" xlink:href="#linear-gradient"/><linearGradient id="linear-gradient-28" x1="11.97" y1="69.55" x2="39.52" y2="69.55" xlink:href="#linear-gradient"/><linearGradient id="linear-gradient-29" x1="11.44" y1="68.81" x2="38.99" y2="68.81" xlink:href="#linear-gradient"/><linearGradient id="linear-gradient-30" x1="10.93" y1="68.05" x2="38.48" y2="68.05" xlink:href="#linear-gradient"/><linearGradient id="linear-gradient-31" x1="10.44" y1="67.28" x2="37.99" y2="67.28" xlink:href="#linear-gradient"/><linearGradient id="linear-gradient-32" x1="9.98" y1="66.49" x2="37.53" y2="66.49" xlink:href="#linear-gradient"/><linearGradient id="linear-gradient-33" x1="9.54" y1="65.69" x2="37.09" y2="65.69" xlink:href="#linear-gradient"/><linearGradient id="linear-gradient-34" x1="9.13" y1="64.88" x2="36.67" y2="64.88" xlink:href="#linear-gradient"/><linearGradient id="linear-gradient-35" x1="8.73" y1="64.05" x2="36.28" y2="64.05" xlink:href="#linear-gradient"/><linearGradient id="linear-gradient-36" x1="8.36" y1="63.21" x2="35.91" y2="63.21" xlink:href="#linear-gradient"/><linearGradient id="linear-gradient-37" x1="8.02" y1="62.36" x2="35.57" y2="62.36" xlink:href="#linear-gradient"/><linearGradient id="linear-gradient-38" x1="7.7" y1="61.5" x2="35.24" y2="61.5" xlink:href="#linear-gradient"/><linearGradient id="linear-gradient-39" x1="7.4" y1="60.62" x2="34.94" y2="60.62" xlink:href="#linear-gradient"/><linearGradient id="linear-gradient-40" x1="7.12" y1="59.74" x2="34.67" y2="59.74" xlink:href="#linear-gradient"/><linearGradient id="linear-gradient-41" x1="6.87" y1="58.85" x2="34.42" y2="58.85" xlink:href="#linear-gradient"/><linearGradient id="linear-gradient-42" x1="6.64" y1="57.96" x2="34.19" y2="57.96" xlink:href="#linear-gradient"/><linearGradient id="linear-gradient-43" x1="6.43" y1="57.05" x2="33.98" y2="57.05" xlink:href="#linear-gradient"/><linearGradient id="linear-gradient-44" x1="6.25" y1="56.14" x2="33.8" y2="56.14" xlink:href="#linear-gradient"/><linearGradient id="linear-gradient-45" x1="6.09" y1="55.23" x2="33.64" y2="55.23" xlink:href="#linear-gradient"/><linearGradient id="linear-gradient-46" x1="5.95" y1="54.31" x2="33.5" y2="54.31" xlink:href="#linear-gradient"/><linearGradient id="linear-gradient-47" x1="5.84" y1="53.38" x2="33.39" y2="53.38" xlink:href="#linear-gradient"/><linearGradient id="linear-gradient-48" x1="5.75" y1="52.46" x2="33.3" y2="52.46" xlink:href="#linear-gradient"/><linearGradient id="linear-gradient-49" x1="5.68" y1="51.53" x2="33.23" y2="51.53" xlink:href="#linear-gradient"/><linearGradient id="linear-gradient-50" x1="5.64" y1="50.6" x2="33.19" y2="50.6" xlink:href="#linear-gradient"/><linearGradient id="linear-gradient-51" x1="5.62" y1="49.66" x2="33.17" y2="49.66" xlink:href="#linear-gradient"/><linearGradient id="linear-gradient-52" x1="5.62" y1="48.73" x2="33.17" y2="48.73" xlink:href="#linear-gradient"/><linearGradient id="linear-gradient-53" x1="5.65" y1="47.8" x2="33.2" y2="47.8" xlink:href="#linear-gradient"/><linearGradient id="linear-gradient-54" x1="5.7" y1="46.86" x2="33.25" y2="46.86" xlink:href="#linear-gradient"/><linearGradient id="linear-gradient-55" x1="5.77" y1="45.93" x2="33.32" y2="45.93" xlink:href="#linear-gradient"/><linearGradient id="linear-gradient-56" x1="5.87" y1="45.01" x2="33.41" y2="45.01" xlink:href="#linear-gradient"/><linearGradient id="linear-gradient-57" x1="5.99" y1="44.08" x2="33.53" y2="44.08" xlink:href="#linear-gradient"/><linearGradient id="linear-gradient-58" x1="6.13" y1="43.16" x2="33.68" y2="43.16" xlink:href="#linear-gradient"/><linearGradient id="linear-gradient-59" x1="6.29" y1="42.25" x2="33.84" y2="42.25" xlink:href="#linear-gradient"/><linearGradient id="linear-gradient-60" x1="6.48" y1="41.34" x2="34.03" y2="41.34" xlink:href="#linear-gradient"/><linearGradient id="linear-gradient-61" x1="6.69" y1="40.43" x2="34.24" y2="40.43" xlink:href="#linear-gradient"/><linearGradient id="linear-gradient-62" x1="6.93" y1="39.54" x2="34.48" y2="39.54" xlink:href="#linear-gradient"/><linearGradient id="linear-gradient-63" x1="7.19" y1="38.65" x2="34.73" y2="38.65" xlink:href="#linear-gradient"/><linearGradient id="linear-gradient-64" x1="7.47" y1="37.77" x2="35.01" y2="37.77" xlink:href="#linear-gradient"/><linearGradient id="linear-gradient-65" x1="7.77" y1="36.9" x2="35.32" y2="36.9" xlink:href="#linear-gradient"/><linearGradient id="linear-gradient-66" x1="8.1" y1="36.03" x2="35.65" y2="36.03" xlink:href="#linear-gradient"/><linearGradient id="linear-gradient-67" x1="8.45" y1="35.18" x2="36" y2="35.18" xlink:href="#linear-gradient"/><linearGradient id="linear-gradient-68" x1="8.82" y1="34.34" x2="36.37" y2="34.34" xlink:href="#linear-gradient"/><linearGradient id="linear-gradient-69" x1="9.22" y1="33.52" x2="36.77" y2="33.52" xlink:href="#linear-gradient"/><linearGradient id="linear-gradient-70" x1="9.64" y1="32.7" x2="37.19" y2="32.7" xlink:href="#linear-gradient"/><linearGradient id="linear-gradient-71" x1="10.08" y1="31.9" x2="37.63" y2="31.9" xlink:href="#linear-gradient"/><linearGradient id="linear-gradient-72" x1="10.55" y1="31.11" x2="38.09" y2="31.11" xlink:href="#linear-gradient"/><linearGradient id="linear-gradient-73" x1="11.04" y1="30.34" x2="38.58" y2="30.34" xlink:href="#linear-gradient"/><linearGradient id="linear-gradient-74" x1="11.55" y1="29.59" x2="39.1" y2="29.59" xlink:href="#linear-gradient"/><linearGradient id="linear-gradient-75" x1="12.08" y1="28.85" x2="39.63" y2="28.85" xlink:href="#linear-gradient"/><linearGradient id="linear-gradient-76" x1="12.64" y1="28.12" x2="40.19" y2="28.12" xlink:href="#linear-gradient"/><linearGradient id="linear-gradient-77" x1="13.22" y1="27.42" x2="40.77" y2="27.42" xlink:href="#linear-gradient"/><linearGradient id="linear-gradient-78" x1="13.83" y1="26.73" x2="41.37" y2="26.73" xlink:href="#linear-gradient"/><linearGradient id="linear-gradient-79" x1="14.45" y1="26.07" x2="42" y2="26.07" xlink:href="#linear-gradient"/><linearGradient id="linear-gradient-80" x1="15.1" y1="25.42" x2="42.65" y2="25.42" xlink:href="#linear-gradient"/><linearGradient id="linear-gradient-81" x1="15.78" y1="24.79" x2="43.32" y2="24.79" xlink:href="#linear-gradient"/><linearGradient id="linear-gradient-82" x1="16.47" y1="24.19" x2="44.02" y2="24.19" xlink:href="#linear-gradient"/><linearGradient id="linear-gradient-83" x1="17.19" y1="23.61" x2="44.74" y2="23.61" xlink:href="#linear-gradient"/><linearGradient id="linear-gradient-84" x1="17.93" y1="23.05" x2="45.48" y2="23.05" xlink:href="#linear-gradient"/><linearGradient id="linear-gradient-85" x1="18.7" y1="22.52" x2="46.25" y2="22.52" xlink:href="#linear-gradient"/><linearGradient id="linear-gradient-86" x1="19.49" y1="22.01" x2="47.03" y2="22.01" xlink:href="#linear-gradient"/><linearGradient id="linear-gradient-87" x1="20.3" y1="21.52" x2="47.85" y2="21.52" xlink:href="#linear-gradient"/><linearGradient id="linear-gradient-88" x1="21.13" y1="21.06" x2="48.68" y2="21.06" xlink:href="#linear-gradient"/><linearGradient id="linear-gradient-89" x1="21.99" y1="20.63" x2="49.54" y2="20.63" xlink:href="#linear-gradient"/><linearGradient id="linear-gradient-90" x1="22.87" y1="20.22" x2="50.42" y2="20.22" xlink:href="#linear-gradient"/><linearGradient id="linear-gradient-91" x1="23.77" y1="19.85" x2="51.32" y2="19.85" xlink:href="#linear-gradient"/><linearGradient id="linear-gradient-92" x1="24.7" y1="19.5" x2="52.24" y2="19.5" xlink:href="#linear-gradient"/><linearGradient id="linear-gradient-93" x1="25.65" y1="19.18" x2="53.19" y2="19.18" xlink:href="#linear-gradient"/><linearGradient id="linear-gradient-94" x1="26.62" y1="18.89" x2="54.16" y2="18.89" xlink:href="#linear-gradient"/><linearGradient id="linear-gradient-95" x1="27.61" y1="18.64" x2="55.16" y2="18.64" xlink:href="#linear-gradient"/><linearGradient id="linear-gradient-96" x1="28.63" y1="18.41" x2="56.18" y2="18.41" xlink:href="#linear-gradient"/><linearGradient id="linear-gradient-97" x1="29.67" y1="18.22" x2="57.22" y2="18.22" xlink:href="#linear-gradient"/><linearGradient id="linear-gradient-98" x1="30.73" y1="18.06" x2="58.28" y2="18.06" xlink:href="#linear-gradient"/><linearGradient id="linear-gradient-99" x1="31.82" y1="17.94" x2="59.37" y2="17.94" xlink:href="#linear-gradient"/><linearGradient id="linear-gradient-100" x1="32.93" y1="17.85" x2="60.47" y2="17.85" xlink:href="#linear-gradient"/><linearGradient id="linear-gradient-101" x1="34.06" y1="17.79" x2="61.61" y2="17.79" xlink:href="#linear-gradient"/><linearGradient id="linear-gradient-102" x1="35.21" y1="17.77" x2="62.76" y2="17.77" xlink:href="#linear-gradient"/><linearGradient id="linear-gradient-103" x1="36.34" y1="17.79" x2="63.88" y2="17.79" xlink:href="#linear-gradient"/><linearGradient id="linear-gradient-104" x1="37.44" y1="17.85" x2="64.99" y2="17.85" xlink:href="#linear-gradient"/><linearGradient id="linear-gradient-105" x1="38.52" y1="17.94" x2="66.06" y2="17.94" xlink:href="#linear-gradient"/><linearGradient id="linear-gradient-106" x1="39.57" y1="18.06" x2="67.12" y2="18.06" xlink:href="#linear-gradient"/><linearGradient id="linear-gradient-107" x1="40.61" y1="18.22" x2="68.16" y2="18.22" xlink:href="#linear-gradient"/><linearGradient id="linear-gradient-108" x1="41.62" y1="18.41" x2="69.17" y2="18.41" xlink:href="#linear-gradient"/><linearGradient id="linear-gradient-109" x1="42.61" y1="18.63" x2="70.16" y2="18.63" xlink:href="#linear-gradient"/><linearGradient id="linear-gradient-110" x1="43.58" y1="18.89" x2="71.13" y2="18.89" xlink:href="#linear-gradient"/><linearGradient id="linear-gradient-111" x1="44.52" y1="19.17" x2="72.07" y2="19.17" xlink:href="#linear-gradient"/><linearGradient id="linear-gradient-112" x1="45.45" y1="19.49" x2="73" y2="19.49" xlink:href="#linear-gradient"/><linearGradient id="linear-gradient-113" x1="46.35" y1="19.83" x2="73.9" y2="19.83" xlink:href="#linear-gradient"/><linearGradient id="linear-gradient-114" x1="47.23" y1="20.21" x2="74.78" y2="20.21" xlink:href="#linear-gradient"/><linearGradient id="linear-gradient-115" x1="48.09" y1="20.61" x2="75.64" y2="20.61" xlink:href="#linear-gradient"/><linearGradient id="linear-gradient-116" x1="48.92" y1="21.04" x2="76.47" y2="21.04" xlink:href="#linear-gradient"/><linearGradient id="linear-gradient-117" x1="49.74" y1="21.5" x2="77.29" y2="21.5" xlink:href="#linear-gradient"/><linearGradient id="linear-gradient-118" x1="50.53" y1="21.98" x2="78.08" y2="21.98" xlink:href="#linear-gradient"/><linearGradient id="linear-gradient-119" x1="51.3" y1="22.49" x2="78.85" y2="22.49" xlink:href="#linear-gradient"/><linearGradient id="linear-gradient-120" x1="52.05" y1="23.02" x2="79.59" y2="23.02" xlink:href="#linear-gradient"/><linearGradient id="linear-gradient-121" x1="52.77" y1="23.57" x2="80.32" y2="23.57" xlink:href="#linear-gradient"/><linearGradient id="linear-gradient-122" x1="53.48" y1="24.15" x2="81.02" y2="24.15" xlink:href="#linear-gradient"/><linearGradient id="linear-gradient-123" x1="54.16" y1="24.75" x2="81.7" y2="24.75" xlink:href="#linear-gradient"/><linearGradient id="linear-gradient-124" x1="54.82" y1="25.37" x2="82.36" y2="25.37" xlink:href="#linear-gradient"/><linearGradient id="linear-gradient-125" x1="55.45" y1="26.01" x2="83" y2="26.01" xlink:href="#linear-gradient"/><linearGradient id="linear-gradient-126" x1="56.07" y1="26.68" x2="83.62" y2="26.68" xlink:href="#linear-gradient"/><linearGradient id="linear-gradient-127" x1="56.66" y1="27.36" x2="84.21" y2="27.36" xlink:href="#linear-gradient"/><linearGradient id="linear-gradient-128" x1="57.23" y1="28.06" x2="84.78" y2="28.06" xlink:href="#linear-gradient"/><linearGradient id="linear-gradient-129" x1="57.78" y1="28.78" x2="85.33" y2="28.78" xlink:href="#linear-gradient"/><linearGradient id="linear-gradient-130" x1="58.31" y1="29.51" x2="85.86" y2="29.51" xlink:href="#linear-gradient"/><linearGradient id="linear-gradient-131" x1="58.81" y1="30.26" x2="86.36" y2="30.26" xlink:href="#linear-gradient"/><linearGradient id="linear-gradient-132" x1="59.3" y1="31.03" x2="86.84" y2="31.03" xlink:href="#linear-gradient"/><linearGradient id="linear-gradient-133" x1="59.76" y1="31.81" x2="87.3" y2="31.81" xlink:href="#linear-gradient"/><linearGradient id="linear-gradient-134" x1="60.2" y1="32.61" x2="87.74" y2="32.61" xlink:href="#linear-gradient"/><linearGradient id="linear-gradient-135" x1="60.61" y1="33.42" x2="88.16" y2="33.42" xlink:href="#linear-gradient"/><linearGradient id="linear-gradient-136" x1="61.01" y1="34.24" x2="88.55" y2="34.24" xlink:href="#linear-gradient"/><linearGradient id="linear-gradient-137" x1="61.38" y1="35.07" x2="88.93" y2="35.07" xlink:href="#linear-gradient"/><linearGradient id="linear-gradient-138" x1="61.73" y1="35.92" x2="89.28" y2="35.92" xlink:href="#linear-gradient"/><linearGradient id="linear-gradient-139" x1="62.06" y1="36.77" x2="89.61" y2="36.77" xlink:href="#linear-gradient"/><linearGradient id="linear-gradient-140" x1="62.36" y1="37.64" x2="89.91" y2="37.64" xlink:href="#linear-gradient"/><linearGradient id="linear-gradient-141" x1="62.65" y1="38.51" x2="90.2" y2="38.51" xlink:href="#linear-gradient"/><linearGradient id="linear-gradient-142" x1="62.91" y1="39.4" x2="90.46" y2="39.4" xlink:href="#linear-gradient"/><linearGradient id="linear-gradient-143" x1="63.15" y1="40.29" x2="90.7" y2="40.29" xlink:href="#linear-gradient"/><linearGradient id="linear-gradient-144" x1="63.37" y1="41.19" x2="90.92" y2="41.19" xlink:href="#linear-gradient"/><linearGradient id="linear-gradient-145" x1="63.57" y1="42.09" x2="91.12" y2="42.09" xlink:href="#linear-gradient"/><linearGradient id="linear-gradient-146" x1="63.74" y1="43" x2="91.29" y2="43" xlink:href="#linear-gradient"/><linearGradient id="linear-gradient-147" x1="63.89" y1="43.91" x2="91.44" y2="43.91" xlink:href="#linear-gradient"/><linearGradient id="linear-gradient-148" x1="64.03" y1="44.83" x2="91.57" y2="44.83" xlink:href="#linear-gradient"/><linearGradient id="linear-gradient-149" x1="64.13" y1="45.75" x2="91.68" y2="45.75" xlink:href="#linear-gradient"/><linearGradient id="linear-gradient-150" x1="64.22" y1="46.68" x2="91.77" y2="46.68" xlink:href="#linear-gradient"/><linearGradient id="linear-gradient-151" x1="64.29" y1="47.6" x2="91.83" y2="47.6" xlink:href="#linear-gradient"/><linearGradient id="linear-gradient-152" x1="64.33" y1="48.53" x2="91.88" y2="48.53" xlink:href="#linear-gradient"/><linearGradient id="linear-gradient-153" x1="64.35" y1="49.46" x2="91.9" y2="49.46" xlink:href="#linear-gradient"/><linearGradient id="linear-gradient-154" x1="64.35" y1="50.39" x2="91.9" y2="50.39" xlink:href="#linear-gradient"/><linearGradient id="linear-gradient-155" x1="64.32" y1="51.31" x2="91.87" y2="51.31" xlink:href="#linear-gradient"/><linearGradient id="linear-gradient-156" x1="64.28" y1="52.24" x2="91.83" y2="52.24" xlink:href="#linear-gradient"/><linearGradient id="linear-gradient-157" x1="64.21" y1="53.16" x2="91.76" y2="53.16" xlink:href="#linear-gradient"/><linearGradient id="linear-gradient-158" x1="64.12" y1="54.07" x2="91.67" y2="54.07" xlink:href="#linear-gradient"/><linearGradient id="linear-gradient-159" x1="64.01" y1="54.99" x2="91.56" y2="54.99" xlink:href="#linear-gradient"/><linearGradient id="linear-gradient-160" x1="63.88" y1="55.9" x2="91.43" y2="55.9" xlink:href="#linear-gradient"/><linearGradient id="linear-gradient-161" x1="63.72" y1="56.8" x2="91.27" y2="56.8" xlink:href="#linear-gradient"/><linearGradient id="linear-gradient-162" x1="63.55" y1="57.7" x2="91.09" y2="57.7" xlink:href="#linear-gradient"/><linearGradient id="linear-gradient-163" x1="63.35" y1="58.59" x2="90.89" y2="58.59" xlink:href="#linear-gradient"/><linearGradient id="linear-gradient-164" x1="63.13" y1="59.47" x2="90.67" y2="59.47" xlink:href="#linear-gradient"/><linearGradient id="linear-gradient-165" x1="62.88" y1="60.35" x2="90.43" y2="60.35" xlink:href="#linear-gradient"/><linearGradient id="linear-gradient-166" x1="62.62" y1="61.22" x2="90.17" y2="61.22" xlink:href="#linear-gradient"/><linearGradient id="linear-gradient-167" x1="62.33" y1="62.07" x2="89.88" y2="62.07" xlink:href="#linear-gradient"/><linearGradient id="linear-gradient-168" x1="62.02" y1="62.92" x2="89.57" y2="62.92" xlink:href="#linear-gradient"/><linearGradient id="linear-gradient-169" x1="61.69" y1="63.75" x2="89.24" y2="63.75" xlink:href="#linear-gradient"/><linearGradient id="linear-gradient-170" x1="61.34" y1="64.57" x2="88.89" y2="64.57" xlink:href="#linear-gradient"/><linearGradient id="linear-gradient-171" x1="60.97" y1="65.38" x2="88.51" y2="65.38" xlink:href="#linear-gradient"/><linearGradient id="linear-gradient-172" x1="60.57" y1="66.18" x2="88.12" y2="66.18" xlink:href="#linear-gradient"/><linearGradient id="linear-gradient-173" x1="60.15" y1="66.96" x2="87.7" y2="66.96" xlink:href="#linear-gradient"/><linearGradient id="linear-gradient-174" x1="59.71" y1="67.73" x2="87.26" y2="67.73" xlink:href="#linear-gradient"/><linearGradient id="linear-gradient-175" x1="59.25" y1="68.48" x2="86.8" y2="68.48" xlink:href="#linear-gradient"/><linearGradient id="linear-gradient-176" x1="58.76" y1="69.21" x2="86.31" y2="69.21" xlink:href="#linear-gradient"/><linearGradient id="linear-gradient-177" x1="58.26" y1="69.93" x2="85.81" y2="69.93" xlink:href="#linear-gradient"/><linearGradient id="linear-gradient-178" x1="57.73" y1="70.63" x2="85.28" y2="70.63" xlink:href="#linear-gradient"/><linearGradient id="linear-gradient-179" x1="57.18" y1="71.31" x2="84.73" y2="71.31" xlink:href="#linear-gradient"/><linearGradient id="linear-gradient-180" x1="56.61" y1="71.98" x2="84.16" y2="71.98" xlink:href="#linear-gradient"/><linearGradient id="linear-gradient-181" x1="56.02" y1="72.62" x2="83.56" y2="72.62" xlink:href="#linear-gradient"/><linearGradient id="linear-gradient-182" x1="55.4" y1="73.24" x2="82.95" y2="73.24" xlink:href="#linear-gradient"/><linearGradient id="linear-gradient-183" x1="54.76" y1="73.84" x2="82.31" y2="73.84" xlink:href="#linear-gradient"/><linearGradient id="linear-gradient-184" x1="54.1" y1="74.42" x2="81.65" y2="74.42" xlink:href="#linear-gradient"/><linearGradient id="linear-gradient-185" x1="53.42" y1="74.97" x2="80.97" y2="74.97" xlink:href="#linear-gradient"/><linearGradient id="linear-gradient-186" x1="52.72" y1="75.5" x2="80.27" y2="75.5" xlink:href="#linear-gradient"/><linearGradient id="linear-gradient-187" x1="51.99" y1="76.01" x2="79.54" y2="76.01" xlink:href="#linear-gradient"/><linearGradient id="linear-gradient-188" x1="51.25" y1="76.49" x2="78.8" y2="76.49" xlink:href="#linear-gradient"/><linearGradient id="linear-gradient-189" x1="50.48" y1="76.95" x2="78.03" y2="76.95" xlink:href="#linear-gradient"/><linearGradient id="linear-gradient-190" x1="49.69" y1="77.38" x2="77.24" y2="77.38" xlink:href="#linear-gradient"/><linearGradient id="linear-gradient-191" x1="48.88" y1="77.78" x2="76.42" y2="77.78" xlink:href="#linear-gradient"/><linearGradient id="linear-gradient-192" x1="48.04" y1="78.15" x2="75.59" y2="78.15" xlink:href="#linear-gradient"/><linearGradient id="linear-gradient-193" x1="47.19" y1="78.5" x2="74.73" y2="78.5" xlink:href="#linear-gradient"/><linearGradient id="linear-gradient-194" x1="46.31" y1="78.82" x2="73.86" y2="78.82" xlink:href="#linear-gradient"/><linearGradient id="linear-gradient-195" x1="45.41" y1="79.1" x2="72.96" y2="79.1" xlink:href="#linear-gradient"/><linearGradient id="linear-gradient-196" x1="44.49" y1="79.36" x2="72.03" y2="79.36" xlink:href="#linear-gradient"/><linearGradient id="linear-gradient-197" x1="43.54" y1="79.58" x2="71.09" y2="79.58" xlink:href="#linear-gradient"/><linearGradient id="linear-gradient-198" x1="42.58" y1="79.77" x2="70.12" y2="79.77" xlink:href="#linear-gradient"/><linearGradient id="linear-gradient-199" x1="41.59" y1="79.93" x2="69.14" y2="79.93" xlink:href="#linear-gradient"/><linearGradient id="linear-gradient-200" x1="40.58" y1="80.05" x2="68.13" y2="80.05" xlink:href="#linear-gradient"/><linearGradient id="linear-gradient-201" x1="39.55" y1="80.14" x2="67.1" y2="80.14" xlink:href="#linear-gradient"/><linearGradient id="linear-gradient-202" x1="38.5" y1="80.2" x2="66.04" y2="80.2" xlink:href="#linear-gradient"/><linearGradient id="linear-gradient-203" x1="37.42" y1="80.22" x2="64.97" y2="80.22" xlink:href="#linear-gradient"/></defs><title>o</title><circle class="cls-1" cx="48.99" cy="80.62" r="13.77"/><circle class="cls-2" cx="47.82" cy="80.6" r="13.77"/><circle class="cls-3" cx="46.68" cy="80.54" r="13.77"/><circle class="cls-4" cx="45.56" cy="80.45" r="13.77"/><circle class="cls-5" cx="44.46" cy="80.33" r="13.77"/><circle class="cls-6" cx="43.39" cy="80.17" r="13.77"/><circle class="cls-7" cx="42.34" cy="79.98" r="13.77"/><circle class="cls-8" cx="41.32" cy="79.75" r="13.77"/><circle class="cls-9" cx="40.32" cy="79.5" r="13.77"/><circle class="cls-10" cx="39.34" cy="79.21" r="13.77"/><circle class="cls-11" cx="38.38" cy="78.89" r="13.77"/><circle class="cls-12" cx="37.45" cy="78.54" r="13.77"/><circle class="cls-13" cx="36.54" cy="78.17" r="13.77"/><circle class="cls-14" cx="35.66" cy="77.76" r="13.77"/><circle class="cls-15" cx="34.8" cy="77.33" r="13.77"/><circle class="cls-16" cx="33.96" cy="76.87" r="13.77"/><circle class="cls-17" cx="33.15" cy="76.39" r="13.77"/><circle class="cls-18" cx="32.36" cy="75.88" r="13.77"/><circle class="cls-19" cx="31.59" cy="75.34" r="13.77"/><circle class="cls-20" cx="30.85" cy="74.78" r="13.77"/><circle class="cls-21" cx="30.13" cy="74.2" r="13.77"/><circle class="cls-22" cx="29.43" cy="73.6" r="13.77"/><circle class="cls-23" cx="28.76" cy="72.97" r="13.77"/><circle class="cls-24" cx="28.11" cy="72.33" r="13.77"/><circle class="cls-25" cx="27.48" cy="71.66" r="13.77"/><circle class="cls-26" cx="26.88" cy="70.97" r="13.77"/><circle class="cls-27" cx="26.3" cy="70.27" r="13.77"/><circle class="cls-28" cx="25.75" cy="69.55" r="13.77"/><circle class="cls-29" cx="25.21" cy="68.81" r="13.77"/><circle class="cls-30" cx="24.7" cy="68.05" r="13.77"/><circle class="cls-31" cx="24.22" cy="67.28" r="13.77"/><circle class="cls-32" cx="23.76" cy="66.49" r="13.77"/><circle class="cls-33" cx="23.32" cy="65.69" r="13.77"/><circle class="cls-34" cx="22.9" cy="64.88" r="13.77"/><circle class="cls-35" cx="22.51" cy="64.05" r="13.77"/><circle class="cls-36" cx="22.14" cy="63.21" r="13.77"/><circle class="cls-37" cx="21.79" cy="62.36" r="13.77"/><circle class="cls-38" cx="21.47" cy="61.5" r="13.77"/><circle class="cls-39" cx="21.17" cy="60.62" r="13.77"/><circle class="cls-40" cx="20.89" cy="59.74" r="13.77"/><circle class="cls-41" cx="20.64" cy="58.85" r="13.77"/><circle class="cls-42" cx="20.41" cy="57.96" r="13.77"/><circle class="cls-43" cx="20.21" cy="57.05" r="13.77"/><circle class="cls-44" cx="20.02" cy="56.14" r="13.77"/><circle class="cls-45" cx="19.86" cy="55.23" r="13.77"/><circle class="cls-46" cx="19.73" cy="54.31" r="13.77"/><circle class="cls-47" cx="19.61" cy="53.38" r="13.77"/><circle class="cls-48" cx="19.52" cy="52.46" r="13.77"/><circle class="cls-49" cx="19.46" cy="51.53" r="13.77"/><circle class="cls-50" cx="19.41" cy="50.6" r="13.77"/><circle class="cls-51" cx="19.39" cy="49.66" r="13.77"/><circle class="cls-52" cx="19.4" cy="48.73" r="13.77"/><circle class="cls-53" cx="19.42" cy="47.8" r="13.77"/><circle class="cls-54" cx="19.47" cy="46.86" r="13.77"/><circle class="cls-55" cx="19.54" cy="45.93" r="13.77"/><circle class="cls-56" cx="19.64" cy="45.01" r="13.77"/><circle class="cls-57" cx="19.76" cy="44.08" r="13.77"/><circle class="cls-58" cx="19.9" cy="43.16" r="13.77"/><circle class="cls-59" cx="20.07" cy="42.25" r="13.77"/><circle class="cls-60" cx="20.26" cy="41.34" r="13.77"/><circle class="cls-61" cx="20.47" cy="40.43" r="13.77"/><circle class="cls-62" cx="20.7" cy="39.54" r="13.77"/><circle class="cls-63" cx="20.96" cy="38.65" r="13.77"/><circle class="cls-64" cx="21.24" cy="37.77" r="13.77"/><circle class="cls-65" cx="21.54" cy="36.9" r="13.77"/><circle class="cls-66" cx="21.87" cy="36.03" r="13.77"/><circle class="cls-67" cx="22.22" cy="35.18" r="13.77"/><circle class="cls-68" cx="22.6" cy="34.34" r="13.77"/><circle class="cls-69" cx="22.99" cy="33.52" r="13.77"/><circle class="cls-70" cx="23.41" cy="32.7" r="13.77"/><circle class="cls-71" cx="23.85" cy="31.9" r="13.77"/><circle class="cls-72" cx="24.32" cy="31.11" r="13.77"/><circle class="cls-73" cx="24.81" cy="30.34" r="13.77"/><circle class="cls-74" cx="25.32" cy="29.59" r="13.77"/><circle class="cls-75" cx="25.86" cy="28.85" r="13.77"/><circle class="cls-76" cx="26.41" cy="28.12" r="13.77"/><circle class="cls-77" cx="27" cy="27.42" r="13.77"/><circle class="cls-78" cx="27.6" cy="26.73" r="13.77"/><circle class="cls-79" cx="28.23" cy="26.07" r="13.77"/><circle class="cls-80" cx="28.88" cy="25.42" r="13.77"/><circle class="cls-81" cx="29.55" cy="24.79" r="13.77"/><circle class="cls-82" cx="30.25" cy="24.19" r="13.77"/><circle class="cls-83" cx="30.97" cy="23.61" r="13.77"/><circle class="cls-84" cx="31.71" cy="23.05" r="13.77"/><circle class="cls-85" cx="32.47" cy="22.52" r="13.77"/><circle class="cls-86" cx="33.26" cy="22.01" r="13.77"/><circle class="cls-87" cx="34.07" cy="21.52" r="13.77"/><circle class="cls-88" cx="34.91" cy="21.06" r="13.77"/><circle class="cls-89" cx="35.76" cy="20.63" r="13.77"/><circle class="cls-90" cx="36.64" cy="20.22" r="13.77"/><circle class="cls-91" cx="37.54" cy="19.85" r="13.77"/><circle class="cls-92" cx="38.47" cy="19.5" r="13.77"/><circle class="cls-93" cx="39.42" cy="19.18" r="13.77"/><circle class="cls-94" cx="40.39" cy="18.89" r="13.77"/><circle class="cls-95" cx="41.39" cy="18.64" r="13.77"/><circle class="cls-96" cx="42.4" cy="18.41" r="13.77"/><circle class="cls-97" cx="43.44" cy="18.22" r="13.77"/><circle class="cls-98" cx="44.51" cy="18.06" r="13.77"/><circle class="cls-99" cx="45.59" cy="17.94" r="13.77"/><circle class="cls-100" cx="46.7" cy="17.85" r="13.77"/><circle class="cls-101" cx="47.83" cy="17.79" r="13.77"/><circle class="cls-102" cx="48.99" cy="17.77" r="13.77"/><circle class="cls-103" cx="50.11" cy="17.79" r="13.77"/><circle class="cls-104" cx="51.21" cy="17.85" r="13.77"/><circle class="cls-105" cx="52.29" cy="17.94" r="13.77"/><circle class="cls-106" cx="53.35" cy="18.06" r="13.77"/><circle class="cls-107" cx="54.38" cy="18.22" r="13.77"/><circle class="cls-108" cx="55.39" cy="18.41" r="13.77"/><circle class="cls-109" cx="56.38" cy="18.63" r="13.77"/><circle class="cls-110" cx="57.35" cy="18.89" r="13.77"/><circle class="cls-111" cx="58.3" cy="19.17" r="13.77"/><circle class="cls-112" cx="59.22" cy="19.49" r="13.77"/><circle class="cls-113" cx="60.13" cy="19.83" r="13.77"/><circle class="cls-114" cx="61" cy="20.21" r="13.77"/><circle class="cls-115" cx="61.86" cy="20.61" r="13.77"/><circle class="cls-116" cx="62.7" cy="21.04" r="13.77"/><circle class="cls-117" cx="63.51" cy="21.5" r="13.77"/><circle class="cls-118" cx="64.3" cy="21.98" r="13.77"/><circle class="cls-119" cx="65.07" cy="22.49" r="13.77"/><circle class="cls-120" cx="65.82" cy="23.02" r="13.77"/><circle class="cls-121" cx="66.55" cy="23.57" r="13.77"/><circle class="cls-122" cx="67.25" cy="24.15" r="13.77"/><circle class="cls-123" cx="67.93" cy="24.75" r="13.77"/><circle class="cls-124" cx="68.59" cy="25.37" r="13.77"/><circle class="cls-125" cx="69.23" cy="26.01" r="13.77"/><circle class="cls-126" cx="69.84" cy="26.68" r="13.77"/><circle class="cls-127" cx="70.44" cy="27.36" r="13.77"/><circle class="cls-128" cx="71.01" cy="28.06" r="13.77"/><circle class="cls-129" cx="71.56" cy="28.78" r="13.77"/><circle class="cls-130" cx="72.08" cy="29.51" r="13.77"/><circle class="cls-131" cx="72.59" cy="30.26" r="13.77"/><circle class="cls-132" cx="73.07" cy="31.03" r="13.77"/><circle class="cls-133" cx="73.53" cy="31.81" r="13.77"/><circle class="cls-134" cx="73.97" cy="32.61" r="13.77"/><circle class="cls-135" cx="74.39" cy="33.42" r="13.77"/><circle class="cls-136" cx="74.78" cy="34.24" r="13.77"/><circle class="cls-137" cx="75.15" cy="35.07" r="13.77"/><circle class="cls-138" cx="75.5" cy="35.92" r="13.77"/><circle class="cls-139" cx="75.83" cy="36.77" r="13.77"/><circle class="cls-140" cx="76.14" cy="37.64" r="13.77"/><circle class="cls-141" cx="76.42" cy="38.51" r="13.77"/><circle class="cls-142" cx="76.69" cy="39.4" r="13.77"/><circle class="cls-143" cx="76.93" cy="40.29" r="13.77"/><circle class="cls-144" cx="77.15" cy="41.19" r="13.77"/><circle class="cls-145" cx="77.34" cy="42.09" r="13.77"/><circle class="cls-146" cx="77.52" cy="43" r="13.77"/><circle class="cls-147" cx="77.67" cy="43.91" r="13.77"/><circle class="cls-148" cx="77.8" cy="44.83" r="13.77"/><circle class="cls-149" cx="77.91" cy="45.75" r="13.77"/><circle class="cls-150" cx="77.99" cy="46.68" r="13.77"/><circle class="cls-151" cx="78.06" cy="47.6" r="13.77"/><circle class="cls-152" cx="78.1" cy="48.53" r="13.77"/><circle class="cls-153" cx="78.12" cy="49.46" r="13.77"/><circle class="cls-154" cx="78.12" cy="50.39" r="13.77"/><circle class="cls-155" cx="78.1" cy="51.31" r="13.77"/><circle class="cls-156" cx="78.05" cy="52.24" r="13.77"/><circle class="cls-157" cx="77.99" cy="53.16" r="13.77"/><circle class="cls-158" cx="77.9" cy="54.07" r="13.77"/><circle class="cls-159" cx="77.78" cy="54.99" r="13.77"/><circle class="cls-160" cx="77.65" cy="55.9" r="13.77"/><circle class="cls-161" cx="77.5" cy="56.8" r="13.77"/><circle class="cls-162" cx="77.32" cy="57.7" r="13.77"/><circle class="cls-163" cx="77.12" cy="58.59" r="13.77"/><circle class="cls-164" cx="76.9" cy="59.47" r="13.77"/><circle class="cls-165" cx="76.66" cy="60.35" r="13.77"/><circle class="cls-166" cx="76.39" cy="61.22" r="13.77"/><circle class="cls-167" cx="76.11" cy="62.07" r="13.77"/><circle class="cls-168" cx="75.8" cy="62.92" r="13.77"/><circle class="cls-169" cx="75.47" cy="63.75" r="13.77"/><circle class="cls-170" cx="75.11" cy="64.57" r="13.77"/><circle class="cls-171" cx="74.74" cy="65.38" r="13.77"/><circle class="cls-172" cx="74.34" cy="66.18" r="13.77"/><circle class="cls-173" cx="73.92" cy="66.96" r="13.77"/><circle class="cls-174" cx="73.48" cy="67.73" r="13.77"/><circle class="cls-175" cx="73.02" cy="68.48" r="13.77"/><circle class="cls-176" cx="72.54" cy="69.21" r="13.77"/><circle class="cls-177" cx="72.03" cy="69.93" r="13.77"/><circle class="cls-178" cx="71.5" cy="70.63" r="13.77"/><circle class="cls-179" cx="70.95" cy="71.31" r="13.77"/><circle class="cls-180" cx="70.38" cy="71.98" r="13.77"/><circle class="cls-181" cx="69.79" cy="72.62" r="13.77"/><circle class="cls-182" cx="69.17" cy="73.24" r="13.77"/><circle class="cls-183" cx="68.54" cy="73.84" r="13.77"/><circle class="cls-184" cx="67.88" cy="74.42" r="13.77"/><circle class="cls-185" cx="67.2" cy="74.97" r="13.77"/><circle class="cls-186" cx="66.49" cy="75.5" r="13.77"/><circle class="cls-187" cx="65.77" cy="76.01" r="13.77"/><circle class="cls-188" cx="65.02" cy="76.49" r="13.77"/><circle class="cls-189" cx="64.25" cy="76.95" r="13.77"/><circle class="cls-190" cx="63.46" cy="77.38" r="13.77"/><circle class="cls-191" cx="62.65" cy="77.78" r="13.77"/><circle class="cls-192" cx="61.82" cy="78.15" r="13.77"/><circle class="cls-193" cx="60.96" cy="78.5" r="13.77"/><circle class="cls-194" cx="60.08" cy="78.82" r="13.77"/><circle class="cls-195" cx="59.18" cy="79.1" r="13.77"/><circle class="cls-196" cx="58.26" cy="79.36" r="13.77"/><circle class="cls-197" cx="57.32" cy="79.58" r="13.77"/><circle class="cls-198" cx="56.35" cy="79.77" r="13.77"/><circle class="cls-199" cx="55.36" cy="79.93" r="13.77"/><circle class="cls-200" cx="54.35" cy="80.05" r="13.77"/><circle class="cls-201" cx="53.32" cy="80.14" r="13.77"/><circle class="cls-202" cx="52.27" cy="80.2" r="13.77"/><circle class="cls-203" cx="51.2" cy="80.22" r="13.77"/></svg>