<svg id="Layer_1" data-name="Layer 1" xmlns="http://www.w3.org/2000/svg" xmlns:xlink="http://www.w3.org/1999/xlink" viewBox="0 0 101 99"><defs><style>.cls-1{fill:url(#linear-gradient);}.cls-2{fill:url(#linear-gradient-2);}.cls-3{fill:url(#linear-gradient-3);}.cls-4{fill:url(#linear-gradient-4);}.cls-5{fill:url(#linear-gradient-5);}.cls-6{fill:url(#linear-gradient-6);}.cls-7{fill:url(#linear-gradient-7);}.cls-8{fill:url(#linear-gradient-8);}.cls-9{fill:url(#linear-gradient-9);}.cls-10{fill:url(#linear-gradient-10);}.cls-11{fill:url(#linear-gradient-11);}.cls-12{fill:url(#linear-gradient-12);}.cls-13{fill:url(#linear-gradient-13);}.cls-14{fill:url(#linear-gradient-14);}.cls-15{fill:url(#linear-gradient-15);}.cls-16{fill:url(#linear-gradient-16);}.cls-17{fill:url(#linear-gradient-17);}.cls-18{fill:url(#linear-gradient-18);}.cls-19{fill:url(#linear-gradient-19);}.cls-20{fill:url(#linear-gradient-20);}.cls-21{fill:url(#linear-gradient-21);}.cls-22{fill:url(#linear-gradient-22);}.cls-23{fill:url(#linear-gradient-23);}.cls-24{fill:url(#linear-gradient-24);}.cls-25{fill:url(#linear-gradient-25);}.cls-26{fill:url(#linear-gradient-26);}.cls-27{fill:url(#linear-gradient-27);}.cls-28{fill:url(#linear-gradient-28);}.cls-29{fill:url(#linear-gradient-29);}.cls-30{fill:url(#linear-gradient-30);}.cls-31{fill:url(#linear-gradient-31);}.cls-32{fill:url(#linear-gradient-32);}.cls-33{fill:url(#linear-gradient-33);}.cls-34{fill:url(#linear-gradient-34);}.cls-35{fill:url(#linear-gradient-35);}.cls-36{fill:url(#linear-gradient-36);}.cls-37{fill:url(#linear-gradient-37);}.cls-38{fill:url(#linear-gradient-38);}.cls-39{fill:url(#linear-gradient-39);}.cls-40{fill:url(#linear-gradient-40);}.cls-41{fill:url(#linear-gradient-41);}.cls-42{fill:url(#linear-gradient-42);}.cls-43{fill:url(#linear-gradient-43);}.cls-44{fill:url(#linear-gradient-44);}.cls-45{fill:url(#linear-gradient-45);}.cls-46{fill:url(#linear-gradient-46);}.cls-47{fill:url(#linear-gradient-47);}.cls-48{fill:url(#linear-gradient-48);}.cls-49{fill:url(#linear-gradient-49);}.cls-50{fill:url(#linear-gradient-50);}.cls-51{fill:url(#linear-gradient-51);}.cls-52{fill:url(#linear-gradient-52);}.cls-53{fill:url(#linear-gradient-53);}.cls-54{fill:url(#linear-gradient-54);}.cls-55{fill:url(#linear-gradient-55);}.cls-56{fill:url(#linear-gradient-56);}.cls-57{fill:url(#linear-gradient-57);}.cls-58{fill:url(#linear-gradient-58);}.cls-59{fill:url(#linear-gradient-59);}.cls-60{fill:url(#linear-gradient-60);}.cls-61{fill:url(#linear-gradient-61);}.cls-62{fill:url(#linear-gradient-62);}.cls-63{fill:url(#linear-gradient-63);}.cls-64{fill:url(#linear-gradient-64);}.cls-65{fill:url(#linear-gradient-65);}.cls-66{fill:url(#linear-gradient-66);}.cls-67{fill:url(#linear-gradient-67);}.cls-68{fill:url(#linear-gradient-68);}.cls-69{fill:url(#linear-gradient-69);}.cls-70{fill:url(#linear-gradient-70);}.cls-71{fill:url(#linear-gradient-71);}.cls-72{fill:url(#linear-gradient-72);}.cls-73{fill:url(#linear-gradient-73);}.cls-74{fill:url(#linear-gradient-74);}.cls-75{fill:url(#linear-gradient-75);}.cls-76{fill:url(#linear-gradient-76);}.cls-77{fill:url(#linear-gradient-77);}.cls-78{fill:url(#linear-gradient-78);}.cls-79{fill:url(#linear-gradient-79);}.cls-80{fill:url(#linear-gradient-80);}.cls-81{fill:url(#linear-gradient-81);}.cls-82{fill:url(#linear-gradient-82);}.cls-83{fill:url(#linear-gradient-83);}.cls-84{fill:url(#linear-gradient-84);}.cls-85{fill:url(#linear-gradient-85);}.cls-86{fill:url(#linear-gradient-86);}.cls-87{fill:url(#linear-gradient-87);}.cls-88{fill:url(#linear-gradient-88);}.cls-89{fill:url(#linear-gradient-89);}.cls-90{fill:url(#linear-gradient-90);}.cls-91{fill:url(#linear-gradient-91);}.cls-92{fill:url(#linear-gradient-92);}.cls-93{fill:url(#linear-gradient-93);}.cls-94{fill:url(#linear-gradient-94);}.cls-95{fill:url(#linear-gradient-95);}.cls-96{fill:url(#linear-gradient-96);}.cls-97{fill:url(#linear-gradient-97);}.cls-98{fill:url(#linear-gradient-98);}.cls-99{fill:url(#linear-gradient-99);}.cls-100{fill:url(#linear-gradient-100);}.cls-101{fill:url(#linear-gradient-101);}.cls-102{fill:url(#linear-gradient-102);}.cls-103{fill:url(#linear-gradient-103);}.cls-104{fill:url(#linear-gradient-104);}.cls-105{fill:url(#linear-gradient-105);}.cls-106{fill:url(#linear-gradient-106);}.cls-107{fill:url(#linear-gradient-107);}.cls-108{fill:url(#linear-gradient-108);}.cls-109{fill:url(#linear-gradient-109);}.cls-110{fill:url(#linear-gradient-110);}.cls-111{fill:url(#linear-gradient-111);}.cls-112{fill:url(#linear-gradient-112);}.cls-113{fill:url(#linear-gradient-113);}.cls-114{fill:url(#linear-gradient-114);}.cls-115{fill:url(#linear-gradient-115);}.cls-116{fill:url(#linear-gradient-116);}.cls-117{fill:url(#linear-gradient-117);}.cls-118{fill:url(#linear-gradient-118);}.cls-119{fill:url(#linear-gradient-119);}.cls-120{fill:url(#linear-gradient-120);}.cls-121{fill:url(#linear-gradient-121);}.cls-122{fill:url(#linear-gradient-122);}.cls-123{fill:url(#linear-gradient-123);}.cls-124{fill:url(#linear-gradient-124);}.cls-125{fill:url(#linear-gradient-125);}.cls-126{fill:url(#linear-gradient-126);}.cls-127{fill:url(#linear-gradient-127);}.cls-128{fill:url(#linear-gradient-128);}.cls-129{fill:url(#linear-gradient-129);}.cls-130{fill:url(#linear-gradient-130);}.cls-131{fill:url(#linear-gradient-131);}.cls-132{fill:url(#linear-gradient-132);}.cls-133{fill:url(#linear-gradient-133);}.cls-134{fill:url(#linear-gradient-134);}.cls-135{fill:url(#linear-gradient-135);}.cls-136{fill:url(#linear-gradient-136);}.cls-137{fill:url(#linear-gradient-137);}.cls-138{fill:url(#linear-gradient-138);}.cls-139{fill:url(#linear-gradient-139);}.cls-140{fill:url(#linear-gradient-140);}.cls-141{fill:url(#linear-gradient-141);}.cls-142{fill:url(#linear-gradient-142);}.cls-143{fill:url(#linear-gradient-143);}.cls-144{fill:url(#linear-gradient-144);}.cls-145{fill:url(#linear-gradient-145);}.cls-146{fill:url(#linear-gradient-146);}.cls-147{fill:url(#linear-gradient-147);}.cls-148{fill:url(#linear-gradient-148);}.cls-149{fill:url(#linear-gradient-149);}.cls-150{fill:url(#linear-gradient-150);}.cls-151{fill:url(#linear-gradient-151);}.cls-152{fill:url(#linear-gradient-152);}.cls-153{fill:url(#linear-gradient-153);}.cls-154{fill:url(#linear-gradient-154);}.cls-155{fill:url(#linear-gradient-155);}.cls-156{fill:url(#linear-gradient-156);}.cls-157{fill:url(#linear-gradient-157);}.cls-158{fill:url(#linear-gradient-158);}.cls-159{fill:url(#linear-gradient-159);}.cls-160{fill:url(#linear-gradient-160);}.cls-161{fill:url(#linear-gradient-161);}.cls-162{fill:url(#linear-gradient-162);}.cls-163{fill:url(#linear-gradient-163);}.cls-164{fill:url(#linear-gradient-164);}.cls-165{fill:url(#linear-gradient-165);}.cls-166{fill:url(#linear-gradient-166);}.cls-167{fill:url(#linear-gradient-167);}.cls-168{fill:url(#linear-gradient-168);}.cls-169{fill:url(#linear-gradient-169);}.cls-170{fill:url(#linear-gradient-170);}.cls-171{fill:url(#linear-gradient-171);}.cls-172{fill:url(#linear-gradient-172);}.cls-173{fill:url(#linear-gradient-173);}.cls-174{fill:url(#linear-gradient-174);}.cls-175{fill:url(#linear-gradient-175);}.cls-176{fill:url(#linear-gradient-176);}.cls-177{fill:url(#linear-gradient-177);}.cls-178{fill:url(#linear-gradient-178);}.cls-179{fill:url(#linear-gradient-179);}.cls-180{fill:url(#linear-gradient-180);}.cls-181{fill:url(#linear-gradient-181);}.cls-182{fill:url(#linear-gradient-182);}.cls-183{fill:url(#linear-gradient-183);}.cls-184{fill:url(#linear-gradient-184);}.cls-185{fill:url(#linear-gradient-185);}.cls-186{fill:url(#linear-gradient-186);}.cls-187{fill:url(#linear-gradient-187);}.cls-188{fill:url(#linear-gradient-188);}.cls-189{fill:url(#linear-gradient-189);}.cls-190{fill:url(#linear-gradient-190);}.cls-191{fill:url(#linear-gradient-191);}.cls-192{fill:url(#linear-gradient-192);}.cls-193{fill:url(#linear-gradient-193);}.cls-194{fill:url(#linear-gradient-194);}.cls-195{fill:url(#linear-gradient-195);}.cls-196{fill:url(#linear-gradient-196);}.cls-197{fill:url(#linear-gradient-197);}.cls-198{fill:url(#linear-gradient-198);}.cls-199{fill:url(#linear-gradient-199);}.cls-200{fill:url(#linear-gradient-200);}.cls-201{fill:url(#linear-gradient-201);}.cls-202{fill:url(#linear-gradient-202);}.cls-203{fill:url(#linear-gradient-203);}</style><linearGradient id="linear-gradient" x1="14.83" y1="79.97" x2="43.59" y2="79.97" gradientUnits="userSpaceOnUse"><stop offset="0.12" stop-color="#fd80d7"/><stop offset="0.98" stop-color="#ff5c55"/></linearGradient><linearGradient id="linear-gradient-2" x1="14.82" y1="78.54" x2="43.58" y2="78.54" xlink:href="#linear-gradient"/><linearGradient id="linear-gradient-3" x1="14.8" y1="77.11" x2="43.57" y2="77.11" xlink:href="#linear-gradient"/><linearGradient id="linear-gradient-4" x1="14.79" y1="75.68" x2="43.55" y2="75.68" xlink:href="#linear-gradient"/><linearGradient id="linear-gradient-5" x1="14.77" y1="74.26" x2="43.54" y2="74.26" xlink:href="#linear-gradient"/><linearGradient id="linear-gradient-6" x1="14.76" y1="72.83" x2="43.52" y2="72.83" xlink:href="#linear-gradient"/><linearGradient id="linear-gradient-7" x1="14.75" y1="71.4" x2="43.51" y2="71.4" xlink:href="#linear-gradient"/><linearGradient id="linear-gradient-8" x1="14.73" y1="69.97" x2="43.5" y2="69.97" xlink:href="#linear-gradient"/><linearGradient id="linear-gradient-9" x1="14.72" y1="68.54" x2="43.48" y2="68.54" xlink:href="#linear-gradient"/><linearGradient id="linear-gradient-10" x1="14.7" y1="67.11" x2="43.47" y2="67.11" xlink:href="#linear-gradient"/><linearGradient id="linear-gradient-11" x1="14.69" y1="65.68" x2="43.45" y2="65.68" xlink:href="#linear-gradient"/><linearGradient id="linear-gradient-12" x1="14.68" y1="64.25" x2="43.44" y2="64.25" xlink:href="#linear-gradient"/><linearGradient id="linear-gradient-13" x1="14.66" y1="62.83" x2="43.43" y2="62.83" xlink:href="#linear-gradient"/><linearGradient id="linear-gradient-14" x1="14.65" y1="61.4" x2="43.41" y2="61.4" xlink:href="#linear-gradient"/><linearGradient id="linear-gradient-15" x1="14.63" y1="59.97" x2="43.4" y2="59.97" xlink:href="#linear-gradient"/><linearGradient id="linear-gradient-16" x1="14.62" y1="58.54" x2="43.38" y2="58.54" xlink:href="#linear-gradient"/><linearGradient id="linear-gradient-17" x1="14.61" y1="57.11" x2="43.37" y2="57.11" xlink:href="#linear-gradient"/><linearGradient id="linear-gradient-18" x1="14.59" y1="55.68" x2="43.36" y2="55.68" xlink:href="#linear-gradient"/><linearGradient id="linear-gradient-19" x1="14.58" y1="54.25" x2="43.34" y2="54.25" xlink:href="#linear-gradient"/><linearGradient id="linear-gradient-20" x1="14.56" y1="52.83" x2="43.33" y2="52.83" xlink:href="#linear-gradient"/><linearGradient id="linear-gradient-21" x1="14.55" y1="51.4" x2="43.32" y2="51.4" xlink:href="#linear-gradient"/><linearGradient id="linear-gradient-22" x1="14.54" y1="49.97" x2="43.3" y2="49.97" xlink:href="#linear-gradient"/><linearGradient id="linear-gradient-23" x1="14.53" y1="48.54" x2="43.29" y2="48.54" xlink:href="#linear-gradient"/><linearGradient id="linear-gradient-24" x1="14.52" y1="47.11" x2="43.28" y2="47.11" xlink:href="#linear-gradient"/><linearGradient id="linear-gradient-25" x1="14.51" y1="45.68" x2="43.27" y2="45.68" xlink:href="#linear-gradient"/><linearGradient id="linear-gradient-26" x1="14.49" y1="44.25" x2="43.26" y2="44.25" xlink:href="#linear-gradient"/><linearGradient id="linear-gradient-27" x1="14.48" y1="42.83" x2="43.25" y2="42.83" xlink:href="#linear-gradient"/><linearGradient id="linear-gradient-28" x1="14.47" y1="41.4" x2="43.24" y2="41.4" xlink:href="#linear-gradient"/><linearGradient id="linear-gradient-29" x1="14.46" y1="39.97" x2="43.22" y2="39.97" xlink:href="#linear-gradient"/><linearGradient id="linear-gradient-30" x1="14.45" y1="38.54" x2="43.21" y2="38.54" xlink:href="#linear-gradient"/><linearGradient id="linear-gradient-31" x1="14.44" y1="37.11" x2="43.2" y2="37.11" xlink:href="#linear-gradient"/><linearGradient id="linear-gradient-32" x1="14.43" y1="35.68" x2="43.19" y2="35.68" xlink:href="#linear-gradient"/><linearGradient id="linear-gradient-33" x1="14.42" y1="34.25" x2="43.18" y2="34.25" xlink:href="#linear-gradient"/><linearGradient id="linear-gradient-34" x1="14.4" y1="32.82" x2="43.17" y2="32.82" xlink:href="#linear-gradient"/><linearGradient id="linear-gradient-35" x1="14.39" y1="31.4" x2="43.16" y2="31.4" xlink:href="#linear-gradient"/><linearGradient id="linear-gradient-36" x1="14.38" y1="29.97" x2="43.14" y2="29.97" xlink:href="#linear-gradient"/><linearGradient id="linear-gradient-37" x1="14.37" y1="28.54" x2="43.13" y2="28.54" xlink:href="#linear-gradient"/><linearGradient id="linear-gradient-38" x1="14.36" y1="27.11" x2="43.12" y2="27.11" xlink:href="#linear-gradient"/><linearGradient id="linear-gradient-39" x1="14.35" y1="25.68" x2="43.11" y2="25.68" xlink:href="#linear-gradient"/><linearGradient id="linear-gradient-40" x1="14.34" y1="24.25" x2="43.1" y2="24.25" xlink:href="#linear-gradient"/><linearGradient id="linear-gradient-41" x1="14.32" y1="22.82" x2="43.09" y2="22.82" xlink:href="#linear-gradient"/><linearGradient id="linear-gradient-42" x1="14.31" y1="21.4" x2="43.08" y2="21.4" xlink:href="#linear-gradient"/><linearGradient id="linear-gradient-43" x1="14.3" y1="19.97" x2="43.07" y2="19.97" xlink:href="#linear-gradient"/><linearGradient id="linear-gradient-44" x1="14.29" y1="18.54" x2="43.05" y2="18.54" xlink:href="#linear-gradient"/><linearGradient id="linear-gradient-45" x1="14.3" y1="17.51" x2="43.06" y2="17.51" xlink:href="#linear-gradient"/><linearGradient id="linear-gradient-46" x1="14.6" y1="17.51" x2="43.36" y2="17.51" xlink:href="#linear-gradient"/><linearGradient id="linear-gradient-47" x1="15.24" y1="17.51" x2="44" y2="17.51" xlink:href="#linear-gradient"/><linearGradient id="linear-gradient-48" x1="16.19" y1="17.51" x2="44.95" y2="17.51" xlink:href="#linear-gradient"/><linearGradient id="linear-gradient-49" x1="17.4" y1="17.51" x2="46.16" y2="17.51" xlink:href="#linear-gradient"/><linearGradient id="linear-gradient-50" x1="18.83" y1="17.51" x2="47.59" y2="17.51" xlink:href="#linear-gradient"/><linearGradient id="linear-gradient-51" x1="20.44" y1="17.51" x2="49.2" y2="17.51" xlink:href="#linear-gradient"/><linearGradient id="linear-gradient-52" x1="22.18" y1="17.51" x2="50.95" y2="17.51" xlink:href="#linear-gradient"/><linearGradient id="linear-gradient-53" x1="24.02" y1="17.51" x2="52.79" y2="17.51" xlink:href="#linear-gradient"/><linearGradient id="linear-gradient-54" x1="25.92" y1="17.51" x2="54.68" y2="17.51" xlink:href="#linear-gradient"/><linearGradient id="linear-gradient-55" x1="27.82" y1="17.51" x2="56.58" y2="17.51" xlink:href="#linear-gradient"/><linearGradient id="linear-gradient-56" x1="29.69" y1="17.51" x2="58.46" y2="17.51" xlink:href="#linear-gradient"/><linearGradient id="linear-gradient-57" x1="31.49" y1="17.51" x2="60.26" y2="17.51" xlink:href="#linear-gradient"/><linearGradient id="linear-gradient-58" x1="33.18" y1="17.51" x2="61.94" y2="17.51" xlink:href="#linear-gradient"/><linearGradient id="linear-gradient-59" x1="34.71" y1="17.51" x2="63.47" y2="17.51" xlink:href="#linear-gradient"/><linearGradient id="linear-gradient-60" x1="36.38" y1="17.53" x2="65.14" y2="17.53" xlink:href="#linear-gradient"/><linearGradient id="linear-gradient-61" x1="38.23" y1="17.66" x2="67" y2="17.66" xlink:href="#linear-gradient"/><linearGradient id="linear-gradient-62" x1="39.99" y1="17.92" x2="68.76" y2="17.92" xlink:href="#linear-gradient"/><linearGradient id="linear-gradient-63" x1="41.65" y1="18.3" x2="70.41" y2="18.3" xlink:href="#linear-gradient"/><linearGradient id="linear-gradient-64" x1="43.21" y1="18.79" x2="71.97" y2="18.79" xlink:href="#linear-gradient"/><linearGradient id="linear-gradient-65" x1="44.66" y1="19.38" x2="73.43" y2="19.38" xlink:href="#linear-gradient"/><linearGradient id="linear-gradient-66" x1="46.02" y1="20.07" x2="74.78" y2="20.07" xlink:href="#linear-gradient"/><linearGradient id="linear-gradient-67" x1="47.28" y1="20.85" x2="76.04" y2="20.85" xlink:href="#linear-gradient"/><linearGradient id="linear-gradient-68" x1="48.44" y1="21.72" x2="77.21" y2="21.72" xlink:href="#linear-gradient"/><linearGradient id="linear-gradient-69" x1="49.51" y1="22.66" x2="78.27" y2="22.66" xlink:href="#linear-gradient"/><linearGradient id="linear-gradient-70" x1="50.47" y1="23.67" x2="79.24" y2="23.67" xlink:href="#linear-gradient"/><linearGradient id="linear-gradient-71" x1="51.34" y1="24.74" x2="80.1" y2="24.74" xlink:href="#linear-gradient"/><linearGradient id="linear-gradient-72" x1="52.11" y1="25.87" x2="80.88" y2="25.87" xlink:href="#linear-gradient"/><linearGradient id="linear-gradient-73" x1="52.79" y1="27.05" x2="81.55" y2="27.05" xlink:href="#linear-gradient"/><linearGradient id="linear-gradient-74" x1="53.37" y1="28.27" x2="82.13" y2="28.27" xlink:href="#linear-gradient"/><linearGradient id="linear-gradient-75" x1="53.85" y1="29.53" x2="82.62" y2="29.53" xlink:href="#linear-gradient"/><linearGradient id="linear-gradient-76" x1="54.24" y1="30.82" x2="83.01" y2="30.82" xlink:href="#linear-gradient"/><linearGradient id="linear-gradient-77" x1="54.54" y1="32.12" x2="83.3" y2="32.12" xlink:href="#linear-gradient"/><linearGradient id="linear-gradient-78" x1="54.74" y1="33.45" x2="83.5" y2="33.45" xlink:href="#linear-gradient"/><linearGradient id="linear-gradient-79" x1="54.84" y1="34.77" x2="83.61" y2="34.77" xlink:href="#linear-gradient"/><linearGradient id="linear-gradient-80" x1="54.86" y1="36.11" x2="83.62" y2="36.11" xlink:href="#linear-gradient"/><linearGradient id="linear-gradient-81" x1="54.78" y1="37.43" x2="83.54" y2="37.43" xlink:href="#linear-gradient"/><linearGradient id="linear-gradient-82" x1="54.6" y1="38.74" x2="83.37" y2="38.74" xlink:href="#linear-gradient"/><linearGradient id="linear-gradient-83" x1="54.34" y1="40.03" x2="83.1" y2="40.03" xlink:href="#linear-gradient"/><linearGradient id="linear-gradient-84" x1="53.98" y1="41.3" x2="82.74" y2="41.3" xlink:href="#linear-gradient"/><linearGradient id="linear-gradient-85" x1="53.53" y1="42.53" x2="82.29" y2="42.53" xlink:href="#linear-gradient"/><linearGradient id="linear-gradient-86" x1="52.99" y1="43.72" x2="81.75" y2="43.72" xlink:href="#linear-gradient"/><linearGradient id="linear-gradient-87" x1="52.36" y1="44.86" x2="81.12" y2="44.86" xlink:href="#linear-gradient"/><linearGradient id="linear-gradient-88" x1="51.63" y1="45.95" x2="80.4" y2="45.95" xlink:href="#linear-gradient"/><linearGradient id="linear-gradient-89" x1="50.76" y1="47.06" x2="79.52" y2="47.06" xlink:href="#linear-gradient"/><linearGradient id="linear-gradient-90" x1="49.48" y1="48.34" x2="78.24" y2="48.34" xlink:href="#linear-gradient"/><linearGradient id="linear-gradient-91" x1="48.03" y1="49.52" x2="76.8" y2="49.52" xlink:href="#linear-gradient"/><linearGradient id="linear-gradient-92" x1="46.47" y1="50.58" x2="75.24" y2="50.58" xlink:href="#linear-gradient"/><linearGradient id="linear-gradient-93" x1="44.84" y1="51.54" x2="73.6" y2="51.54" xlink:href="#linear-gradient"/><linearGradient id="linear-gradient-94" x1="43.18" y1="52.39" x2="71.94" y2="52.39" xlink:href="#linear-gradient"/><linearGradient id="linear-gradient-95" x1="41.54" y1="53.13" x2="70.3" y2="53.13" xlink:href="#linear-gradient"/><linearGradient id="linear-gradient-96" x1="39.97" y1="53.77" x2="68.73" y2="53.77" xlink:href="#linear-gradient"/><linearGradient id="linear-gradient-97" x1="38.52" y1="54.31" x2="67.28" y2="54.31" xlink:href="#linear-gradient"/><linearGradient id="linear-gradient-98" x1="37.22" y1="54.74" x2="65.98" y2="54.74" xlink:href="#linear-gradient"/><linearGradient id="linear-gradient-99" x1="36.13" y1="55.08" x2="64.89" y2="55.08" xlink:href="#linear-gradient"/><linearGradient id="linear-gradient-100" x1="35.3" y1="55.32" x2="64.06" y2="55.32" xlink:href="#linear-gradient"/><linearGradient id="linear-gradient-101" x1="34.76" y1="55.46" x2="63.52" y2="55.46" xlink:href="#linear-gradient"/><linearGradient id="linear-gradient-102" x1="34.57" y1="55.51" x2="63.34" y2="55.51" xlink:href="#linear-gradient"/><linearGradient id="linear-gradient-103" x1="34.77" y1="55.75" x2="63.54" y2="55.75" xlink:href="#linear-gradient"/><linearGradient id="linear-gradient-104" x1="34.97" y1="55.99" x2="63.74" y2="55.99" xlink:href="#linear-gradient"/><linearGradient id="linear-gradient-105" x1="35.18" y1="56.23" x2="63.94" y2="56.23" xlink:href="#linear-gradient"/><linearGradient id="linear-gradient-106" x1="35.38" y1="56.48" x2="64.14" y2="56.48" xlink:href="#linear-gradient"/><linearGradient id="linear-gradient-107" x1="35.58" y1="56.72" x2="64.34" y2="56.72" xlink:href="#linear-gradient"/><linearGradient id="linear-gradient-108" x1="35.78" y1="56.96" x2="64.54" y2="56.96" xlink:href="#linear-gradient"/><linearGradient id="linear-gradient-109" x1="35.98" y1="57.2" x2="64.74" y2="57.2" xlink:href="#linear-gradient"/><linearGradient id="linear-gradient-110" x1="36.18" y1="57.44" x2="64.94" y2="57.44" xlink:href="#linear-gradient"/><linearGradient id="linear-gradient-111" x1="36.38" y1="57.69" x2="65.14" y2="57.69" xlink:href="#linear-gradient"/><linearGradient id="linear-gradient-112" x1="36.58" y1="57.93" x2="65.35" y2="57.93" xlink:href="#linear-gradient"/><linearGradient id="linear-gradient-113" x1="36.78" y1="58.17" x2="65.55" y2="58.17" xlink:href="#linear-gradient"/><linearGradient id="linear-gradient-114" x1="36.98" y1="58.41" x2="65.75" y2="58.41" xlink:href="#linear-gradient"/><linearGradient id="linear-gradient-115" x1="37.18" y1="58.66" x2="65.95" y2="58.66" xlink:href="#linear-gradient"/><linearGradient id="linear-gradient-116" x1="37.39" y1="58.9" x2="66.15" y2="58.9" xlink:href="#linear-gradient"/><linearGradient id="linear-gradient-117" x1="37.59" y1="59.14" x2="66.35" y2="59.14" xlink:href="#linear-gradient"/><linearGradient id="linear-gradient-118" x1="37.79" y1="59.38" x2="66.55" y2="59.38" xlink:href="#linear-gradient"/><linearGradient id="linear-gradient-119" x1="37.99" y1="59.62" x2="66.75" y2="59.62" xlink:href="#linear-gradient"/><linearGradient id="linear-gradient-120" x1="38.19" y1="59.87" x2="66.95" y2="59.87" xlink:href="#linear-gradient"/><linearGradient id="linear-gradient-121" x1="38.39" y1="60.11" x2="67.15" y2="60.11" xlink:href="#linear-gradient"/><linearGradient id="linear-gradient-122" x1="38.59" y1="60.35" x2="67.35" y2="60.35" xlink:href="#linear-gradient"/><linearGradient id="linear-gradient-123" x1="38.79" y1="60.59" x2="67.56" y2="60.59" xlink:href="#linear-gradient"/><linearGradient id="linear-gradient-124" x1="38.99" y1="60.84" x2="67.76" y2="60.84" xlink:href="#linear-gradient"/><linearGradient id="linear-gradient-125" x1="39.19" y1="61.08" x2="67.96" y2="61.08" xlink:href="#linear-gradient"/><linearGradient id="linear-gradient-126" x1="39.39" y1="61.32" x2="68.16" y2="61.32" xlink:href="#linear-gradient"/><linearGradient id="linear-gradient-127" x1="39.6" y1="61.56" x2="68.36" y2="61.56" xlink:href="#linear-gradient"/><linearGradient id="linear-gradient-128" x1="39.8" y1="61.8" x2="68.56" y2="61.8" xlink:href="#linear-gradient"/><linearGradient id="linear-gradient-129" x1="40" y1="62.05" x2="68.76" y2="62.05" xlink:href="#linear-gradient"/><linearGradient id="linear-gradient-130" x1="40.2" y1="62.29" x2="68.96" y2="62.29" xlink:href="#linear-gradient"/><linearGradient id="linear-gradient-131" x1="40.4" y1="62.53" x2="69.16" y2="62.53" xlink:href="#linear-gradient"/><linearGradient id="linear-gradient-132" x1="40.6" y1="62.77" x2="69.36" y2="62.77" xlink:href="#linear-gradient"/><linearGradient id="linear-gradient-133" x1="40.8" y1="63.02" x2="69.56" y2="63.02" xlink:href="#linear-gradient"/><linearGradient id="linear-gradient-134" x1="41" y1="63.26" x2="69.76" y2="63.26" xlink:href="#linear-gradient"/><linearGradient id="linear-gradient-135" x1="41.2" y1="63.5" x2="69.97" y2="63.5" xlink:href="#linear-gradient"/><linearGradient id="linear-gradient-136" x1="41.4" y1="63.74" x2="70.17" y2="63.74" xlink:href="#linear-gradient"/><linearGradient id="linear-gradient-137" x1="41.6" y1="63.98" x2="70.37" y2="63.98" xlink:href="#linear-gradient"/><linearGradient id="linear-gradient-138" x1="41.8" y1="64.23" x2="70.57" y2="64.23" xlink:href="#linear-gradient"/><linearGradient id="linear-gradient-139" x1="42.01" y1="64.47" x2="70.77" y2="64.47" xlink:href="#linear-gradient"/><linearGradient id="linear-gradient-140" x1="42.21" y1="64.71" x2="70.97" y2="64.71" xlink:href="#linear-gradient"/><linearGradient id="linear-gradient-141" x1="42.41" y1="64.95" x2="71.17" y2="64.95" xlink:href="#linear-gradient"/><linearGradient id="linear-gradient-142" x1="42.61" y1="65.2" x2="71.37" y2="65.2" xlink:href="#linear-gradient"/><linearGradient id="linear-gradient-143" x1="42.81" y1="65.44" x2="71.57" y2="65.44" xlink:href="#linear-gradient"/><linearGradient id="linear-gradient-144" x1="43.01" y1="65.68" x2="71.77" y2="65.68" xlink:href="#linear-gradient"/><linearGradient id="linear-gradient-145" x1="43.21" y1="65.92" x2="71.97" y2="65.92" xlink:href="#linear-gradient"/><linearGradient id="linear-gradient-146" x1="43.41" y1="66.16" x2="72.18" y2="66.16" xlink:href="#linear-gradient"/><linearGradient id="linear-gradient-147" x1="43.61" y1="66.41" x2="72.38" y2="66.41" xlink:href="#linear-gradient"/><linearGradient id="linear-gradient-148" x1="43.81" y1="66.65" x2="72.58" y2="66.65" xlink:href="#linear-gradient"/><linearGradient id="linear-gradient-149" x1="44.01" y1="66.89" x2="72.78" y2="66.89" xlink:href="#linear-gradient"/><linearGradient id="linear-gradient-150" x1="44.22" y1="67.13" x2="72.98" y2="67.13" xlink:href="#linear-gradient"/><linearGradient id="linear-gradient-151" x1="44.42" y1="67.38" x2="73.18" y2="67.38" xlink:href="#linear-gradient"/><linearGradient id="linear-gradient-152" x1="44.62" y1="67.62" x2="73.38" y2="67.62" xlink:href="#linear-gradient"/><linearGradient id="linear-gradient-153" x1="44.82" y1="67.86" x2="73.58" y2="67.86" xlink:href="#linear-gradient"/><linearGradient id="linear-gradient-154" x1="45.02" y1="68.1" x2="73.78" y2="68.1" xlink:href="#linear-gradient"/><linearGradient id="linear-gradient-155" x1="45.22" y1="68.34" x2="73.98" y2="68.34" xlink:href="#linear-gradient"/><linearGradient id="linear-gradient-156" x1="45.42" y1="68.59" x2="74.18" y2="68.59" xlink:href="#linear-gradient"/><linearGradient id="linear-gradient-157" x1="45.62" y1="68.83" x2="74.39" y2="68.83" xlink:href="#linear-gradient"/><linearGradient id="linear-gradient-158" x1="45.82" y1="69.07" x2="74.59" y2="69.07" xlink:href="#linear-gradient"/><linearGradient id="linear-gradient-159" x1="46.02" y1="69.31" x2="74.79" y2="69.31" xlink:href="#linear-gradient"/><linearGradient id="linear-gradient-160" x1="46.22" y1="69.56" x2="74.99" y2="69.56" xlink:href="#linear-gradient"/><linearGradient id="linear-gradient-161" x1="46.43" y1="69.8" x2="75.19" y2="69.8" xlink:href="#linear-gradient"/><linearGradient id="linear-gradient-162" x1="46.63" y1="70.04" x2="75.39" y2="70.04" xlink:href="#linear-gradient"/><linearGradient id="linear-gradient-163" x1="46.83" y1="70.28" x2="75.59" y2="70.28" xlink:href="#linear-gradient"/><linearGradient id="linear-gradient-164" x1="47.03" y1="70.52" x2="75.79" y2="70.52" xlink:href="#linear-gradient"/><linearGradient id="linear-gradient-165" x1="47.23" y1="70.77" x2="75.99" y2="70.77" xlink:href="#linear-gradient"/><linearGradient id="linear-gradient-166" x1="47.43" y1="71.01" x2="76.19" y2="71.01" xlink:href="#linear-gradient"/><linearGradient id="linear-gradient-167" x1="47.63" y1="71.25" x2="76.39" y2="71.25" xlink:href="#linear-gradient"/><linearGradient id="linear-gradient-168" x1="47.83" y1="71.49" x2="76.6" y2="71.49" xlink:href="#linear-gradient"/><linearGradient id="linear-gradient-169" x1="48.03" y1="71.73" x2="76.8" y2="71.73" xlink:href="#linear-gradient"/><linearGradient id="linear-gradient-170" x1="48.23" y1="71.98" x2="77" y2="71.98" xlink:href="#linear-gradient"/><linearGradient id="linear-gradient-171" x1="48.43" y1="72.22" x2="77.2" y2="72.22" xlink:href="#linear-gradient"/><linearGradient id="linear-gradient-172" x1="48.64" y1="72.46" x2="77.4" y2="72.46" xlink:href="#linear-gradient"/><linearGradient id="linear-gradient-173" x1="48.84" y1="72.7" x2="77.6" y2="72.7" xlink:href="#linear-gradient"/><linearGradient id="linear-gradient-174" x1="49.04" y1="72.95" x2="77.8" y2="72.95" xlink:href="#linear-gradient"/><linearGradient id="linear-gradient-175" x1="49.24" y1="73.19" x2="78" y2="73.19" xlink:href="#linear-gradient"/><linearGradient id="linear-gradient-176" x1="49.44" y1="73.43" x2="78.2" y2="73.43" xlink:href="#linear-gradient"/><linearGradient id="linear-gradient-177" x1="49.64" y1="73.67" x2="78.4" y2="73.67" xlink:href="#linear-gradient"/><linearGradient id="linear-gradient-178" x1="49.84" y1="73.91" x2="78.6" y2="73.91" xlink:href="#linear-gradient"/><linearGradient id="linear-gradient-179" x1="50.04" y1="74.16" x2="78.81" y2="74.16" xlink:href="#linear-gradient"/><linearGradient id="linear-gradient-180" x1="50.24" y1="74.4" x2="79.01" y2="74.4" xlink:href="#linear-gradient"/><linearGradient id="linear-gradient-181" x1="50.44" y1="74.64" x2="79.21" y2="74.64" xlink:href="#linear-gradient"/><linearGradient id="linear-gradient-182" x1="50.64" y1="74.88" x2="79.41" y2="74.88" xlink:href="#linear-gradient"/><linearGradient id="linear-gradient-183" x1="50.85" y1="75.13" x2="79.61" y2="75.13" xlink:href="#linear-gradient"/><linearGradient id="linear-gradient-184" x1="51.05" y1="75.37" x2="79.81" y2="75.37" xlink:href="#linear-gradient"/><linearGradient id="linear-gradient-185" x1="51.25" y1="75.61" x2="80.01" y2="75.61" xlink:href="#linear-gradient"/><linearGradient id="linear-gradient-186" x1="51.45" y1="75.85" x2="80.21" y2="75.85" xlink:href="#linear-gradient"/><linearGradient id="linear-gradient-187" x1="51.65" y1="76.09" x2="80.41" y2="76.09" xlink:href="#linear-gradient"/><linearGradient id="linear-gradient-188" x1="51.85" y1="76.34" x2="80.61" y2="76.34" xlink:href="#linear-gradient"/><linearGradient id="linear-gradient-189" x1="52.05" y1="76.58" x2="80.81" y2="76.58" xlink:href="#linear-gradient"/><linearGradient id="linear-gradient-190" x1="52.25" y1="76.82" x2="81.01" y2="76.82" xlink:href="#linear-gradient"/><linearGradient id="linear-gradient-191" x1="52.45" y1="77.06" x2="81.22" y2="77.06" xlink:href="#linear-gradient"/><linearGradient id="linear-gradient-192" x1="52.65" y1="77.31" x2="81.42" y2="77.31" xlink:href="#linear-gradient"/><linearGradient id="linear-gradient-193" x1="52.85" y1="77.55" x2="81.62" y2="77.55" xlink:href="#linear-gradient"/><linearGradient id="linear-gradient-194" x1="53.05" y1="77.79" x2="81.82" y2="77.79" xlink:href="#linear-gradient"/><linearGradient id="linear-gradient-195" x1="53.26" y1="78.03" x2="82.02" y2="78.03" xlink:href="#linear-gradient"/><linearGradient id="linear-gradient-196" x1="53.46" y1="78.27" x2="82.22" y2="78.27" xlink:href="#linear-gradient"/><linearGradient id="linear-gradient-197" x1="53.66" y1="78.52" x2="82.42" y2="78.52" xlink:href="#linear-gradient"/><linearGradient id="linear-gradient-198" x1="53.86" y1="78.76" x2="82.62" y2="78.76" xlink:href="#linear-gradient"/><linearGradient id="linear-gradient-199" x1="54.06" y1="79" x2="82.82" y2="79" xlink:href="#linear-gradient"/><linearGradient id="linear-gradient-200" x1="54.26" y1="79.24" x2="83.02" y2="79.24" xlink:href="#linear-gradient"/><linearGradient id="linear-gradient-201" x1="54.46" y1="79.49" x2="83.22" y2="79.49" xlink:href="#linear-gradient"/><linearGradient id="linear-gradient-202" x1="54.66" y1="79.73" x2="83.43" y2="79.73" xlink:href="#linear-gradient"/><linearGradient id="linear-gradient-203" x1="54.86" y1="79.97" x2="83.63" y2="79.97" xlink:href="#linear-gradient"/></defs><title>r_1</title><circle class="cls-1" cx="29.21" cy="79.97" r="14.38"/><circle class="cls-2" cx="29.2" cy="78.54" r="14.38"/><circle class="cls-3" cx="29.18" cy="77.11" r="14.38"/><circle class="cls-4" cx="29.17" cy="75.68" r="14.38"/><circle class="cls-5" cx="29.16" cy="74.26" r="14.38"/><circle class="cls-6" cx="29.14" cy="72.83" r="14.38"/><circle class="cls-7" cx="29.13" cy="71.4" r="14.38"/><circle class="cls-8" cx="29.11" cy="69.97" r="14.38"/><circle class="cls-9" cx="29.1" cy="68.54" r="14.38"/><circle class="cls-10" cx="29.09" cy="67.11" r="14.38"/><circle class="cls-11" cx="29.07" cy="65.68" r="14.38"/><circle class="cls-12" cx="29.06" cy="64.25" r="14.38"/><circle class="cls-13" cx="29.04" cy="62.83" r="14.38"/><circle class="cls-14" cx="29.03" cy="61.4" r="14.38"/><circle class="cls-15" cx="29.02" cy="59.97" r="14.38"/><circle class="cls-16" cx="29" cy="58.54" r="14.38"/><circle class="cls-17" cx="28.99" cy="57.11" r="14.38"/><circle class="cls-18" cx="28.97" cy="55.68" r="14.38"/><circle class="cls-19" cx="28.96" cy="54.25" r="14.38"/><circle class="cls-20" cx="28.95" cy="52.83" r="14.38"/><circle class="cls-21" cx="28.93" cy="51.4" r="14.38"/><circle class="cls-22" cx="28.92" cy="49.97" r="14.38"/><circle class="cls-23" cx="28.91" cy="48.54" r="14.38"/><circle class="cls-24" cx="28.9" cy="47.11" r="14.38"/><circle class="cls-25" cx="28.89" cy="45.68" r="14.38"/><circle class="cls-26" cx="28.88" cy="44.25" r="14.38"/><circle class="cls-27" cx="28.87" cy="42.83" r="14.38"/><circle class="cls-28" cx="28.85" cy="41.4" r="14.38"/><circle class="cls-29" cx="28.84" cy="39.97" r="14.38"/><circle class="cls-30" cx="28.83" cy="38.54" r="14.38"/><circle class="cls-31" cx="28.82" cy="37.11" r="14.38"/><circle class="cls-32" cx="28.81" cy="35.68" r="14.38"/><circle class="cls-33" cx="28.8" cy="34.25" r="14.38"/><circle class="cls-34" cx="28.79" cy="32.82" r="14.38"/><circle class="cls-35" cx="28.77" cy="31.4" r="14.38"/><circle class="cls-36" cx="28.76" cy="29.97" r="14.38"/><circle class="cls-37" cx="28.75" cy="28.54" r="14.38"/><circle class="cls-38" cx="28.74" cy="27.11" r="14.38"/><circle class="cls-39" cx="28.73" cy="25.68" r="14.38"/><circle class="cls-40" cx="28.72" cy="24.25" r="14.38"/><circle class="cls-41" cx="28.71" cy="22.82" r="14.38"/><circle class="cls-42" cx="28.69" cy="21.4" r="14.38"/><circle class="cls-43" cx="28.68" cy="19.97" r="14.38"/><circle class="cls-44" cx="28.67" cy="18.54" r="14.38"/><circle class="cls-45" cx="28.68" cy="17.51" r="14.38"/><circle class="cls-46" cx="28.98" cy="17.51" r="14.38"/><circle class="cls-47" cx="29.62" cy="17.51" r="14.38"/><circle class="cls-48" cx="30.57" cy="17.51" r="14.38"/><circle class="cls-49" cx="31.78" cy="17.51" r="14.38"/><circle class="cls-50" cx="33.21" cy="17.51" r="14.38"/><circle class="cls-51" cx="34.82" cy="17.51" r="14.38"/><circle class="cls-52" cx="36.56" cy="17.51" r="14.38"/><circle class="cls-53" cx="38.4" cy="17.51" r="14.38"/><circle class="cls-54" cx="40.3" cy="17.51" r="14.38"/><circle class="cls-55" cx="42.2" cy="17.51" r="14.38"/><circle class="cls-56" cx="44.07" cy="17.51" r="14.38"/><circle class="cls-57" cx="45.87" cy="17.51" r="14.38"/><circle class="cls-58" cx="47.56" cy="17.51" r="14.38"/><circle class="cls-59" cx="49.09" cy="17.51" r="14.38"/><circle class="cls-60" cx="50.76" cy="17.53" r="14.38"/><circle class="cls-61" cx="52.62" cy="17.66" r="14.38"/><circle class="cls-62" cx="54.37" cy="17.92" r="14.38"/><circle class="cls-63" cx="56.03" cy="18.3" r="14.38"/><circle class="cls-64" cx="57.59" cy="18.79" r="14.38"/><circle class="cls-65" cx="59.04" cy="19.38" r="14.38"/><circle class="cls-66" cx="60.4" cy="20.07" r="14.38"/><circle class="cls-67" cx="61.66" cy="20.85" r="14.38"/><circle class="cls-68" cx="62.82" cy="21.72" r="14.38"/><circle class="cls-69" cx="63.89" cy="22.66" r="14.38"/><circle class="cls-70" cx="64.85" cy="23.67" r="14.38"/><circle class="cls-71" cx="65.72" cy="24.74" r="14.38"/><circle class="cls-72" cx="66.5" cy="25.87" r="14.38"/><circle class="cls-73" cx="67.17" cy="27.05" r="14.38"/><circle class="cls-74" cx="67.75" cy="28.27" r="14.38"/><circle class="cls-75" cx="68.24" cy="29.53" r="14.38"/><circle class="cls-76" cx="68.63" cy="30.82" r="14.38"/><circle class="cls-77" cx="68.92" cy="32.12" r="14.38"/><circle class="cls-78" cx="69.12" cy="33.45" r="14.38"/><circle class="cls-79" cx="69.23" cy="34.77" r="14.38"/><circle class="cls-80" cx="69.24" cy="36.11" r="14.38"/><circle class="cls-81" cx="69.16" cy="37.43" r="14.38"/><circle class="cls-82" cx="68.98" cy="38.74" r="14.38"/><circle class="cls-83" cx="68.72" cy="40.03" r="14.38"/><circle class="cls-84" cx="68.36" cy="41.3" r="14.38"/><circle class="cls-85" cx="67.91" cy="42.53" r="14.38"/><circle class="cls-86" cx="67.37" cy="43.72" r="14.38"/><circle class="cls-87" cx="66.74" cy="44.86" r="14.38"/><circle class="cls-88" cx="66.02" cy="45.95" r="14.38"/><circle class="cls-89" cx="65.14" cy="47.06" r="14.38"/><circle class="cls-90" cx="63.86" cy="48.34" r="14.38"/><circle class="cls-91" cx="62.42" cy="49.52" r="14.38"/><circle class="cls-92" cx="60.85" cy="50.58" r="14.38"/><circle class="cls-93" cx="59.22" cy="51.54" r="14.38"/><circle class="cls-94" cx="57.56" cy="52.39" r="14.38"/><circle class="cls-95" cx="55.92" cy="53.13" r="14.38"/><circle class="cls-96" cx="54.35" cy="53.77" r="14.38"/><circle class="cls-97" cx="52.9" cy="54.31" r="14.38"/><circle class="cls-98" cx="51.6" cy="54.74" r="14.38"/><circle class="cls-99" cx="50.51" cy="55.08" r="14.38"/><circle class="cls-100" cx="49.68" cy="55.32" r="14.38"/><circle class="cls-101" cx="49.14" cy="55.46" r="14.38"/><circle class="cls-102" cx="48.95" cy="55.51" r="14.38"/><circle class="cls-103" cx="49.16" cy="55.75" r="14.38"/><circle class="cls-104" cx="49.36" cy="55.99" r="14.38"/><circle class="cls-105" cx="49.56" cy="56.23" r="14.38"/><circle class="cls-106" cx="49.76" cy="56.48" r="14.38"/><circle class="cls-107" cx="49.96" cy="56.72" r="14.38"/><circle class="cls-108" cx="50.16" cy="56.96" r="14.38"/><circle class="cls-109" cx="50.36" cy="57.2" r="14.38"/><circle class="cls-110" cx="50.56" cy="57.44" r="14.38"/><circle class="cls-111" cx="50.76" cy="57.69" r="14.38"/><circle class="cls-112" cx="50.96" cy="57.93" r="14.38"/><circle class="cls-113" cx="51.16" cy="58.17" r="14.38"/><circle class="cls-114" cx="51.37" cy="58.41" r="14.38"/><circle class="cls-115" cx="51.57" cy="58.66" r="14.38"/><circle class="cls-116" cx="51.77" cy="58.9" r="14.38"/><circle class="cls-117" cx="51.97" cy="59.14" r="14.38"/><circle class="cls-118" cx="52.17" cy="59.38" r="14.38"/><circle class="cls-119" cx="52.37" cy="59.62" r="14.38"/><circle class="cls-120" cx="52.57" cy="59.87" r="14.38"/><circle class="cls-121" cx="52.77" cy="60.11" r="14.38"/><circle class="cls-122" cx="52.97" cy="60.35" r="14.38"/><circle class="cls-123" cx="53.17" cy="60.59" r="14.38"/><circle class="cls-124" cx="53.37" cy="60.84" r="14.38"/><circle class="cls-125" cx="53.58" cy="61.08" r="14.38"/><circle class="cls-126" cx="53.78" cy="61.32" r="14.38"/><circle class="cls-127" cx="53.98" cy="61.56" r="14.38"/><circle class="cls-128" cx="54.18" cy="61.8" r="14.38"/><circle class="cls-129" cx="54.38" cy="62.05" r="14.38"/><circle class="cls-130" cx="54.58" cy="62.29" r="14.38"/><circle class="cls-131" cx="54.78" cy="62.53" r="14.38"/><circle class="cls-132" cx="54.98" cy="62.77" r="14.38"/><circle class="cls-133" cx="55.18" cy="63.02" r="14.38"/><circle class="cls-134" cx="55.38" cy="63.26" r="14.38"/><circle class="cls-135" cx="55.58" cy="63.5" r="14.38"/><circle class="cls-136" cx="55.78" cy="63.74" r="14.38"/><circle class="cls-137" cx="55.99" cy="63.98" r="14.38"/><circle class="cls-138" cx="56.19" cy="64.23" r="14.38"/><circle class="cls-139" cx="56.39" cy="64.47" r="14.38"/><circle class="cls-140" cx="56.59" cy="64.71" r="14.38"/><circle class="cls-141" cx="56.79" cy="64.95" r="14.38"/><circle class="cls-142" cx="56.99" cy="65.2" r="14.38"/><circle class="cls-143" cx="57.19" cy="65.44" r="14.38"/><circle class="cls-144" cx="57.39" cy="65.68" r="14.38"/><circle class="cls-145" cx="57.59" cy="65.92" r="14.38"/><circle class="cls-146" cx="57.79" cy="66.16" r="14.38"/><circle class="cls-147" cx="57.99" cy="66.41" r="14.38"/><circle class="cls-148" cx="58.2" cy="66.65" r="14.38"/><circle class="cls-149" cx="58.4" cy="66.89" r="14.38"/><circle class="cls-150" cx="58.6" cy="67.13" r="14.38"/><circle class="cls-151" cx="58.8" cy="67.38" r="14.38"/><circle class="cls-152" cx="59" cy="67.62" r="14.38"/><circle class="cls-153" cx="59.2" cy="67.86" r="14.38"/><circle class="cls-154" cx="59.4" cy="68.1" r="14.38"/><circle class="cls-155" cx="59.6" cy="68.34" r="14.38"/><circle class="cls-156" cx="59.8" cy="68.59" r="14.38"/><circle class="cls-157" cx="60" cy="68.83" r="14.38"/><circle class="cls-158" cx="60.2" cy="69.07" r="14.38"/><circle class="cls-159" cx="60.41" cy="69.31" r="14.38"/><circle class="cls-160" cx="60.61" cy="69.56" r="14.38"/><circle class="cls-161" cx="60.81" cy="69.8" r="14.38"/><circle class="cls-162" cx="61.01" cy="70.04" r="14.38"/><circle class="cls-163" cx="61.21" cy="70.28" r="14.38"/><circle class="cls-164" cx="61.41" cy="70.52" r="14.38"/><circle class="cls-165" cx="61.61" cy="70.77" r="14.38"/><circle class="cls-166" cx="61.81" cy="71.01" r="14.38"/><circle class="cls-167" cx="62.01" cy="71.25" r="14.38"/><circle class="cls-168" cx="62.21" cy="71.49" r="14.38"/><circle class="cls-169" cx="62.41" cy="71.73" r="14.38"/><circle class="cls-170" cx="62.62" cy="71.98" r="14.38"/><circle class="cls-171" cx="62.82" cy="72.22" r="14.38"/><circle class="cls-172" cx="63.02" cy="72.46" r="14.38"/><circle class="cls-173" cx="63.22" cy="72.7" r="14.38"/><circle class="cls-174" cx="63.42" cy="72.95" r="14.38"/><circle class="cls-175" cx="63.62" cy="73.19" r="14.38"/><circle class="cls-176" cx="63.82" cy="73.43" r="14.38"/><circle class="cls-177" cx="64.02" cy="73.67" r="14.38"/><circle class="cls-178" cx="64.22" cy="73.91" r="14.38"/><circle class="cls-179" cx="64.42" cy="74.16" r="14.38"/><circle class="cls-180" cx="64.62" cy="74.4" r="14.38"/><circle class="cls-181" cx="64.83" cy="74.64" r="14.38"/><circle class="cls-182" cx="65.03" cy="74.88" r="14.38"/><circle class="cls-183" cx="65.23" cy="75.13" r="14.38"/><circle class="cls-184" cx="65.43" cy="75.37" r="14.38"/><circle class="cls-185" cx="65.63" cy="75.61" r="14.38"/><circle class="cls-186" cx="65.83" cy="75.85" r="14.38"/><circle class="cls-187" cx="66.03" cy="76.09" r="14.38"/><circle class="cls-188" cx="66.23" cy="76.34" r="14.38"/><circle class="cls-189" cx="66.43" cy="76.58" r="14.38"/><circle class="cls-190" cx="66.63" cy="76.82" r="14.38"/><circle class="cls-191" cx="66.83" cy="77.06" r="14.38"/><circle class="cls-192" cx="67.03" cy="77.31" r="14.38"/><circle class="cls-193" cx="67.24" cy="77.55" r="14.38"/><circle class="cls-194" cx="67.44" cy="77.79" r="14.38"/><circle class="cls-195" cx="67.64" cy="78.03" r="14.38"/><circle class="cls-196" cx="67.84" cy="78.27" r="14.38"/><circle class="cls-197" cx="68.04" cy="78.52" r="14.38"/><circle class="cls-198" cx="68.24" cy="78.76" r="14.38"/><circle class="cls-199" cx="68.44" cy="79" r="14.38"/><circle class="cls-200" cx="68.64" cy="79.24" r="14.38"/><circle class="cls-201" cx="68.84" cy="79.49" r="14.38"/><circle class="cls-202" cx="69.04" cy="79.73" r="14.38"/><circle class="cls-203" cx="69.24" cy="79.97" r="14.38"/></svg>